<svg width="103" height="105" viewBox="0 0 103 105" fill="none" xmlns="http://www.w3.org/2000/svg">
<g opacity="0.8">
<path d="M16.0144 46.2891V68.9209L11.6468 73.8179L10.8209 75.0361C8.59459 78.3199 3.83167 78.5277 1.3279 75.4501C0.468949 74.3943 0 73.0748 0 71.7138V68.9631C0 66.6775 0.573499 64.4284 1.66796 62.4219L2.42039 61.0425C5.01447 56.2866 8.55571 52.1129 12.8256 48.779L16.0144 46.2891Z" fill="#F3CA1E"/>
<path d="M86.4231 46.2891V68.9209L90.7907 73.8179L91.6166 75.0361C93.8429 78.3199 98.6058 78.5277 101.11 75.4501C101.969 74.3943 102.438 73.0748 102.438 71.7138V68.9631C102.438 66.6775 101.864 64.4284 100.77 62.4219L100.017 61.0425C97.423 56.2866 93.8818 52.1129 89.6119 48.779L86.4231 46.2891Z" fill="#F3CA1E"/>
<path d="M87.5287 34.4745C89.6496 54.3824 87.5287 129.799 50.8709 95.8028C14.2131 129.799 11.1549 54.3824 14.2131 34.4745C14.2131 15.4348 30.6254 0 50.8709 0C71.1165 0 87.5287 15.4348 87.5287 34.4745Z" fill="#F3CA1E"/>
<path d="M88.0756 33.8052C88.0756 47.4739 89.6338 46.0979 79.6529 51.7849C63.9374 51.7849 51.2148 50.199 51.2148 36.5303C51.2148 22.8615 62.1379 12.293 77.8533 12.293C77.8533 12.293 88.0756 20.1364 88.0756 33.8052Z" fill="#F6E6D0"/>
<circle cx="75.725" cy="30.1059" r="2.56098" fill="#343137"/>
<path d="M76.2392 38.8135C75.8612 38.4354 76.1289 37.7891 76.6636 37.7891H84.01C84.5447 37.7891 84.8124 38.4354 84.4344 38.8135C82.0883 40.8663 78.5853 40.8663 76.2392 38.8135Z" fill="#343137"/>
</g>
</svg>
