<svg width="1440" height="700" viewBox="0 0 1440 700" fill="none" xmlns="http://www.w3.org/2000/svg">
<rect width="720" height="700" fill="#343137"/>
<rect x="720" width="720" height="700" fill="white"/>
<path d="M593.832 236.928L597.608 237.792C596.264 242.848 593.992 247.872 591.432 251.04C590.76 250.368 589.224 249.12 588.36 248.544C590.792 245.792 592.744 241.376 593.832 236.928ZM592.936 251.168L596.648 251.936C595.752 256 594.088 260.096 592.296 262.688C591.56 262.08 589.928 261.088 589.032 260.608C590.824 258.368 592.2 254.72 592.936 251.168ZM594.536 242.56H607.656V246.112H593.096L594.536 242.56ZM598.216 244.128H602.024V262.592C602.024 264.448 601.704 265.504 600.552 266.144C599.432 266.752 597.864 266.912 595.816 266.912C595.624 265.792 595.048 264.096 594.504 263.04C595.848 263.104 597.192 263.072 597.64 263.072C598.056 263.072 598.216 262.976 598.216 262.56V244.128ZM603.144 252L606.6 250.848C608.264 254.144 609.64 258.4 610.088 261.312L606.408 262.592C606.056 259.712 604.712 255.296 603.144 252ZM606.632 242.56H607.144L607.752 242.464L610.44 242.944C610.056 245.568 609.48 248.544 609.064 250.464L605.768 249.888C606.056 248.16 606.408 245.312 606.632 243.072V242.56ZM586.984 236.96L590.6 238.08C588.52 243.552 585.192 249.312 581.704 252.96C581.352 252.032 580.328 249.92 579.656 248.992C582.568 246.08 585.352 241.536 586.984 236.96ZM583.88 245.792L587.528 242.144L587.56 242.176V266.848H583.88V245.792ZM619.176 242.016H629V263.584H619.176V260.192H625.512V245.376H619.176V242.016ZM616.936 242.016H620.424V265.952H616.936V242.016ZM619.016 250.56H627.208V253.888H619.016V250.56ZM621.48 236.8L625.672 237.408C624.936 239.584 624.136 241.856 623.496 243.36L620.424 242.688C620.872 241.024 621.32 238.56 621.48 236.8ZM633.224 241.792H642.568V245.28H633.224V241.792ZM641.256 241.792H644.808C644.808 241.792 644.808 243.04 644.776 243.52C644.36 257.92 643.976 263.008 642.664 264.704C641.768 265.952 640.872 266.304 639.56 266.496C638.344 266.688 636.392 266.656 634.536 266.56C634.472 265.504 633.96 263.872 633.256 262.848C635.336 263.008 637.256 263.04 638.056 263.04C638.696 263.04 639.048 262.912 639.464 262.464C640.488 261.376 640.904 255.872 641.256 242.528V241.792ZM633.32 236.832L637 237.696C635.752 242.432 633.672 247.296 631.496 250.368C630.792 249.728 629.224 248.64 628.328 248.128C630.472 245.44 632.296 241.088 633.32 236.832ZM631.752 251.008L634.76 249.312C636.328 251.52 638.44 254.592 639.432 256.48L636.168 258.464C635.304 256.512 633.288 253.376 631.752 251.008ZM658.408 245.632H674.024V248.992H658.408V245.632ZM656.168 259.264H679.336V262.624H656.168V259.264ZM657 239.744H679.496V243.168H657V239.744ZM672.52 245.632H676.328C676.328 245.632 676.296 246.848 676.296 247.296C675.944 259.712 675.496 263.872 674.504 265.248C673.768 266.304 672.936 266.656 671.848 266.816C670.792 266.944 669.16 266.944 667.528 266.88C667.496 266.048 667.112 264.768 666.632 263.936C668.072 264.064 669.32 264.096 669.96 264.064C670.536 264.064 670.824 263.968 671.112 263.552C671.848 262.592 672.232 258.176 672.52 246.4V245.632ZM656.584 245.632H660.456C659.816 251.296 658.888 258.336 658.12 262.624H654.184C655.08 258.208 656.104 251.136 656.584 245.632ZM658.056 236.64L661.896 237.76C659.912 242.144 656.904 246.592 654.12 249.376C653.32 248.736 651.656 247.648 650.696 247.136C653.64 244.672 656.424 240.608 658.056 236.64ZM662.28 250.272L664.392 248.224C666.184 249.024 668.456 250.336 669.608 251.392L667.368 253.664C666.312 252.576 664.104 251.136 662.28 250.272ZM661.864 256.896L663.944 254.848C665.8 255.68 668.104 257.088 669.288 258.176L667.048 260.448C665.992 259.328 663.72 257.824 661.864 256.896ZM650.888 252.352H657.64V252.48H674.216V252.352H680.712V255.776H674.216V255.68H657.64V255.776H650.888V252.352ZM686.216 249.44H715.848V253.632H686.216V249.44ZM511.56 304.224H522.632V307.52H511.56V304.224ZM515.4 326.048H523.432V329.152H515.4V326.048ZM515.4 320.928H523.528V323.84H515.4V320.928ZM510.184 310.144H526.568V313.472H510.184V310.144ZM515.784 301.088H519.336V312.352H515.784V301.088ZM524.2 302.24L527.656 303.232C524.392 311.616 518.792 318.112 511.56 322.016C511.144 321.184 510.024 319.584 509.352 318.816C516.232 315.552 521.416 309.792 524.2 302.24ZM516.616 315.84H523.368V318.912H516.616V330.816H513.16V318.048L515.24 315.84H516.616ZM521.832 315.84H525.48V330.368H521.832V315.84ZM527.592 302.624H537V306.208H531.368V330.848H527.592V302.624ZM536.104 302.624H536.84L537.416 302.464L540.2 304.192C539.08 307.264 537.64 310.912 536.36 313.76C539.048 316.608 539.624 319.136 539.624 321.248C539.624 323.648 539.08 325.216 537.832 326.048C537.192 326.496 536.424 326.784 535.56 326.88C534.792 326.976 533.768 327.008 532.776 326.944C532.744 325.92 532.36 324.256 531.752 323.232C532.584 323.296 533.224 323.328 533.8 323.296C534.28 323.296 534.76 323.2 535.112 323.008C535.72 322.656 535.944 321.92 535.944 320.832C535.944 319.072 535.208 316.704 532.584 314.24C533.896 311.104 535.4 306.24 536.104 303.936V302.624ZM546.056 314.496H574.408V317.888H546.056V314.496ZM560.392 320.288H572.36V323.584H560.392V320.288ZM558.6 316.224H562.472V328.064H558.6V316.224ZM553.64 321.344C555.4 326.016 559.464 326.752 565.064 326.784C566.824 326.816 573 326.784 575.304 326.72C574.76 327.552 574.184 329.248 573.992 330.368H564.84C557.48 330.368 553.096 329.056 550.472 322.368L553.64 321.344ZM550.856 318.56L554.696 319.104C553.64 324.384 551.336 328.416 547.784 330.944C547.208 330.24 545.736 328.832 544.904 328.256C548.168 326.24 550.12 322.848 550.856 318.56ZM552.744 308.768V310.368H567.432V308.768H552.744ZM552.744 304.64V306.24H567.432V304.64H552.744ZM549.032 301.92H571.336V313.088H549.032V301.92ZM597.288 306.56H610.12V310.08H597.288V306.56ZM598.12 300.8L601.928 301.504C600.712 307.744 598.536 313.824 595.56 317.664C594.984 316.896 593.544 315.36 592.744 314.688C595.4 311.488 597.192 306.24 598.12 300.8ZM604.84 308.864L608.808 309.312C607.176 320.16 603.496 327.008 595.272 331.008C594.888 330.08 593.768 328.288 593.032 327.456C600.488 324.288 603.624 318.304 604.84 308.864ZM599.304 309.376C600.84 317.632 604.2 324.448 610.792 327.424C609.896 328.16 608.744 329.664 608.168 330.688C601.064 327.008 597.8 319.648 595.912 309.984L599.304 309.376ZM582.056 329.952L581.512 326.272L583.08 324.928L593.384 321.376C593.384 322.496 593.608 324.128 593.8 324.992C584.52 328.48 583.016 329.216 582.056 329.952ZM582.056 329.952C581.864 328.864 581.256 326.944 580.616 325.984C581.256 325.696 581.8 325.152 581.8 323.936V312H585.672V327.136C585.672 327.136 582.056 328.64 582.056 329.952ZM581.48 302.816H593.416V315.776H582.568V312H589.608V306.592H581.48V302.816ZM626.056 306.56H634.76V308.512H626.056V306.56ZM626.056 309.568H634.76V311.552H626.056V309.568ZM625.352 303.456H635.4V305.536H625.352V303.456ZM628.424 314.72V316.64H632.264V314.72H628.424ZM626.152 312.736H634.632V318.624H626.152V312.736ZM622.376 309.184L624.424 308.608C625.064 309.984 625.672 311.808 625.832 312.928L623.656 313.6C623.528 312.48 622.984 310.592 622.376 309.184ZM616.616 308.672C616.488 308.128 616.04 306.88 615.752 306.208C616.2 306.112 616.648 305.76 617.064 305.216C617.512 304.736 618.984 302.688 619.816 300.704L622.44 301.536C621.32 303.712 619.784 305.888 618.472 307.264V307.296C618.472 307.296 616.616 308.096 616.616 308.672ZM616.616 308.672L616.584 306.88L617.8 306.144L622.44 305.984C622.312 306.592 622.152 307.552 622.12 308.064C617.96 308.32 617.096 308.448 616.616 308.672ZM616.712 313.696C616.552 313.184 616.168 311.936 615.88 311.264C616.488 311.168 617.128 310.688 617.864 310.016C618.664 309.312 621.16 306.624 622.856 303.904L625.32 305.024C623.304 307.84 620.872 310.56 618.6 312.352V312.416C618.6 312.416 616.712 313.152 616.712 313.696ZM616.712 313.696L616.616 311.936L617.8 311.168L624.712 310.496C624.552 311.104 624.488 312 624.488 312.48C618.248 313.216 617.256 313.44 616.712 313.696ZM619.368 314.528L621.512 314.08C621.832 315.52 622.088 317.44 622.152 318.688L619.88 319.2C619.88 317.92 619.624 316 619.368 314.528ZM616.392 314.112L618.632 314.528C618.504 316.512 618.184 318.624 617.672 320.032C617.224 319.712 616.264 319.168 615.688 318.88C616.2 317.568 616.328 315.808 616.392 314.112ZM622.408 314.368L624.392 313.792C624.808 315.072 625.256 316.736 625.416 317.792L623.336 318.464C623.208 317.344 622.792 315.648 622.408 314.368ZM628.328 301.472L631.144 300.512C631.752 301.536 632.36 302.976 632.52 303.904L629.544 304.992C629.384 304.032 628.872 302.592 628.328 301.472ZM641.768 308.736L643.88 308.192C644.52 309.664 645.128 311.648 645.288 312.864L643.08 313.536C642.92 312.288 642.376 310.272 641.768 308.736ZM635.912 308.704C635.784 308.16 635.336 306.944 635.08 306.272C635.496 306.176 635.944 305.824 636.392 305.312C636.808 304.8 638.28 302.848 639.112 300.864L641.704 301.696C640.584 303.84 639.08 305.952 637.768 307.296V307.328C637.768 307.328 635.912 308.128 635.912 308.704ZM635.912 308.704L635.88 306.944L637.064 306.272L641.736 306.08C641.576 306.688 641.448 307.616 641.416 308.096C637.288 308.352 636.392 308.48 635.912 308.704ZM636.104 313.568C635.976 313.024 635.592 311.84 635.304 311.2C635.912 311.104 636.52 310.656 637.256 309.92C638.024 309.248 640.392 306.624 642.024 303.968L644.424 305.056C642.504 307.744 640.264 310.432 638.152 312.224V312.256C638.152 312.256 636.104 312.992 636.104 313.568ZM636.104 313.568L636.04 311.776L637.224 311.04L644.072 310.336C643.944 310.944 643.88 311.872 643.88 312.32C637.672 313.088 636.68 313.28 636.104 313.568ZM638.92 314.4L641.064 314.016C641.416 315.456 641.672 317.344 641.704 318.56L639.464 319.04C639.464 317.792 639.272 315.872 638.92 314.4ZM635.912 314.016L638.28 314.56C638.088 316.256 637.672 318.272 637.288 319.584C636.776 319.2 635.784 318.688 635.208 318.432C635.592 317.152 635.784 315.488 635.912 314.016ZM642.024 314.08L644.04 313.6C644.552 315.008 645.032 316.928 645.192 318.144L643.08 318.752C642.92 317.504 642.472 315.552 642.024 314.08ZM623.112 320.288H643.944V323.072H623.112V320.288ZM636.936 321.248L640.488 322.304C636.072 328.288 626.856 330.176 617.352 331.104C617.032 330.272 616.168 328.768 615.592 328C624.904 327.552 633.672 325.952 636.936 321.248ZM624.136 318.24L627.432 319.232C625.32 322.56 621.608 325.248 617.864 326.848C617.448 326.112 616.392 324.64 615.752 323.936C619.176 322.784 622.472 320.736 624.136 318.24ZM624.072 322.112C628.104 325.632 636.488 327.456 645.608 327.936C644.904 328.672 644.072 330.08 643.688 330.976C634.408 330.24 626.152 328.032 621.224 323.424L624.072 322.112ZM662.568 304.128H680.168V307.36H662.568V304.128ZM662.216 318.592H680.264V321.824H662.216V318.592ZM666.632 309.024H675.528V311.84H666.632V309.024ZM664.808 300.832H668.296V313.568H674.024V300.832H677.672V316.64H664.808V300.832ZM669.544 316.064H673.256V330.88H669.544V316.064ZM651.144 318.624L653.128 316.16C656.2 319.072 660.52 323.168 662.44 325.728L660.2 328.64C658.344 325.952 654.216 321.696 651.144 318.624ZM651.144 318.624C652.296 314.144 653.512 306.752 653.864 301.024L657.128 301.184C656.648 307.168 655.336 314.784 654.152 319.648L651.144 318.624ZM658.12 305.344H661.256V309.248C661.256 315.36 660.488 324.224 652.872 330.592C652.36 329.888 651.208 328.768 650.472 328.256C657.512 322.592 658.12 314.624 658.12 309.216V305.344ZM650.632 307.712C653.736 307.584 658.248 307.36 662.568 307.104V310.432C658.504 310.72 654.216 310.976 651.016 311.168L650.632 307.712ZM666.184 322.432L668.904 323.392C667.88 325.952 666.056 328.8 664.2 330.336C663.656 329.536 662.504 328.352 661.736 327.712C663.464 326.56 665.256 324.416 666.184 322.432ZM673.992 323.584L676.744 322.464C678.152 324.416 679.976 327.104 680.84 328.768L677.896 330.08C677.128 328.416 675.4 325.664 673.992 323.584ZM699.4 314.592H715.752V317.312H699.4V314.592ZM699.048 327.616H716.04V330.4H699.048V327.616ZM703.656 300.864H706.632V305.056H703.656V300.864ZM708.008 300.864H711.016V305.056H708.008V300.864ZM702.696 309.44V310.944H712.2V309.44H702.696ZM702.696 305.664V307.136H712.2V305.664H702.696ZM699.88 303.136H715.144V313.44H699.88V303.136ZM703.944 320.704V322.368H710.92V320.704H703.944ZM700.616 318.368H714.472V324.672H700.616V318.368ZM709.864 324.384L713.288 325.312C712.36 326.752 711.496 328.224 710.824 329.152L708.36 328.288C708.904 327.168 709.544 325.536 709.864 324.384ZM701.992 325.28L704.872 324.384C705.384 325.536 705.96 327.04 706.248 328L703.24 329.024C703.016 328.032 702.472 326.432 701.992 325.28ZM704.328 304.544H706.664V312.448H704.328V304.544ZM708.2 304.544H710.536V312.448H708.2V304.544ZM689.256 314.88H696.36V317.376H689.256V314.88ZM694.664 314.88H697.832V327.584C697.832 328.96 697.608 329.76 696.712 330.24C695.848 330.688 694.664 330.752 693 330.752C692.872 329.92 692.456 328.704 692.072 327.904C693 327.936 693.96 327.936 694.248 327.936C694.568 327.936 694.664 327.84 694.664 327.52V314.88ZM687.496 301.824H697.928V312.16H694.792V304.544H690.44V312.16H687.496V301.824ZM686.248 310.976H699.272V316H696.392V313.568H689V316H686.248V310.976ZM691.656 305.856H696.872V308H693.608V311.84H691.656V305.856ZM687.816 314.88H690.92V320.96C690.92 324.032 690.632 328.256 688.808 330.976C688.232 330.432 686.856 329.472 686.12 329.12C687.688 326.752 687.816 323.456 687.816 320.928V314.88ZM690.408 324.096C691.88 323.52 693.928 322.528 696.072 321.504L696.648 323.36C694.856 324.512 693.16 325.6 691.56 326.624L690.408 324.096ZM690.44 319.68L692.008 318.08C693.096 318.784 694.376 319.68 695.048 320.32L693.384 322.176C692.776 321.504 691.464 320.384 690.44 319.68Z" fill="white"/>
<path d="M737.08 236.832L741.304 237.6C740.12 243.392 737.976 248.928 735.416 252.384C734.552 251.744 732.632 250.656 731.576 250.208C734.232 247.2 736.12 242.048 737.08 236.832ZM737.656 241.888H750.552V245.728H735.8L737.656 241.888ZM749.336 241.888H749.88L750.648 241.696L753.464 243.328C752.632 246.72 751.256 250.208 750.104 252.64C749.304 252.224 747.736 251.456 746.84 251.072C747.736 249.024 748.92 245.44 749.336 242.752V241.888ZM744.28 249.088C745.528 255.84 748.312 261.12 754.168 263.296C753.336 264.064 752.152 265.664 751.608 266.752C745.208 263.84 742.488 257.856 740.952 249.6L744.28 249.088ZM740.408 246.528H744.536V249.6C744.536 254.784 743.448 262.4 733.816 267.04C733.208 266.08 731.832 264.608 730.904 263.904C739.544 259.936 740.408 253.664 740.408 249.504V246.528ZM724.984 241.472H733.848V245.184H724.984V241.472ZM724.344 254.336H734.552V258.144H724.344V254.336ZM775 251.968H788.088V266.72H784.44V255.424H778.488V266.848H775V251.968ZM779.256 236.864H783V252.896H779.256V236.864ZM781.496 243.456H789.208V247.008H781.496V243.456ZM776.824 262.144H786.136V265.632H776.824V262.144ZM763.16 240.384V247.36H770.936V240.384H763.16ZM760.312 237.792H773.912V249.952H760.312V237.792ZM763.096 241.76L764.664 241.28C765.176 242.752 765.592 244.672 765.688 245.888L764.024 246.432C763.96 245.152 763.576 243.232 763.096 241.76ZM764.056 260.416L766.424 260.192C766.744 261.952 766.904 264.256 766.872 265.792L764.376 266.048C764.472 264.544 764.344 262.208 764.056 260.416ZM767.32 260.384L769.592 259.968C770.2 261.632 770.776 263.808 770.936 265.248L768.568 265.76C768.44 264.288 767.896 262.08 767.32 260.384ZM770.52 260.32L772.824 259.488C773.816 261.056 774.744 263.136 775.096 264.576L772.664 265.504C772.344 264.096 771.448 261.92 770.52 260.32ZM760.984 259.488L763.512 260.416C763.128 262.4 762.488 264.864 761.592 266.4L758.936 265.312C759.864 263.776 760.6 261.408 760.984 259.488ZM769.368 241.248L771.288 241.92C770.68 243.456 770.04 245.312 769.496 246.464L768.088 245.952C768.536 244.64 769.112 242.592 769.368 241.248ZM760.344 251.328H773.816V254.24H760.344V251.328ZM765.816 239.104H768.152V248.768H768.664V257.12H765.304V248.768H765.816V239.104ZM759.704 255.84H774.264V258.72H759.704V255.84ZM817.112 237.728H820.344V240.448C820.344 241.088 820.408 241.344 820.856 241.344C821.144 241.344 822.104 241.344 822.424 241.344C822.904 241.344 823.704 241.312 824.152 241.152C824.216 241.984 824.28 243.104 824.408 243.872C823.928 244.064 823.192 244.064 822.52 244.064C822.04 244.064 820.92 244.064 820.44 244.064C817.688 244.064 817.112 243.008 817.112 240.416V237.728ZM797.144 256.672H820.856V259.008H797.144V256.672ZM794.296 259.968H824.504V262.4H794.296V259.968ZM807.512 253.952H811.32V263.584C811.32 265.312 810.872 266.016 809.592 266.464C808.312 266.88 806.584 266.88 804.088 266.88C803.896 266.016 803.352 264.832 802.904 264.032C804.408 264.096 806.328 264.096 806.808 264.064C807.32 264.064 807.512 263.936 807.512 263.488V253.952ZM819.352 252.704L821.592 254.624C814.904 255.616 804.792 255.936 796.408 255.776C796.376 255.168 796.088 254.176 795.864 253.632C804.088 253.76 814.008 253.44 819.352 252.704ZM795.256 238.272H809.272V240.192H795.256V238.272ZM794.52 247.168H809.432V249.024H794.52V247.168ZM798.584 244.288V245.088H805.848V244.288H798.584ZM798.584 242.272V243.04H805.848V242.272H798.584ZM796.088 240.96H808.44V246.4H796.088V240.96ZM800.664 236.864H803.608V251.904H800.664V236.864ZM810.616 244.672H820.344V247.072H810.616V244.672ZM813.144 237.728H818.84V240.288H813.144V237.728ZM819.448 244.672H820.056L820.632 244.576L822.424 245.12C820.472 250.208 815.928 252.224 809.816 253.12C809.56 252.416 809.016 251.296 808.536 250.688C813.848 250.144 817.976 248.544 819.448 244.992V244.672ZM813.752 246.752C815.704 249.056 819.896 250.432 824.792 250.912C824.12 251.52 823.288 252.736 822.904 253.568C817.624 252.8 813.4 250.848 810.968 247.648L813.752 246.752ZM811.16 237.728H814.328V239.648C814.328 241.856 813.432 243.936 809.56 245.184C809.112 244.544 807.928 243.296 807.288 242.816C810.68 241.92 811.16 240.832 811.16 239.52V237.728ZM795.992 249.376H798.584V250.88H805.784V249.376H808.504V252.8H795.992V249.376ZM841.88 258.88L840.856 256.288C843.544 255.456 845.016 253.888 845.016 252.032L844.792 248.896L846.552 251.776C846.04 252.256 845.368 252.48 844.664 252.48C843.064 252.48 841.592 251.424 841.592 249.6C841.592 247.808 843.032 246.72 844.76 246.72C847 246.72 848.216 248.448 848.216 251.136C848.216 254.752 845.848 257.696 841.88 258.88ZM723.992 302.688H732.728V306.048H723.992V302.688ZM724.248 312H732.472V315.36H724.248V312ZM723.576 324C725.912 323.52 729.272 322.656 732.536 321.824L732.952 325.12C730.008 325.952 726.84 326.784 724.248 327.488L723.576 324ZM726.744 304.832H730.072V324.16L726.744 324.928V304.832ZM733.848 310.176H753.528V313.216H733.848V310.176ZM739.096 316.992V318.752H748.12V316.992H739.096ZM735.704 314.336H751.736V321.408H735.704V314.336ZM747.128 304.448V306.56H749.24V304.448H747.128ZM742.616 304.448V306.56H744.632V304.448H742.616ZM738.104 304.448V306.56H740.088V304.448H738.104ZM735 301.856H752.504V309.152H735V301.856ZM745.816 320.192C747.128 323.744 749.976 326.496 754.2 327.616C753.432 328.288 752.408 329.632 751.96 330.528C747.256 328.96 744.408 325.504 742.776 320.832L745.816 320.192ZM750.936 321.44L753.432 323.68C751.544 324.672 749.56 325.632 747.992 326.208L746.2 324.448C747.64 323.712 749.784 322.368 750.936 321.44ZM741.848 319.68L744.44 320.8C742.104 323.328 738.04 325.632 734.392 326.752C733.912 325.952 732.92 324.768 732.216 324.128C735.8 323.328 739.768 321.6 741.848 319.68ZM736.984 330.816C736.792 330.112 736.184 328.832 735.736 328.256C736.312 327.968 737.048 327.36 737.048 326.048V323.392L740.088 322.656V328.224C740.088 328.224 736.984 329.856 736.984 330.816ZM736.984 330.816L736.76 328.288L738.104 327.296L744.6 326.048C744.504 326.88 744.504 328.16 744.536 328.832C738.68 330.144 737.592 330.464 736.984 330.816ZM770.84 302.752H787.352V305.856H770.84V302.752ZM769.912 308.608H788.184V311.776H769.912V308.608ZM773.144 306.496L776.216 305.856C776.632 306.72 777.08 307.904 777.24 308.704L774.008 309.472C773.88 308.672 773.528 307.424 773.144 306.496ZM781.784 305.888L785.272 306.528C784.632 307.744 784.056 308.928 783.576 309.76L780.632 309.12C781.048 308.16 781.56 306.816 781.784 305.888ZM774.712 318.816V320.16H782.936V318.816H774.712ZM774.712 315.232V316.576H782.936V315.232H774.712ZM771.192 312.832H786.616V322.56H771.192V312.832ZM773.944 321.696H777.528C777.08 326.464 775.736 329.376 769.24 330.976C768.952 330.112 768.024 328.704 767.288 328.032C772.76 326.976 773.592 325.088 773.944 321.696ZM779.736 321.728H783.32V326.592C783.32 326.976 783.32 327.232 783.448 327.328C783.544 327.456 783.736 327.488 783.992 327.488C784.216 327.488 784.632 327.488 784.888 327.488C785.144 327.488 785.4 327.488 785.528 327.392C785.72 327.328 785.848 327.168 785.912 326.752C786.008 326.368 786.04 325.504 786.072 324.352C786.712 324.96 788.056 325.6 789.016 325.92C788.92 327.136 788.76 328.416 788.504 328.96C788.216 329.536 787.8 329.92 787.16 330.144C786.68 330.336 785.784 330.432 785.176 330.432C784.6 330.432 783.64 330.432 783.128 330.432C782.264 330.432 781.208 330.208 780.632 329.664C780.024 329.152 779.736 328.448 779.736 326.496V321.728ZM776.664 301.248L780.28 300.576C780.728 301.536 781.208 302.848 781.432 303.68L777.688 304.544C777.528 303.68 777.048 302.272 776.664 301.248ZM759.448 308.48H769.048V312.096H759.448V308.48ZM762.584 301.28H766.328V322.72H762.584V301.28ZM758.904 323.2C761.496 322.432 765.496 320.992 769.272 319.648L770.04 323.136C766.68 324.544 763.032 325.984 760.152 327.104L758.904 323.2ZM797.976 306.016H807.8V327.584H797.976V324.192H804.312V309.376H797.976V306.016ZM795.736 306.016H799.224V329.952H795.736V306.016ZM797.816 314.56H806.008V317.888H797.816V314.56ZM800.28 300.8L804.472 301.408C803.736 303.584 802.936 305.856 802.296 307.36L799.224 306.688C799.672 305.024 800.12 302.56 800.28 300.8ZM812.024 305.792H821.368V309.28H812.024V305.792ZM820.056 305.792H823.608C823.608 305.792 823.608 307.04 823.576 307.52C823.16 321.92 822.776 327.008 821.464 328.704C820.568 329.952 819.672 330.304 818.36 330.496C817.144 330.688 815.192 330.656 813.336 330.56C813.272 329.504 812.76 327.872 812.056 326.848C814.136 327.008 816.056 327.04 816.856 327.04C817.496 327.04 817.848 326.912 818.264 326.464C819.288 325.376 819.704 319.872 820.056 306.528V305.792ZM812.12 300.832L815.8 301.696C814.552 306.432 812.472 311.296 810.296 314.368C809.592 313.728 808.024 312.64 807.128 312.128C809.272 309.44 811.096 305.088 812.12 300.832ZM810.552 315.008L813.56 313.312C815.128 315.52 817.24 318.592 818.232 320.48L814.968 322.464C814.104 320.512 812.088 317.376 810.552 315.008ZM830.232 319.744H858.936V323.072H830.232V319.744ZM830.36 303.104H843.768V305.984H830.36V303.104ZM844.536 302.624H856.568V306.016H844.536V302.624ZM831.096 307.744H843.032V310.56H831.096V307.744ZM842.136 317.248H846.168C845.4 324.736 843.544 329.056 831.256 330.944C830.936 329.984 830.104 328.512 829.4 327.712C840.472 326.304 841.56 323.2 842.136 317.248ZM855 302.624H858.616C858.616 302.624 858.616 303.616 858.616 304.064C858.328 311.744 858.072 314.848 857.24 315.872C856.6 316.704 855.928 316.992 855 317.12C854.2 317.28 852.856 317.28 851.448 317.248C851.384 316.192 851 314.752 850.456 313.824C851.576 313.92 852.6 313.952 853.112 313.952C853.528 313.952 853.816 313.856 854.072 313.536C854.552 312.928 854.808 310.336 855 303.232V302.624ZM848.184 303.776H851.768C851.416 310.336 850.392 315.264 844.28 318.08C843.896 317.248 842.936 316 842.2 315.392C847.352 313.088 847.928 309.152 848.184 303.776ZM835.416 300.832H838.968V317.76H835.416V300.832ZM830.2 312.608C833.688 312.416 838.904 312.032 843.96 311.68V314.496C839.192 314.976 834.168 315.424 830.52 315.744L830.2 312.608ZM844.664 325.44L846.872 322.848C850.712 324.192 856.632 326.4 859.672 327.808L857.304 330.816C854.456 329.408 848.696 327.008 844.664 325.44ZM865.112 306.816H873.432V310.336H865.112V306.816ZM867.96 300.832H871.224V330.88H867.96V300.832ZM867.96 309.216L869.688 310.048C869.048 314.976 867.576 321.024 865.784 324.192C865.464 323.104 864.76 321.408 864.28 320.416C865.912 317.856 867.352 313.056 867.96 309.216ZM871.096 311.552C871.704 312.32 873.784 315.68 874.264 316.48L872.568 319.072C872.024 317.44 870.488 314.24 869.784 312.928L871.096 311.552ZM874.136 317.344H894.136V320.288H874.136V317.344ZM876.856 322.912L879.064 320.896C880.408 321.952 882.328 323.488 883.288 324.48L880.984 326.752C880.088 325.728 878.232 324.064 876.856 322.912ZM887.576 315.968L889.528 314.304C890.456 314.976 891.736 315.936 892.376 316.576L890.392 318.432C889.752 317.76 888.536 316.704 887.576 315.968ZM889.752 320.064L892.92 321.248C890.68 325.696 886.648 328.928 881.72 330.784C881.336 330.144 880.408 328.96 879.736 328.352C884.376 326.752 887.96 323.808 889.752 320.064ZM881.784 301.088H884.952C885.24 315.808 887.224 326.656 891.416 327.168C892.024 327.232 892.376 326.08 892.632 323.808C893.208 324.544 894.456 325.472 895.064 325.792C894.232 329.856 892.92 330.944 891.512 330.848C884.312 330.272 882.328 318.4 881.784 301.088ZM879.032 311.136L881.24 310.56C881.784 312.064 882.296 314.016 882.488 315.168L880.12 315.904C879.96 314.688 879.512 312.672 879.032 311.136ZM874.552 309.984C874.392 309.408 873.976 308.096 873.656 307.392C874.04 307.296 874.456 306.88 874.808 306.272C875.16 305.664 876.344 303.36 876.92 301.088L879.704 301.824C878.776 304.288 877.272 306.912 876.024 308.512V308.576C876.024 308.576 874.552 309.44 874.552 309.984ZM874.552 309.984L874.488 308.032L875.704 307.264L879.896 306.944C879.512 307.648 879.128 308.672 878.968 309.216C875.8 309.568 874.968 309.76 874.552 309.984ZM874.872 315.84C874.744 315.296 874.296 313.92 874.008 313.216C874.52 313.088 875.032 312.544 875.608 311.744C876.216 310.976 878.2 308 879.32 305.088L882.04 306.016C880.408 309.152 878.232 312.32 876.248 314.4V314.432C876.248 314.432 874.872 315.328 874.872 315.84ZM874.872 315.84L874.776 313.76L875.864 312.992L880.408 312.48C880.504 313.152 880.76 314.144 880.952 314.688C876.248 315.328 875.352 315.552 874.872 315.84ZM890.872 310.784L893.048 310.176C893.656 311.648 894.264 313.632 894.552 314.816L892.248 315.584C892.024 314.368 891.416 312.288 890.872 310.784ZM886.392 309.504C886.232 308.928 885.816 307.648 885.496 306.912C885.88 306.848 886.264 306.432 886.584 305.856C886.904 305.28 888.024 303.104 888.536 300.992L891.288 301.728C890.424 304.064 889.016 306.528 887.832 308.032V308.096C887.832 308.096 886.392 308.96 886.392 309.504ZM886.392 309.504L886.36 307.552L887.512 306.784L891.64 306.496C891.288 307.168 890.904 308.224 890.744 308.768C887.608 309.088 886.808 309.28 886.392 309.504ZM886.744 315.36C886.616 314.816 886.168 313.44 885.88 312.736C886.392 312.576 886.872 312.064 887.448 311.264C888.056 310.496 889.976 307.488 891.064 304.576L893.816 305.504C892.28 308.64 890.104 311.84 888.152 313.92V313.952C888.152 313.952 886.744 314.848 886.744 315.36ZM886.744 315.36L886.648 313.312L887.736 312.544L892.216 312C892.344 312.672 892.6 313.6 892.792 314.144C888.12 314.88 887.256 315.104 886.744 315.36ZM876.056 318.368H879.288V319.648C879.288 323.072 878.232 327.712 874.2 330.88C873.688 330.24 872.344 329.088 871.64 328.672C875.416 325.92 876.056 322.24 876.056 319.552V318.368ZM915.096 310.72C917.944 310.72 920.248 313.024 920.248 315.872C920.248 318.752 917.944 321.056 915.096 321.056C912.248 321.056 909.912 318.752 909.912 315.872C909.912 313.024 912.248 310.72 915.096 310.72ZM915.096 318.752C916.664 318.752 917.944 317.472 917.944 315.872C917.944 314.304 916.664 313.024 915.096 313.024C913.528 313.024 912.216 314.304 912.216 315.872C912.216 317.472 913.528 318.752 915.096 318.752Z" fill="black"/>
</svg>
