<svg width="39" height="38" viewBox="0 0 39 38" fill="none" xmlns="http://www.w3.org/2000/svg">
<path d="M6.06876 16.415V24.6225L4.41364 26.3984L4.07876 26.8711C3.23146 28.0671 1.48418 28.1442 0.534814 27.0275V27.0275C0.189567 26.6214 0 26.1057 0 25.5727V24.6412C0 23.8111 0.21616 22.9953 0.627201 22.2742L0.935529 21.7332C1.90637 20.03 3.21802 18.5452 4.78855 17.3716L6.06876 16.415Z" fill="#50589D"/>
<path d="M32.7516 16.415V24.6225L34.4067 26.3984L34.7416 26.8711C35.5889 28.0671 37.3361 28.1442 38.2855 27.0275V27.0275C38.6307 26.6214 38.8203 26.1057 38.8203 25.5727V24.6412C38.8203 23.8111 38.6042 22.9953 38.1931 22.2742L37.8848 21.7332C36.9139 20.03 35.6023 18.5452 34.0318 17.3716L32.7516 16.415Z" fill="#50589D"/>
<path d="M33.204 12.4815C34.0117 19.6892 33.204 46.9941 19.2444 34.6856C5.28485 46.9941 4.12023 19.6892 5.28485 12.4815C5.28485 5.58818 11.5348 0 19.2444 0C26.9541 0 33.204 5.58818 33.204 12.4815Z" fill="#50589D"/>
<path d="M29.9426 13.1033C29.9426 18.0603 25.1148 19.0069 19.1593 19.0069C13.2038 19.0069 8.37598 18.0603 8.37598 13.1033C8.37598 8.14635 13.2038 4.12793 19.1593 4.12793C25.1148 4.12793 29.9426 8.14635 29.9426 13.1033Z" fill="#F6E6D0"/>
<path d="M13.1331 8.82998C13.0723 9.04701 13.316 9.23088 13.5172 9.11975L15.8581 7.82638C16.0607 7.71441 16.0501 7.42725 15.8393 7.32207V7.32207C15.7435 7.27422 15.6294 7.27958 15.5408 7.33608L14.5196 7.98762L13.2532 8.68012C13.1941 8.71247 13.1509 8.76631 13.1331 8.82998V8.82998Z" fill="#343137"/>
<path d="M24.7849 8.82998C24.8457 9.04701 24.602 9.23088 24.4008 9.11975L22.0599 7.82638C21.8572 7.71441 21.8679 7.42725 22.0786 7.32207V7.32207C22.1745 7.27422 22.2886 7.27958 22.3771 7.33608L23.3984 7.98762L24.6647 8.68012C24.7239 8.71247 24.7671 8.76631 24.7849 8.82998V8.82998Z" fill="#343137"/>
<path d="M17.7747 15.6681C17.6095 15.5101 17.7214 15.2314 17.95 15.2314H20.662C20.8923 15.2314 21.0299 15.488 20.9024 15.6799V15.6799C20.8454 15.7656 20.747 15.8145 20.6442 15.8082L19.4135 15.7322L17.951 15.7385C17.8854 15.7388 17.8221 15.7135 17.7747 15.6681V15.6681Z" fill="#343137"/>
<ellipse cx="15.1834" cy="11.7022" rx="0.9705" ry="0.928738" fill="#343137"/>
<ellipse cx="22.948" cy="11.7022" rx="0.9705" ry="0.928738" fill="#343137"/>
</svg>
