<svg width="35" height="38" viewBox="0 0 35 38" fill="none" xmlns="http://www.w3.org/2000/svg">
<path d="M5.46918 16.415V24.6229L3.97759 26.3988L3.72095 26.8008C2.96691 27.9819 1.26849 28.0546 0.416303 26.9422V26.9422C0.146315 26.5898 0 26.1582 0 25.7143V24.6338C0 23.8065 0.197175 22.991 0.575183 22.2551L0.805368 21.807C1.70551 20.0545 2.95149 18.5027 4.46807 17.2451L5.46918 16.415Z" fill="#D8B246"/>
<path d="M29.5152 16.415V24.6229L31.0068 26.3988L31.2634 26.8008C32.0175 27.9819 33.7159 28.0546 34.5681 26.9422V26.9422C34.8381 26.5898 34.9844 26.1582 34.9844 25.7143V24.6338C34.9844 23.8065 34.7872 22.991 34.4092 22.2551L34.179 21.807C33.2789 20.0545 32.0329 18.5027 30.5163 17.2451L29.5152 16.415Z" fill="#D8B246"/>
<path d="M30.0584 12.4821C30.7862 19.6902 30.0584 46.9963 17.478 34.6872C4.89759 46.9963 3.84804 19.6902 4.89759 12.4821C4.89759 5.58844 10.53 0 17.478 0C24.426 0 30.0584 5.58844 30.0584 12.4821Z" fill="#D8B246"/>
<path d="M26.9848 13.1037C26.9848 18.061 22.6339 19.0076 17.2668 19.0076C11.8997 19.0076 7.54883 18.061 7.54883 13.1037C7.54883 8.14654 11.8997 4.12793 17.2668 4.12793C22.6339 4.12793 26.9848 8.14654 26.9848 13.1037Z" fill="#F6E6D0"/>
<ellipse cx="13.819" cy="10.588" rx="0.874617" ry="0.928781" fill="#343137"/>
<ellipse cx="20.816" cy="10.588" rx="0.874617" ry="0.928781" fill="#343137"/>
<path d="M16.093 13.7465C15.9606 13.6059 16.0603 13.375 16.2535 13.375H18.7313C18.9245 13.375 19.0242 13.6059 18.8918 13.7465V13.7465V13.7465C18.1029 14.4796 16.8819 14.4796 16.093 13.7465V13.7465V13.7465Z" fill="#343137"/>
</svg>
