<svg width="39" height="38" viewBox="0 0 39 38" fill="none" xmlns="http://www.w3.org/2000/svg">
<path d="M6.06914 16.415V24.6229L4.41392 26.3988L4.07901 26.8716C3.23165 28.0676 1.48428 28.1447 0.534858 27.028V27.028C0.189583 26.6218 0 26.1061 0 25.5731V24.6415C0 23.8114 0.216173 22.9956 0.627239 22.2745L0.935593 21.7335C1.90649 20.0301 3.21821 18.5453 4.78882 17.3717L6.06914 16.415Z" fill="#B04B32"/>
<path d="M32.7531 16.415V24.6229L34.4083 26.3988L34.7433 26.8716C35.5906 28.0676 37.338 28.1447 38.2874 27.028V27.028C38.6327 26.6218 38.8223 26.1061 38.8223 25.5731V24.6415C38.8223 23.8114 38.6061 22.9956 38.195 22.2745L37.8867 21.7335C36.9158 20.0301 35.6041 18.5453 34.0334 17.3717L32.7531 16.415Z" fill="#B04B32"/>
<path d="M33.3561 12.4821C34.1638 19.6902 33.3561 46.9963 19.3957 34.6872C5.43526 46.9963 4.27057 19.6902 5.43526 12.4821C5.43526 5.58844 11.6856 0 19.3957 0C27.1058 0 33.3561 5.58844 33.3561 12.4821Z" fill="#B04B32"/>
<path d="M29.944 13.1037C29.944 18.061 25.1158 19.0076 19.16 19.0076C13.2041 19.0076 8.37598 18.061 8.37598 13.1037C8.37598 8.14654 13.2041 4.12793 19.16 4.12793C25.1158 4.12793 29.944 8.14654 29.944 13.1037Z" fill="#F6E6D0"/>
<ellipse cx="15.3348" cy="10.588" rx="0.97056" ry="0.928781" fill="#343137"/>
<ellipse cx="23.0995" cy="10.588" rx="0.97056" ry="0.928781" fill="#343137"/>
<path d="M17.858 13.7465C17.7175 13.6121 17.8126 13.375 18.0071 13.375H20.8146C21.0091 13.375 21.1042 13.6121 20.9637 13.7465V13.7465V13.7465C20.0652 14.4989 18.7565 14.4989 17.858 13.7465V13.7465V13.7465Z" fill="#343137"/>
</svg>
