<svg width="175" height="178" viewBox="0 0 175 178" fill="none" xmlns="http://www.w3.org/2000/svg">
<path d="M27.3005 77.1641V115.746L19.8549 124.094L18.4469 126.17C14.6516 131.769 6.53203 132.123 2.26373 126.876C0.79944 125.076 0 122.827 0 120.507V115.818C0 111.921 0.97767 108.087 2.84346 104.666L4.12615 102.315C8.5484 94.2074 14.5853 87.0923 21.8643 81.4087L27.3005 77.1641Z" fill="#F3CA1E"/>
<path d="M147.332 77.1641V115.746L154.778 124.094L156.186 126.17C159.981 131.769 168.101 132.123 172.369 126.876C173.833 125.076 174.633 122.827 174.633 120.507V115.818C174.633 111.921 173.655 108.087 171.789 104.666L170.507 102.315C166.084 94.2074 160.047 87.0923 152.768 81.4087L147.332 77.1641Z" fill="#F3CA1E"/>
<path d="M150.131 58.6734C153.764 92.5553 150.131 220.91 87.3337 163.05C24.5362 220.91 19.2972 92.5553 24.5362 58.6734C24.5362 26.269 52.6516 0 87.3337 0C122.016 0 150.131 26.269 150.131 58.6734Z" fill="#F3CA1E"/>
<path d="M134.698 61.5959C134.698 84.8977 112.98 89.3476 86.1888 89.3476C59.3979 89.3476 37.6797 84.8977 37.6797 61.5959C37.6797 38.2941 59.3979 19.4043 86.1888 19.4043C112.98 19.4043 134.698 38.2941 134.698 61.5959Z" fill="#F6E6D0"/>
<circle cx="68.9801" cy="49.7701" r="4.36582" fill="#343137"/>
<circle cx="103.907" cy="49.7701" r="4.36582" fill="#343137"/>
<path d="M80.3313 64.6145C79.6868 63.9701 80.1433 62.8682 81.0546 62.8682H93.5786C94.4899 62.8682 94.9463 63.9701 94.3019 64.6145C90.3025 68.114 84.3307 68.114 80.3313 64.6145Z" fill="#343137"/>
</svg>
