<svg width="175" height="254" viewBox="0 0 175 254" fill="none" xmlns="http://www.w3.org/2000/svg">
<path d="M27.3005 153.164V191.746L19.8549 200.094L18.4469 202.17C14.6516 207.769 6.53203 208.123 2.26373 202.876V202.876C0.79944 201.076 0 198.827 0 196.507V191.818C0 187.921 0.97767 184.087 2.84346 180.666L4.12615 178.315C8.5484 170.207 14.5853 163.092 21.8643 157.409L27.3005 153.164Z" fill="#50589D"/>
<path d="M147.332 153.164V191.746L154.778 200.094L156.186 202.17C159.981 207.769 168.101 208.123 172.369 202.876V202.876C173.833 201.076 174.633 198.827 174.633 196.507V191.818C174.633 187.921 173.655 184.087 171.789 180.666L170.507 178.315C166.084 170.207 160.047 163.092 152.768 157.409L147.332 153.164Z" fill="#50589D"/>
<path d="M149.368 134.673C153.001 168.555 149.368 296.91 86.57 239.05C23.7725 296.91 18.5335 168.555 23.7725 134.673C23.7725 102.269 51.8879 76 86.57 76C121.252 76 149.368 102.269 149.368 134.673Z" fill="#50589D"/>
<path d="M134.698 137.596C134.698 160.898 112.98 165.348 86.1888 165.348C59.3979 165.348 37.6797 160.898 37.6797 137.596C37.6797 114.294 59.3979 95.4043 86.1888 95.4043C112.98 95.4043 134.698 114.294 134.698 137.596Z" fill="#F6E6D0"/>
<path d="M59.0766 117.522C58.8019 118.547 59.9041 119.393 60.8235 118.862L71.3183 112.803C72.2444 112.268 72.2155 110.922 71.2675 110.428V110.428C70.8289 110.199 70.3005 110.227 69.8889 110.502L65.3173 113.549L59.6365 116.796C59.3605 116.953 59.1589 117.215 59.0766 117.522V117.522Z" fill="#343137"/>
<path d="M111.498 117.522C111.772 118.547 110.67 119.393 109.751 118.862L99.2559 112.803C98.3299 112.268 98.3587 110.922 99.3067 110.428V110.428C99.7453 110.199 100.274 110.227 100.685 110.502L105.257 113.549L110.938 116.796C111.214 116.953 111.415 117.215 111.498 117.522V117.522Z" fill="#343137"/>
<path d="M79.9435 149.634C79.1928 148.883 79.7245 147.6 80.7861 147.6H92.9045C93.9737 147.6 94.6219 148.78 94.0481 149.682V149.682C93.7827 150.1 93.3109 150.339 92.8173 150.307L87.3343 149.954L80.7914 149.983C80.4735 149.984 80.1683 149.859 79.9435 149.634V149.634Z" fill="#343137"/>
<circle cx="68.3043" cy="131.009" r="4.36582" fill="#343137"/>
<circle cx="103.23" cy="131.009" r="4.36582" fill="#343137"/>
<path d="M60.228 10.032H66.85V11.446H60.228V10.032ZM59.948 3.424H66.948V4.866H59.948V3.424ZM62.58 2.584H64.414V12.482H62.58V2.584ZM59.836 12.216C61.6 12.118 64.302 11.936 66.836 11.74L66.85 13.266C64.456 13.504 61.908 13.742 60.06 13.896L59.836 12.216ZM61.88 8.016V8.436H65.1V8.016H61.88ZM61.88 6.448V6.868H65.1V6.448H61.88ZM60.284 5.216H66.766V9.668H60.284V5.216ZM65.982 1.072L66.836 2.57C64.974 2.948 62.454 3.144 60.354 3.172C60.298 2.766 60.102 2.136 59.92 1.744C62.02 1.646 64.386 1.408 65.982 1.072ZM67.004 4.138H71.736V6H67.004V4.138ZM70.91 4.138H72.856C72.856 4.138 72.842 4.768 72.842 5.006C72.73 10.676 72.632 12.776 72.184 13.434C71.834 13.966 71.484 14.134 70.994 14.246C70.546 14.344 69.902 14.344 69.23 14.33C69.188 13.77 68.964 12.944 68.642 12.398C69.202 12.454 69.678 12.454 69.958 12.454C70.168 12.454 70.294 12.398 70.434 12.202C70.728 11.796 70.826 9.836 70.91 4.558V4.138ZM68.152 1.296H70.098C70.084 7.512 70.07 11.88 66.906 14.456C66.626 13.966 65.982 13.252 65.52 12.916C68.334 10.69 68.138 7.064 68.152 1.296ZM74.228 10.032H80.85V11.446H74.228V10.032ZM73.948 3.424H80.948V4.866H73.948V3.424ZM76.58 2.584H78.414V12.482H76.58V2.584ZM73.836 12.216C75.6 12.118 78.302 11.936 80.836 11.74L80.85 13.266C78.456 13.504 75.908 13.742 74.06 13.896L73.836 12.216ZM75.88 8.016V8.436H79.1V8.016H75.88ZM75.88 6.448V6.868H79.1V6.448H75.88ZM74.284 5.216H80.766V9.668H74.284V5.216ZM79.982 1.072L80.836 2.57C78.974 2.948 76.454 3.144 74.354 3.172C74.298 2.766 74.102 2.136 73.92 1.744C76.02 1.646 78.386 1.408 79.982 1.072ZM81.004 4.138H85.736V6H81.004V4.138ZM84.91 4.138H86.856C86.856 4.138 86.842 4.768 86.842 5.006C86.73 10.676 86.632 12.776 86.184 13.434C85.834 13.966 85.484 14.134 84.994 14.246C84.546 14.344 83.902 14.344 83.23 14.33C83.188 13.77 82.964 12.944 82.642 12.398C83.202 12.454 83.678 12.454 83.958 12.454C84.168 12.454 84.294 12.398 84.434 12.202C84.728 11.796 84.826 9.836 84.91 4.558V4.138ZM82.152 1.296H84.098C84.084 7.512 84.07 11.88 80.906 14.456C80.626 13.966 79.982 13.252 79.52 12.916C82.334 10.69 82.138 7.064 82.152 1.296ZM98.336 0.974L99.806 2.668C96.726 3.41 92.75 3.732 89.306 3.844C89.25 3.326 88.998 2.5 88.802 2.052C92.204 1.926 95.942 1.562 98.336 0.974ZM88.998 4.964H100.156V6.91H88.998V4.964ZM88.018 8.212H101.01V10.2H88.018V8.212ZM93.464 3.228H95.592V12.02C95.592 13.154 95.326 13.672 94.57 13.98C93.814 14.288 92.736 14.344 91.336 14.33C91.21 13.756 90.818 12.846 90.51 12.314C91.476 12.356 92.68 12.356 93.016 12.356C93.338 12.356 93.464 12.258 93.464 11.978V3.228ZM107.296 10.97L106.778 9.626C107.968 9.304 108.626 8.646 108.626 7.974L108.612 6.49L109.396 7.848C109.158 8.044 108.85 8.156 108.514 8.156C107.744 8.156 107.016 7.638 107.016 6.756C107.016 5.902 107.716 5.356 108.57 5.356C109.676 5.356 110.264 6.168 110.264 7.456C110.264 9.08 109.186 10.452 107.296 10.97ZM11.34 34.616H23.772V37.864H21.798V36.24H13.216V37.864H11.34V34.616ZM15.358 29.128H17.108V32.67H17.92V29.128H19.754V34.14H15.358V29.128ZM11.228 30.472H23.842V32.026H11.228V30.472ZM12.964 29.17H14.798V31.102C14.798 32.418 14.266 33.79 12.488 34.616C12.25 34.224 11.718 33.636 11.326 33.314C12.74 32.824 12.964 31.858 12.964 31.088V29.17ZM16.422 36.45H18.438V42.316H16.422V36.45ZM12.698 37.08H21.21V38.662H14.672V41.49H12.698V37.08ZM20.44 37.08H22.442V39.754C22.442 40.594 22.26 41.084 21.658 41.35C21.042 41.616 20.286 41.63 19.334 41.63C19.25 41.098 18.97 40.356 18.718 39.88C19.236 39.908 19.992 39.908 20.174 39.908C20.37 39.908 20.44 39.866 20.44 39.712V37.08ZM20.3 29.114H22.106V32.208C22.106 32.614 22.134 32.782 22.358 32.782C22.498 32.782 22.862 32.782 23.03 32.782C23.268 32.782 23.66 32.74 23.87 32.67C23.898 33.132 23.94 33.776 24.01 34.196C23.772 34.28 23.394 34.308 23.058 34.308C22.834 34.308 22.4 34.308 22.176 34.308C20.622 34.308 20.3 33.664 20.3 32.18V29.114ZM32.858 29.114H34.664V38.886H32.858V29.114ZM28.252 34.448L36.428 31.214L37.198 32.978L29.036 36.24L28.252 34.448ZM29.918 30.696H31.836V39.418C31.836 40.286 31.934 40.398 32.83 40.398C33.236 40.398 34.944 40.398 35.364 40.398C36.162 40.398 36.316 40.076 36.442 38.522C36.89 38.83 37.688 39.152 38.22 39.264C37.968 41.462 37.394 42.204 35.546 42.204C35.028 42.204 33.138 42.204 32.662 42.204C30.52 42.204 29.918 41.616 29.918 39.418V30.696ZM27.692 29.086L29.61 29.688C28.714 32.082 27.244 34.686 25.718 36.31C25.536 35.806 24.99 34.672 24.654 34.168C25.858 32.95 27.02 31.018 27.692 29.086ZM26.32 33.104L28.252 31.172V31.186V42.316H26.32V33.104ZM35.91 31.62H35.756L36.4 31.2L37.926 31.676L37.856 31.984C37.772 33.972 37.562 36.604 37.212 38.382L35.546 37.92C35.77 36.38 35.882 33.664 35.91 31.62ZM40.138 30.808H50.988V32.852H40.138V30.808ZM39.06 34.476H51.982V36.534H39.06V34.476ZM44.408 29.016H46.578V35.568H44.408V29.016ZM46.676 37.542L48.566 36.716C49.77 38.13 51.016 39.992 51.632 41.294L49.616 42.316C49.098 41.014 47.824 38.998 46.676 37.542ZM40.404 42.05C40.292 41.644 39.956 40.608 39.718 40.048C40.11 39.95 40.39 39.684 40.81 39.236C41.244 38.816 42.56 37.108 43.302 35.442L45.612 36.1C44.478 37.976 42.91 39.81 41.58 41V41.056C41.58 41.056 40.404 41.7 40.404 42.05ZM40.404 42.05L40.348 40.37L41.636 39.656L49.182 39.25C49.266 39.838 49.462 40.692 49.588 41.14C42.35 41.7 41.244 41.742 40.404 42.05ZM54.768 29.058L56.588 29.576C55.93 31.956 54.824 34.644 53.55 36.324C53.424 35.82 52.962 34.616 52.668 34.084C53.564 32.824 54.32 30.934 54.768 29.058ZM53.97 33.384L55.706 31.648L55.734 31.662V42.316H53.97V33.384ZM61.572 29.17H63.224V40.132H61.572V29.17ZM59.668 31.83H66.164V33.272H59.668V31.83ZM59.934 37.514H65.674V39.068H59.934V37.514ZM60.186 35.596H65.366V37.094H60.186V35.596ZM56.406 29.842H58.562V31.55H56.406V29.842ZM57.358 36.338C58.198 39.74 60.102 40.328 62.552 40.342C63.21 40.342 65.366 40.342 66.178 40.314C65.926 40.72 65.674 41.532 65.576 42.036H62.454C59.234 42.036 57.078 41.154 55.958 36.772L57.358 36.338ZM60.2 30.01H65.408V35.162H60.2V33.79H63.91V31.382H60.2V30.01ZM57.372 33.944H58.618V35.47H56.896L57.372 33.944ZM58.31 33.944H58.632L58.94 33.916L59.976 34.126C59.654 38.354 58.632 40.986 56.84 42.316C56.56 41.966 55.888 41.336 55.51 41.112C57.218 39.95 58.086 37.78 58.31 34.252V33.944ZM56.602 35.974C56.462 35.638 56.056 34.924 55.818 34.588C56.112 34.49 56.546 34.056 56.812 33.608C57.05 33.174 57.82 31.536 58.226 29.968V29.898L58.87 29.646L59.99 30.402C59.402 32.124 58.562 33.86 57.848 35.05V35.078C57.848 35.078 56.602 35.638 56.602 35.974ZM70.098 33.972H77.98V35.358H70.098V33.972ZM70.63 32.124H78.946V37.234H70.448V35.904H77.028V33.454H70.63V32.124ZM73.57 31.578H75.642V40.496C75.642 41.434 75.432 41.84 74.802 42.106C74.158 42.358 73.332 42.372 72.142 42.372C72.058 41.882 71.792 41.182 71.54 40.734C72.142 40.776 73.01 40.776 73.234 40.762C73.486 40.762 73.57 40.678 73.57 40.468V31.578ZM69.958 37.962L71.008 36.842C71.61 37.164 72.534 37.668 73.01 37.99L71.904 39.222C71.484 38.886 70.588 38.34 69.958 37.962ZM78.134 36.982L79.632 38.186C78.722 38.732 77.742 39.278 76.986 39.6L75.852 38.592C76.566 38.2 77.56 37.5 78.134 36.982ZM69.426 39.838C70.518 39.488 72.24 38.83 73.864 38.214L74.2 39.586C72.814 40.258 71.358 40.944 70.154 41.49L69.426 39.838ZM68.922 30.038H79.954V31.802H68.922V30.038ZM67.97 30.038H69.902V34.07C69.902 36.422 69.678 40.034 68.362 42.246C68.012 41.91 67.158 41.336 66.71 41.14C67.886 39.138 67.97 36.17 67.97 34.07V30.038ZM72.87 29.352L74.928 28.876C75.25 29.422 75.6 30.164 75.782 30.654L73.668 31.256C73.528 30.752 73.164 29.94 72.87 29.352ZM77.952 33.804H80.108V35.512H77.952V33.804ZM74.494 39.432L75.376 38.214C76.79 38.774 78.974 39.712 80.066 40.314L79.128 41.714C78.106 41.098 75.978 40.09 74.494 39.432ZM82.6 31.312H86.926V40.902H82.6V39.124H85.092V33.076H82.6V31.312ZM81.424 31.312H83.258V41.896H81.424V31.312ZM82.544 34.966H85.96V36.716H82.544V34.966ZM83.328 29.03L85.554 29.338C85.218 30.332 84.854 31.34 84.574 32.012L82.95 31.662C83.118 30.906 83.286 29.828 83.328 29.03ZM88.69 31.172H92.666V33.02H88.69V31.172ZM91.966 31.172H93.842C93.842 31.172 93.842 31.816 93.828 32.054C93.66 38.284 93.52 40.552 92.932 41.322C92.498 41.938 92.064 42.106 91.448 42.218C90.888 42.316 90.02 42.302 89.18 42.274C89.152 41.728 88.872 40.86 88.508 40.3C89.404 40.384 90.244 40.384 90.622 40.384C90.902 40.384 91.056 40.328 91.238 40.132C91.686 39.656 91.84 37.206 91.966 31.55V31.172ZM88.592 29.072L90.552 29.534C89.978 31.592 89.026 33.762 88.074 35.106C87.71 34.77 86.87 34.182 86.408 33.916C87.332 32.768 88.144 30.878 88.592 29.072ZM87.878 35.442L89.474 34.546C90.104 35.498 91.014 36.828 91.434 37.654L89.712 38.704C89.348 37.85 88.508 36.478 87.878 35.442ZM100.184 30.416H107.814V32.11H100.184V30.416ZM99.932 36.73H107.884V38.424H99.932V36.73ZM101.976 32.558H105.7V34.014H101.976V32.558ZM101.024 29.03H102.858V34.476H104.888V29.03H106.82V36.086H101.024V29.03ZM103.026 35.778H105V42.33H103.026V35.778ZM94.99 36.842L96.04 35.54C97.328 36.884 99.26 38.746 100.114 39.894L98.952 41.434C98.126 40.216 96.292 38.27 94.99 36.842ZM94.99 36.842C95.48 34.868 95.956 31.676 96.068 29.142L97.79 29.212C97.608 31.9 97.076 35.204 96.572 37.402L94.99 36.842ZM98.014 31.004H99.666V32.698C99.666 35.358 99.316 39.376 95.984 42.176C95.718 41.798 95.116 41.196 94.724 40.93C97.734 38.508 98.014 34.98 98.014 32.684V31.004ZM94.808 31.97C96.208 31.914 98.238 31.816 100.156 31.704V33.44C98.364 33.58 96.446 33.692 94.99 33.79L94.808 31.97ZM101.514 38.578L102.942 39.082C102.508 40.174 101.766 41.406 101.01 42.092C100.716 41.672 100.114 41.042 99.708 40.72C100.408 40.216 101.136 39.362 101.514 38.578ZM105.14 39.194L106.596 38.592C107.142 39.432 107.87 40.566 108.206 41.28L106.652 41.966C106.358 41.252 105.686 40.076 105.14 39.194ZM114.8 35.022H122.052V36.436H114.8V35.022ZM114.66 40.706H122.164V42.148H114.66V40.706ZM116.578 29.044H118.132V31.004H116.578V29.044ZM118.496 29.044H120.064V31.004H118.496V29.044ZM116.438 32.922V33.37H120.302V32.922H116.438ZM116.438 31.298V31.732H120.302V31.298H116.438ZM114.968 30.01H121.842V34.658H114.968V30.01ZM117.012 37.962V38.438H119.672V37.962H117.012ZM115.262 36.772H121.548V39.614H115.262V36.772ZM119.28 39.404L121.086 39.894C120.652 40.51 120.246 41.126 119.952 41.518L118.664 41.07C118.888 40.58 119.154 39.894 119.28 39.404ZM115.808 39.852L117.32 39.39C117.544 39.866 117.782 40.496 117.908 40.902L116.326 41.434C116.242 41.014 116.004 40.342 115.808 39.852ZM116.956 30.752H118.146V34.154H116.956V30.752ZM118.594 30.752H119.784V34.154H118.594V30.752ZM110.39 35.204H113.428V36.492H110.39V35.204ZM112.574 35.204H114.226V40.678C114.226 41.364 114.128 41.77 113.694 42.022C113.274 42.26 112.742 42.288 112.042 42.288C111.986 41.854 111.776 41.21 111.58 40.804C111.902 40.818 112.28 40.818 112.406 40.818C112.532 40.818 112.574 40.776 112.574 40.65V35.204ZM109.466 29.436H114.268V34.112H112.63V30.85H111.02V34.112H109.466V29.436ZM108.948 33.496H114.842V35.792H113.344V34.826H110.376V35.792H108.948V33.496ZM111.356 31.228H113.736V32.32H112.336V33.916H111.356V31.228ZM109.634 35.204H111.258V37.892C111.258 39.278 111.132 41.182 110.348 42.372C110.054 42.092 109.312 41.602 108.934 41.42C109.592 40.398 109.634 38.97 109.634 37.864V35.204ZM110.936 39.11C111.566 38.886 112.406 38.494 113.302 38.088L113.582 39.04C112.854 39.516 112.182 39.978 111.51 40.412L110.936 39.11ZM110.88 37.5L111.678 36.688C112.112 36.968 112.616 37.318 112.882 37.57L112.056 38.508C111.804 38.242 111.286 37.794 110.88 37.5ZM122.878 29.758H126.728V31.536H122.878V29.758ZM122.962 33.846H126.63V35.596H122.962V33.846ZM122.682 39.026C123.718 38.844 125.202 38.508 126.63 38.172L126.854 39.908C125.566 40.244 124.18 40.58 123.018 40.86L122.682 39.026ZM123.942 30.92H125.692V39.264L123.942 39.656V30.92ZM127.232 33.076H135.912V34.658H127.232V33.076ZM129.752 36.366V36.842H133.28V36.366H129.752ZM127.96 34.994H135.198V38.2H127.96V34.994ZM133.126 30.794V31.438H133.77V30.794H133.126ZM131.222 30.794V31.438H131.838V30.794H131.222ZM129.318 30.794V31.438H129.934V30.794H129.318ZM127.694 29.464H135.478V32.768H127.694V29.464ZM132.692 37.612C133.238 39.068 134.4 40.16 136.22 40.622C135.814 40.986 135.282 41.686 135.044 42.162C132.972 41.462 131.796 39.992 131.082 37.934L132.692 37.612ZM134.638 38.116L135.94 39.306C135.086 39.698 134.246 40.076 133.588 40.3L132.664 39.362C133.252 39.068 134.148 38.508 134.638 38.116ZM130.62 37.346L131.978 37.92C130.942 39.026 129.22 40.02 127.582 40.51C127.33 40.104 126.812 39.474 126.448 39.138C128.016 38.802 129.724 38.116 130.62 37.346ZM128.548 42.316C128.464 41.952 128.156 41.294 127.932 41C128.212 40.86 128.548 40.566 128.548 39.978V38.928L130.144 38.55V41.028C130.144 41.028 128.548 41.826 128.548 42.316ZM128.548 42.316L128.422 41L129.094 40.51L131.908 40.034C131.852 40.482 131.838 41.14 131.866 41.504C129.36 42.008 128.842 42.148 128.548 42.316ZM142.03 29.772H149.352V31.396H142.03V29.772ZM141.624 32.334H149.702V34H141.624V32.334ZM142.968 31.648L144.592 31.326C144.76 31.662 144.928 32.152 144.998 32.474L143.304 32.866C143.262 32.544 143.122 32.026 142.968 31.648ZM146.748 31.326L148.582 31.62C148.302 32.138 148.078 32.572 147.896 32.894L146.342 32.586C146.482 32.194 146.664 31.69 146.748 31.326ZM143.976 37.08V37.472H147.112V37.08H143.976ZM143.976 35.54V35.932H147.112V35.54H143.976ZM142.128 34.308H149.058V38.704H142.128V34.308ZM143.164 38.242H145.068C144.872 40.272 144.326 41.63 141.4 42.372C141.232 41.91 140.756 41.168 140.378 40.818C142.744 40.356 143.024 39.558 143.164 38.242ZM145.88 38.27H147.756V40.23C147.756 40.37 147.756 40.468 147.784 40.51C147.812 40.566 147.868 40.58 147.938 40.58C148.008 40.58 148.106 40.58 148.176 40.58C148.246 40.58 148.302 40.58 148.344 40.552C148.4 40.524 148.442 40.454 148.47 40.286C148.498 40.132 148.512 39.768 148.526 39.306C148.862 39.614 149.576 39.964 150.066 40.132C150.024 40.65 149.954 41.182 149.828 41.434C149.688 41.7 149.492 41.882 149.198 41.994C148.974 42.092 148.582 42.134 148.33 42.134C148.05 42.134 147.7 42.134 147.448 42.134C147.056 42.134 146.566 42.008 146.3 41.742C146.02 41.476 145.88 41.126 145.88 40.216V38.27ZM144.508 29.268L146.426 28.904C146.608 29.324 146.804 29.898 146.902 30.262L144.914 30.71C144.858 30.332 144.662 29.716 144.508 29.268ZM136.976 32.334H141.33V34.252H136.976V32.334ZM138.25 29.24H140.224V38.634H138.25V29.24ZM136.724 38.718C137.9 38.382 139.72 37.752 141.414 37.15L141.82 38.998C140.336 39.628 138.698 40.286 137.382 40.804L136.724 38.718ZM156.632 37.276L156.212 32.852L156.128 30.528H158.872L158.788 32.852L158.368 37.276H156.632ZM157.5 41.168C156.66 41.168 156.072 40.566 156.072 39.74C156.072 38.914 156.674 38.34 157.5 38.34C158.326 38.34 158.928 38.914 158.928 39.74C158.928 40.566 158.326 41.168 157.5 41.168Z" fill="#F3CA1E"/>
</svg>
