<svg width="202" height="204" viewBox="0 0 202 204" fill="none" xmlns="http://www.w3.org/2000/svg">
<path d="M31.2661 124.992V80.8061L22.739 71.2454L21.1266 68.867C16.7799 62.4557 7.48088 62.0502 2.59256 68.0587C0.915566 70.12 0 72.6962 0 75.3535V80.7239C0 85.1862 1.11969 89.5772 3.2565 93.4947L4.72552 96.1879C9.79015 105.473 16.704 113.622 25.0404 120.131L31.2661 124.992Z" fill="#F3CA1E"/>
<path d="M169.999 130.992V86.8061L178.527 77.2454L180.139 74.867C184.486 68.4557 193.785 68.0502 198.673 74.0587C200.35 76.12 201.266 78.6962 201.266 81.3535V86.7239C201.266 91.1862 200.146 95.5772 198.009 99.4947L196.54 102.188C191.475 111.473 184.562 119.622 176.225 126.131L169.999 130.992Z" fill="#F3CA1E"/>
<path d="M175.841 67.1963C180.002 106 175.841 253 103.921 186.735C32.0015 253 26.0015 106 32.0015 67.1963C32.0015 30.0848 64.201 0 103.921 0C143.641 0 175.841 30.0848 175.841 67.1963Z" fill="#F3CA1E"/>
<path d="M158.267 70.5431C158.267 97.2297 133.394 102.326 102.712 102.326C72.0293 102.326 47.1562 97.2297 47.1562 70.5431C47.1562 43.8564 72.0293 22.2227 102.712 22.2227C133.394 22.2227 158.267 43.8564 158.267 70.5431Z" fill="#F6E6D0"/>
<ellipse cx="123" cy="57" rx="5" ry="5" fill="#343137"/>
<path d="M96 74C95.262 73.262 95.7847 72 96.8284 72H111.172C112.215 72 112.738 73.262 112 74C107.42 78.0078 100.58 78.0078 96 74Z" fill="#343137"/>
<rect x="76" y="54" width="18.0633" height="4.51582" fill="black"/>
</svg>
