<svg width="140" height="209" viewBox="0 0 140 209" fill="none" xmlns="http://www.w3.org/2000/svg">
<path d="M138.514 78.3269C142.472 115.242 138.514 255.089 70.0937 192.049C1.67372 255.089 -4.03439 115.242 1.67371 78.3269C1.67371 43.0213 32.3064 14.4004 70.0937 14.4004C107.881 14.4004 138.514 43.0213 138.514 78.3269Z" fill="#F3CA1E"/>
<path d="M121.79 81.5101C121.79 106.898 98.1277 111.746 68.9382 111.746C39.7487 111.746 16.0859 106.898 16.0859 81.5101C16.0859 56.1221 39.7487 35.541 68.9382 35.541C98.1277 35.541 121.79 56.1221 121.79 81.5101Z" fill="#F6E6D0"/>
<ellipse cx="45.8267" cy="65.5473" rx="6.9673" ry="6.96727" fill="#343137"/>
<ellipse cx="45.8246" cy="65.5452" rx="4.64486" ry="4.64484" fill="#F5F5F5"/>
<ellipse cx="93.2486" cy="65.5473" rx="6.9673" ry="6.96727" fill="#343137"/>
<ellipse cx="93.2464" cy="65.5452" rx="4.64486" ry="4.64484" fill="#F5F5F5"/>
<path d="M32.9037 147.911L21.9718 107.322L27.4396 96.4294L28.3324 93.8457C30.739 86.8808 39.1808 84.2076 45.1578 88.5178C47.2083 89.9964 48.6867 92.1364 49.3442 94.5774L50.6728 99.5106C51.7768 103.61 51.8346 107.92 50.8409 112.048L50.1578 114.885C47.8026 124.668 43.4675 133.863 37.4201 141.905L32.9037 147.911Z" fill="#F3CA1E"/>
<path d="M111.76 147.911L122.692 107.322L117.225 96.4294L116.332 93.8457C113.925 86.8808 105.483 84.2076 99.5062 88.5178C97.4557 89.9964 95.9773 92.1364 95.3199 94.5774L93.9913 99.5106C92.8872 103.61 92.8294 107.92 93.8231 112.048L94.5063 114.885C96.8615 124.668 101.197 133.863 107.244 141.905L111.76 147.911Z" fill="#F3CA1E"/>
<ellipse cx="69.8344" cy="88.8004" rx="15.6" ry="14.4" fill="#B52D2A"/>
<line x1="103.434" y1="14.4004" x2="103.434" y2="64.8003" stroke="black" stroke-width="2.4"/>
<line x1="113.036" x2="113.036" y2="79.1999" stroke="black" stroke-width="2.4"/>
<line x1="122.637" y1="14.4004" x2="122.637" y2="64.8003" stroke="black" stroke-width="2.4"/>
</svg>
