<svg width="130" height="124" viewBox="0 0 130 124" fill="none" xmlns="http://www.w3.org/2000/svg">
<path d="M50.2328 12.8413C58.3834 12.6066 62.0018 5.38728 62.3133 3.17321C62.3257 2.75943 62.3281 2.62147 62.3349 2.85656C62.3375 2.94579 62.3303 3.052 62.3133 3.17321C62.2351 5.78565 61.7611 19.3926 57.3083 19.5208C52.1502 19.6694 46.637 13.4611 50.2328 12.8413Z" fill="#484848"/>
<path d="M91.7784 61.5234V85.5577L96.4166 90.7581L97.2937 92.0518C99.658 95.5392 104.716 95.7598 107.375 92.4915C108.287 91.3703 108.785 89.969 108.785 88.5236V85.6025C108.785 83.1753 108.176 80.7868 107.014 78.656L106.215 77.1911C103.46 72.1405 99.6993 67.7082 95.1649 64.1676L91.7784 61.5234Z" fill="#484848"/>
<path d="M17.0067 61.5234V85.5577L12.3685 90.7581L11.4915 92.0518C9.12716 95.5392 4.0691 95.7598 1.41018 92.4915C0.498007 91.3703 0 89.969 0 88.5236V85.6025C0 83.1753 0.609036 80.7868 1.77132 78.656L2.57037 77.1911C5.3252 72.1405 9.08588 67.7082 13.6203 64.1676L17.0067 61.5234Z" fill="#484848"/>
<path d="M15.8335 48.9779C13.5812 70.1195 15.8335 150.21 54.7629 114.107C93.6922 150.21 96.94 70.1195 93.6922 48.9779C93.6922 28.7584 76.263 12.3672 54.7629 12.3672C33.2628 12.3672 15.8335 28.7584 15.8335 48.9779Z" fill="#484848"/>
<path d="M15.0588 50.0095C15.0588 64.5253 13.1229 65.6579 24.1982 67.3606C40.8875 67.3606 54.3984 65.6763 54.3984 51.1606C54.3984 36.6448 49.2593 25.4882 25.0608 25.4883C25.0608 25.4883 15.0588 35.4937 15.0588 50.0095Z" fill="#F6E6D0"/>
<ellipse cx="2.71967" cy="2.71967" rx="2.71967" ry="2.71967" transform="matrix(-1 0 0 1 31.0898 41.6191)" fill="#343137"/>
<path d="M27.8262 53.5859C28.2276 53.1845 27.9433 52.498 27.3756 52.498H19.5739C19.0061 52.498 18.7218 53.1845 19.1233 53.5859C21.6147 55.7659 25.3348 55.7659 27.8262 53.5859Z" fill="#343137"/>
<path d="M59.833 16.0048C67.987 16.0249 71.8292 8.92215 72.2097 6.7189C72.235 6.30571 72.2418 6.16789 72.2412 6.40308C72.241 6.49235 72.2305 6.59828 72.2097 6.7189C72.0499 9.32762 71.1509 22.9131 66.6963 22.9021C61.5361 22.8895 56.2196 16.5119 59.833 16.0048Z" fill="#484848"/>
</svg>
