<svg width="252" height="273" viewBox="0 0 252 273" fill="none" xmlns="http://www.w3.org/2000/svg">
<path d="M89.8753 28.6827C72.4378 28.1869 64.6965 12.9378 64.0302 8.26118C64.0037 7.3872 63.9984 7.09579 63.984 7.59236C63.9785 7.78085 63.9937 8.00517 64.0302 8.26118C64.1976 13.7793 65.2116 42.5206 74.738 42.7915C85.7732 43.1053 97.5681 29.9918 89.8753 28.6827Z" fill="#484848"/>
<path d="M162.73 26.9125C180.175 26.9549 188.395 11.9521 189.209 7.29829C189.263 6.42555 189.278 6.13444 189.277 6.63121C189.276 6.81978 189.254 7.04353 189.209 7.29829C188.867 12.8085 186.944 41.5046 177.414 41.4814C166.374 41.4546 155 27.9836 162.73 26.9125Z" fill="#484848"/>
<path d="M39.7753 190.312V134.808L29.0639 122.798L27.0383 119.811C21.5782 111.757 9.8972 111.247 3.75668 118.795V118.795C1.6501 121.384 0.5 124.621 0.5 127.959V134.705C0.5 140.31 1.90651 145.826 4.59068 150.747L6.43602 154.13C12.798 165.793 21.4829 176.029 31.9547 184.206L39.7753 190.312Z" fill="#484848"/>
<path d="M212.451 128.145V183.649L223.163 195.659L225.188 198.647C230.648 206.7 242.329 207.21 248.47 199.662V199.662C250.576 197.073 251.727 193.836 251.727 190.498V183.753C251.727 178.147 250.32 172.631 247.636 167.71L245.791 164.327C239.429 152.664 230.744 142.428 220.272 134.251L212.451 128.145Z" fill="#484848"/>
<path d="M216.364 101.542C221.591 150.285 216.364 334.94 126.021 251.701C35.6787 334.94 28.1417 150.285 35.6787 101.542C35.6787 54.9241 76.1264 17.1328 126.021 17.1328C175.916 17.1328 216.364 54.9241 216.364 101.542Z" fill="#484848"/>
<path d="M194.691 105.698C194.691 139.221 163.446 145.622 124.904 145.622C86.3618 145.622 55.1172 139.221 55.1172 105.698C55.1172 72.1754 86.3618 45 124.904 45C163.446 45 194.691 72.1754 194.691 105.698Z" fill="#F6E6D0"/>
<ellipse cx="99.7339" cy="88.7359" rx="6.2808" ry="6.28078" fill="#343137"/>
<ellipse cx="149.984" cy="88.7359" rx="6.2808" ry="6.28078" fill="#343137"/>
<path d="M116.067 110.092C115.14 109.165 115.797 107.58 117.108 107.58H135.125C136.436 107.58 137.093 109.165 136.166 110.092V110.092V110.092C130.412 115.127 121.821 115.127 116.067 110.092V110.092V110.092Z" fill="#343137"/>
</svg>
