<svg width="58" height="58" viewBox="0 0 58 58" fill="none" xmlns="http://www.w3.org/2000/svg">
<circle cx="28.5366" cy="28.5366" r="28.5366" fill="#50589D"/>
<path d="M23.5528 19.1683C24.4089 18.3121 24.4089 16.924 23.5528 16.0679C22.6966 15.2118 21.3086 15.2118 20.4524 16.0679L16.0679 20.4524C15.2118 21.3086 15.2118 22.6966 16.0679 23.5528L20.4524 27.9374C21.3086 28.7935 22.6966 28.7935 23.5528 27.9374C24.4089 27.0813 24.4089 25.6931 23.5528 24.837L22.9107 24.1949H30.7718C34.4042 24.1949 37.3487 27.1394 37.3487 30.7718C37.3487 34.4041 34.4042 37.3486 30.7718 37.3486H19.8104C18.5996 37.3486 17.6181 38.3301 17.6181 39.5409C17.6181 40.7517 18.5996 41.7332 19.8104 41.7332H30.7718C36.8256 41.7332 41.7332 36.8256 41.7332 30.7718C41.7332 24.7181 36.8256 19.8104 30.7718 19.8104H22.9107L23.5528 19.1683Z" fill="white"/>
</svg>
