<svg width="251" height="254" viewBox="0 0 251 254" fill="none" xmlns="http://www.w3.org/2000/svg">
<path d="M38.9923 155.879V100.774L28.358 88.8507L26.3471 85.8846C20.9264 77.889 9.32946 77.3832 3.23319 84.8766V84.8766C1.14181 87.4472 0 90.66 0 93.9739V100.671C0 106.236 1.39637 111.713 4.06121 116.598L5.89323 119.957C12.2094 131.536 20.8317 141.699 31.2281 149.816L38.9923 155.879Z" fill="#F3CA1E"/>
<path d="M212.008 163.361V108.256L222.642 96.3331L224.653 93.367C230.074 85.3714 241.671 84.8656 247.767 92.359V92.359C249.858 94.9297 251 98.1424 251 101.456V108.154C251 113.719 249.604 119.195 246.939 124.081L245.107 127.439C238.791 139.019 230.168 149.181 219.772 157.299L212.008 163.361Z" fill="#F3CA1E"/>
<path d="M219.296 83.8013C224.485 132.194 219.296 315.519 129.604 232.879C39.9128 315.519 32.4301 132.194 39.9128 83.8013C39.9128 37.5191 80.069 0 129.604 0C179.139 0 219.296 37.5191 219.296 83.8013Z" fill="#F3CA1E"/>
<path d="M197.38 87.9748C197.38 121.256 166.361 127.612 128.096 127.612C89.8319 127.612 58.8125 121.256 58.8125 87.9748C58.8125 54.6936 89.8319 27.7139 128.096 27.7139C166.361 27.7139 197.38 54.6936 197.38 87.9748Z" fill="#F6E6D0"/>
<ellipse cx="153.392" cy="71.0852" rx="6.23554" ry="6.23556" fill="#343137"/>
<path d="M119.721 92.2862C118.8 91.3658 119.452 89.792 120.754 89.792H138.641C139.943 89.792 140.595 91.3658 139.675 92.2862V92.2862V92.2862C133.962 97.2844 125.433 97.2844 119.721 92.2862V92.2862V92.2862Z" fill="#343137"/>
<rect x="94.7812" y="67.3438" width="22.5269" height="5.63173" fill="black"/>
</svg>
