<svg width="238" height="117" viewBox="0 0 238 117" fill="none" xmlns="http://www.w3.org/2000/svg">
<path d="M148.264 53.0199C146.553 69.0832 148.264 129.936 177.843 102.504C207.421 129.936 209.889 69.0832 207.421 53.0199C207.421 37.6571 194.178 25.2031 177.843 25.2031C161.507 25.2031 148.264 37.6571 148.264 53.0199Z" fill="#484848"/>
<path d="M146.867 52.4788C146.867 63.5079 145.61 62.3976 153.663 66.9864C166.344 66.9864 176.609 65.7067 176.609 54.6777C176.609 43.6486 167.796 35.1211 155.115 35.1211C155.115 35.1211 146.867 41.4498 146.867 52.4788Z" fill="#F6E6D0"/>
<ellipse cx="2.06639" cy="2.0664" rx="2.06639" ry="2.0664" transform="matrix(-1 0 0 1 156.133 47.4297)" fill="#343137"/>
<path d="M153.2 56.2222C153.327 56.187 153.301 56 153.17 56H146.83C146.699 56 146.673 56.187 146.8 56.2222C148.903 56.7333 151.097 56.7333 153.2 56.2222Z" fill="#343137"/>
<path d="M168.071 77.056L151.81 68.7467L146.688 70.0869L145.509 70.233C142.333 70.627 140.435 73.9729 141.727 76.9018C142.17 77.9066 142.946 78.728 143.924 79.2278L145.9 80.2377C147.542 81.0768 149.369 81.4905 151.212 81.4408L152.48 81.4067C156.849 81.2889 161.148 80.2769 165.111 78.4331L168.071 77.056Z" fill="#484848"/>
<path d="M139.327 103.241L136.98 92.5391L134.406 90.6764L133.89 90.186C132.496 88.864 130.222 89.2597 129.357 90.9747C129.061 91.5631 128.976 92.2357 129.117 92.8793L129.402 94.1801C129.639 95.2609 130.144 96.265 130.869 97.1003L131.368 97.6746C133.088 99.6545 135.196 101.261 137.561 102.395L139.327 103.241Z" fill="#D2AF1D"/>
<path d="M134.681 82.772C133.654 92.41 134.681 128.921 152.428 112.463C170.175 128.921 171.656 92.41 170.175 82.772C170.175 73.5544 162.23 66.082 152.428 66.082C142.627 66.082 134.681 73.5544 134.681 82.772Z" fill="#6E9DD1"/>
<path d="M134.416 82.4498C134.416 89.0672 133.662 88.401 138.494 91.1543C146.102 91.1543 152.262 90.3865 152.262 83.7691C152.262 77.1517 146.974 72.0352 139.365 72.0352C139.365 72.0352 134.416 75.8324 134.416 82.4498Z" fill="#F6E6D0"/>
<ellipse cx="1.23984" cy="1.23984" rx="1.23984" ry="1.23984" transform="matrix(-1 0 0 1 139.633 79.418)" fill="#343137"/>
<path d="M138.5 84.2222C138.615 84.1713 138.578 84 138.453 84H134.547C134.422 84 134.385 84.1713 134.5 84.2222C135.786 84.7225 137.214 84.7225 138.5 84.2222Z" fill="#343137"/>
<path d="M138.178 104.394L135.831 93.6915L133.258 91.8287L132.741 91.3383C131.348 90.0163 129.074 90.4121 128.209 92.1271C127.912 92.7154 127.827 93.3881 127.969 94.0317L128.254 95.3324C128.491 96.4133 128.995 97.4173 129.721 98.2527L130.22 98.827C131.94 100.807 134.047 102.413 136.412 103.547L138.178 104.394Z" fill="#6E9DD1"/>
<path d="M133.423 80.0009C133.423 80.0009 126.224 75.4409 131.984 61.5209C138.463 52.1609 142.783 54.8009 142.783 43.0409C142.783 39.7766 138.463 32.9609 138.463 32.9609" stroke="#8A8A8A" stroke-width="0.479999"/>
<ellipse cx="16.6318" cy="19.224" rx="16.6318" ry="19.224" transform="matrix(0.980733 -0.195354 0.195349 0.980734 115 6.5)" fill="#B04B32"/>
<path d="M141.309 41.2616V40.0616L143.709 39.1016V41.2616H141.309Z" fill="#B04B32" stroke="#B04B32" stroke-width="0.479999"/>
<path d="M193.438 85.5371L179.326 73.9484L174.036 74.1645L172.853 74.0557C169.665 73.7625 167.097 76.6262 167.734 79.7634C167.952 80.8397 168.535 81.8078 169.384 82.5047L171.099 83.9132C172.524 85.0835 174.221 85.8775 176.032 86.2225L177.278 86.4596C181.572 87.2772 185.988 87.2061 190.253 86.2507L193.438 85.5371Z" fill="#636998"/>
<path d="M177.546 60.2191C175.834 76.2824 177.546 137.135 207.124 109.704C236.702 137.135 239.17 76.2824 236.702 60.2191C236.702 44.8563 223.46 32.4023 207.124 32.4023C190.788 32.4023 177.546 44.8563 177.546 60.2191Z" fill="#50589D"/>
<path d="M176.625 59.6781C176.625 70.7071 175.368 69.5968 183.421 74.1856C196.102 74.1856 206.367 72.9059 206.367 61.8769C206.367 50.8478 197.554 42.3203 184.873 42.3203C184.873 42.3203 176.625 48.649 176.625 59.6781Z" fill="#F6E6D0"/>
<path d="M181.5 63.6667C181.706 63.392 181.51 63 181.167 63H177.833C177.49 63 177.294 63.392 177.5 63.6667C178.551 64.8932 180.449 64.8932 181.5 63.6667Z" fill="#343137"/>
<path d="M180.004 47.5237C180.004 46.5637 184.324 42.4036 186.244 40.8036C187.444 40.0838 204.198 44.644 209.284 44.6434C212.164 44.6431 213.364 44.4034 219.604 43.6834C224.596 43.1074 226.964 42.4034 228.964 41.7634L232.564 46.0834L234.964 50.4037C233.524 51.4437 229.3 53.7637 223.924 54.7237C218.548 55.6837 198.644 52.2437 189.364 50.4037C186.244 49.8437 180.004 48.4837 180.004 47.5237Z" fill="white" stroke="white" stroke-width="0.479999"/>
<path d="M190.805 43.4453V48.0053L194.885 44.8853V49.4453L199.445 45.8453" stroke="#B04B32" stroke-width="0.959998"/>
<path d="M204.004 47.043H206.404M208.804 47.043H206.404M206.404 47.043V51.123H204.004H209.764" stroke="#B04B32" stroke-width="0.959998"/>
<path d="M214.324 51.6056L217.204 47.7656L220.324 52.5656C220.964 51.4456 222.772 48.9176 224.884 47.7656" stroke="#B04B32" stroke-width="0.959998"/>
<path d="M197.352 84.2553L181.091 75.9459L175.969 77.2861L174.791 77.4323C171.614 77.8262 169.716 81.1721 171.008 84.1011C171.451 85.1059 172.227 85.9273 173.205 86.427L175.181 87.4369C176.823 88.2761 178.65 88.6897 180.494 88.6401L181.761 88.6059C186.13 88.4881 190.429 87.4761 194.393 85.6323L197.352 84.2553Z" fill="#50589D"/>
<rect width="0.818053" height="4.16398" rx="0.409026" transform="matrix(0.554315 0.832307 -0.832305 0.554318 183.398 56.1133)" fill="black"/>
<path d="M44.4988 105.855C69.0749 105.855 88.9977 102.145 88.9977 97.568C88.9977 92.9914 69.0749 89.2812 44.4988 89.2812C19.9228 89.2812 0 92.9914 0 97.568C0 102.145 19.9228 105.855 44.4988 105.855Z" fill="#F4E09C"/>
<path d="M44.4988 89.9035C70.3808 89.9035 88.4301 93.9334 88.4301 97.6227C88.4301 99.0417 85.1381 101.199 75.8864 102.901C67.5429 104.434 56.3614 105.285 44.5556 105.285C18.6736 105.285 0.624341 101.255 0.624341 97.5659C0.624341 96.147 3.91635 93.9901 13.168 92.2874C21.5116 90.7549 32.6363 89.9035 44.4988 89.9035ZM44.4988 89.3359C19.9223 89.3359 0 93.0253 0 97.6227C0 102.22 19.9223 105.909 44.4988 105.909C69.0754 105.909 88.9977 102.22 88.9977 97.6227C88.9977 93.0253 69.0754 89.3359 44.4988 89.3359Z" fill="#E2C675"/>
<path d="M88.9977 97.5664C88.9977 102.107 69.0754 105.853 44.4988 105.853C19.9223 105.853 0 102.164 0 97.5664V105.853C0 110.394 19.9223 114.14 44.4988 114.14C69.0754 114.14 88.9977 110.451 88.9977 105.853V97.5664Z" fill="#E2C675"/>
<path d="M9.70574 110.961C10.5004 111.132 11.3517 111.359 12.2599 111.529V103.242C11.3517 103.072 10.5004 102.902 9.70574 102.675V110.961ZM0 97.5664V105.853C0 107.499 2.55414 108.975 6.92456 110.28V101.994C2.55414 100.745 0 99.2124 0 97.5664ZM13.8491 103.583V111.87C15.0978 112.097 16.4033 112.324 17.7655 112.494V104.207C16.4033 103.98 15.0978 103.753 13.8491 103.583Z" fill="#E2C675"/>
<path d="M79.2941 102.731C78.4995 102.902 77.6481 103.129 76.74 103.299V111.586C77.6481 111.416 78.4995 111.245 79.2941 111.018V102.731ZM82.0185 101.994V110.28C86.389 108.975 88.9431 107.499 88.9431 105.853V97.5664C88.9998 99.2124 86.4457 100.745 82.0185 101.994ZM71.2344 104.15V112.437C72.5966 112.267 73.902 112.04 75.1507 111.813V103.526C73.902 103.753 72.5966 103.98 71.2344 104.15Z" fill="#E2C675"/>
<path d="M44.5044 93.9183C64.8486 93.9183 81.3408 90.4082 81.3408 86.0783C81.3408 81.7484 64.8486 78.2383 44.5044 78.2383C24.1602 78.2383 7.66797 81.7484 7.66797 86.0783C7.66797 90.4082 24.1602 93.9183 44.5044 93.9183Z" fill="#F4E09C"/>
<path d="M44.5044 78.8916C67.8322 78.8916 80.7732 83.1383 80.7732 86.0783C80.7732 89.0183 67.889 93.265 44.5044 93.265C21.1198 93.265 8.23556 89.0183 8.23556 86.0783C8.23556 83.1383 21.1765 78.8916 44.5044 78.8916ZM44.5044 78.2383C24.1848 78.2383 7.66797 81.7663 7.66797 86.0783C7.66797 90.3903 24.128 93.9183 44.5044 93.9183C64.824 93.9183 81.3408 90.3903 81.3408 86.0783C81.3408 81.7663 64.824 78.2383 44.5044 78.2383Z" fill="#E2C675"/>
<path d="M81.3408 86.0781C81.3408 90.4555 64.8807 93.9181 44.5044 93.9181C24.1848 93.9181 7.66797 90.3901 7.66797 86.0781V93.9181C7.66797 98.2955 24.128 101.758 44.5044 101.758C64.824 101.758 81.3408 98.2301 81.3408 93.9181V86.0781Z" fill="#E2C675"/>
<path d="M15.7277 98.8835C16.4088 99.0795 17.0899 99.2101 17.8278 99.4061V91.5661C17.0899 91.3701 16.4088 91.2395 15.7277 91.0435V98.8835ZM7.66797 86.0781V93.9181C7.66797 95.4861 9.76804 96.9235 13.4006 98.1648V90.3248C9.82479 89.0835 7.66797 87.6461 7.66797 86.0781ZM19.1332 91.8275V99.6675C20.1549 99.8635 21.2333 100.059 22.3685 100.255V92.4155C21.2333 92.2195 20.1549 92.0235 19.1332 91.8275Z" fill="#E2C675"/>
<path d="M67.019 61.931L70.9311 44.0938L75.2198 40.9892L76.0813 40.1719C78.4036 37.9686 82.1934 38.6282 83.6347 41.4865C84.1292 42.4671 84.2707 43.5881 84.0354 44.6608L83.56 46.8288C83.1649 48.6301 82.3241 50.3036 81.1147 51.6959L80.2832 52.653C77.4166 55.9529 73.9042 58.6302 69.9626 60.5198L67.019 61.931Z" fill="#D2AF1D"/>
<path d="M74.7669 27.8168C76.4782 43.88 74.7669 104.733 45.1886 77.3013C15.6103 104.733 13.1426 43.88 15.6103 27.8168C15.6103 12.454 28.8529 0 45.1886 0C61.5243 0 74.7669 12.454 74.7669 27.8168Z" fill="#F3CA1E"/>
<path d="M75.207 27.2757C75.207 38.3048 76.4642 37.1944 68.4108 41.7832C55.7304 41.7832 45.4648 40.5036 45.4648 29.4745C45.4648 18.4455 54.2784 9.91797 66.9588 9.91797C66.9588 9.91797 75.207 16.2467 75.207 27.2757Z" fill="#F6E6D0"/>
<ellipse cx="67.2422" cy="24.293" rx="2.06639" ry="2.0664" fill="#343137"/>
<path d="M67.6547 30.3187C67.3497 30.0137 67.5657 29.4922 67.9971 29.4922H73.9248C74.3561 29.4922 74.5722 30.0137 74.2671 30.3187C72.3742 31.9751 69.5477 31.9751 67.6547 30.3187Z" fill="#343137"/>
<ellipse cx="75.4203" cy="35.7602" rx="3.59998" ry="3.6" fill="#484848"/>
<rect width="3.35999" height="11.2286" transform="matrix(0.901034 -0.433747 0.433744 0.901036 74.2188 38.418)" fill="#484848"/>
<path d="M68.9409 63.8529L72.8529 46.0157L77.1417 42.9111L78.0032 42.0938C80.3255 39.8904 84.1152 40.55 85.5566 43.4084C86.0511 44.389 86.1926 45.51 85.9573 46.5827L85.4818 48.7506C85.0868 50.552 84.246 52.2255 83.0366 53.6177L82.2051 54.5749C79.3385 57.8747 75.8261 60.5521 71.8845 62.4417L68.9409 63.8529Z" fill="#F3CA1E"/>
</svg>
