<svg width="800" height="435" viewBox="0 0 800 435" fill="none" xmlns="http://www.w3.org/2000/svg">
<rect width="800" height="435" rx="32" fill="#D9D9D9"/>
<path d="M678.706 399.528C729.907 399.528 771.413 391.799 771.413 382.264C771.413 372.729 729.907 365 678.706 365C627.506 365 586 372.729 586 382.264C586 391.799 627.506 399.528 678.706 399.528Z" fill="#F4E09C"/>
<path d="M678.706 366.3C732.627 366.3 770.23 374.695 770.23 382.381C770.23 385.337 763.372 389.831 744.097 393.378C726.715 396.571 703.42 398.345 678.825 398.345C624.904 398.345 587.301 389.949 587.301 382.263C587.301 379.307 594.159 374.813 613.433 371.266C630.816 368.073 653.993 366.3 678.706 366.3ZM678.706 365.117C627.505 365.117 586 372.803 586 382.381C586 391.959 627.505 399.645 678.706 399.645C729.908 399.645 771.413 391.959 771.413 382.381C771.413 372.803 729.908 365.117 678.706 365.117Z" fill="#E2C675"/>
<path d="M771.413 382.264C771.413 391.723 729.908 399.528 678.706 399.528C627.505 399.528 586 391.842 586 382.264V399.528C586 408.988 627.505 416.792 678.706 416.792C729.908 416.792 771.413 409.106 771.413 399.528V382.264Z" fill="#E2C675"/>
<path d="M606.22 410.17C607.876 410.525 609.65 410.998 611.542 411.353V394.088C609.65 393.734 607.876 393.379 606.22 392.906V410.17ZM586 382.264V399.528C586 402.957 591.321 406.031 600.426 408.751V391.487C591.321 388.886 586 385.693 586 382.264ZM614.852 394.798V412.062C617.454 412.535 620.174 413.008 623.012 413.363V396.099C620.174 395.626 617.454 395.153 614.852 394.798Z" fill="#E2C675"/>
<path d="M751.197 393.025C749.542 393.38 747.768 393.853 745.876 394.208V411.472C747.768 411.117 749.542 410.762 751.197 410.289V393.025ZM756.873 391.488V408.752C765.978 406.032 771.3 402.958 771.3 399.529V382.265C771.418 385.694 766.097 388.887 756.873 391.488ZM734.406 395.981V413.245C737.244 412.891 739.964 412.418 742.565 411.945V394.681C739.964 395.154 737.244 395.627 734.406 395.981Z" fill="#E2C675"/>
<path d="M678.712 374.667C721.095 374.667 755.454 367.354 755.454 358.333C755.454 349.313 721.095 342 678.712 342C636.328 342 601.969 349.313 601.969 358.333C601.969 367.354 636.328 374.667 678.712 374.667Z" fill="#F4E09C"/>
<path d="M678.712 343.361C727.311 343.361 754.272 352.208 754.272 358.333C754.272 364.458 727.43 373.306 678.712 373.306C629.993 373.306 603.151 364.458 603.151 358.333C603.151 352.208 630.112 343.361 678.712 343.361ZM678.712 342C636.379 342 601.969 349.35 601.969 358.333C601.969 367.317 636.261 374.667 678.712 374.667C721.044 374.667 755.454 367.317 755.454 358.333C755.454 349.35 721.044 342 678.712 342Z" fill="#E2C675"/>
<path d="M755.454 358.333C755.454 367.452 721.163 374.666 678.712 374.666C636.379 374.666 601.969 367.316 601.969 358.333V374.666C601.969 383.786 636.261 391 678.712 391C721.044 391 755.454 383.65 755.454 374.666V358.333Z" fill="#E2C675"/>
<path d="M618.76 385.011C620.179 385.419 621.598 385.691 623.135 386.1V369.766C621.598 369.358 620.179 369.086 618.76 368.677V385.011ZM601.969 358.333V374.666C601.969 377.933 606.344 380.927 613.912 383.514V367.18C606.462 364.594 601.969 361.6 601.969 358.333ZM625.855 370.311V386.644C627.983 387.052 630.23 387.461 632.595 387.869V371.536C630.23 371.127 627.983 370.719 625.855 370.311Z" fill="#E2C675"/>
<path d="M796 0H16V302H796V0Z" fill="#203742"/>
<path d="M416.213 237.263V272.894L409.337 280.604L408.036 282.522C404.531 287.692 397.033 288.019 393.091 283.174V283.174C391.738 281.511 391 279.434 391 277.291V272.961C391 269.362 391.903 265.821 393.626 262.662L394.811 260.49C398.895 253.003 404.47 246.432 411.193 241.183L416.213 237.263Z" fill="#50589D"/>
<path d="M527.068 237.263V272.894L533.945 280.604L535.245 282.522C538.75 287.692 546.249 288.019 550.191 283.174V283.174C551.543 281.511 552.281 279.434 552.281 277.291V272.961C552.281 269.362 551.378 265.821 549.655 262.662L548.471 260.49C544.386 253.003 538.811 246.432 532.089 241.183L527.068 237.263Z" fill="#50589D"/>
<path d="M528.95 220.187C532.305 251.478 528.95 370.019 470.954 316.583C412.958 370.019 408.119 251.478 412.958 220.187C412.958 190.26 438.923 166 470.954 166C502.984 166 528.95 190.26 528.95 220.187Z" fill="#50589D"/>
<path d="M515.397 222.885C515.397 244.405 495.339 248.515 470.597 248.515C445.855 248.515 425.797 244.405 425.797 222.885C425.797 201.365 445.855 183.92 470.597 183.92C495.339 183.92 515.397 201.365 515.397 222.885Z" fill="#F6E6D0"/>
<path d="M445.563 204.348C445.309 205.295 446.327 206.076 447.176 205.586L456.868 199.99C457.724 199.496 457.697 198.253 456.821 197.796V197.796C456.416 197.585 455.928 197.611 455.548 197.864L451.326 200.679L446.08 203.677C445.825 203.823 445.639 204.064 445.563 204.348V204.348Z" fill="#343137"/>
<path d="M493.976 204.348C494.23 205.295 493.212 206.076 492.363 205.586L482.671 199.99C481.815 199.496 481.842 198.253 482.718 197.796V197.796C483.123 197.585 483.611 197.611 483.991 197.864L488.213 200.679L493.459 203.677C493.714 203.823 493.9 204.064 493.976 204.348V204.348Z" fill="#343137"/>
<path d="M464.832 234.004C464.139 233.31 464.63 232.125 465.61 232.125H476.802C477.789 232.125 478.388 233.215 477.858 234.048V234.048C477.613 234.434 477.177 234.655 476.721 234.626L471.658 234.299L465.615 234.326C465.321 234.327 465.039 234.211 464.832 234.004V234.004Z" fill="#343137"/>
<ellipse cx="454.079" cy="216.802" rx="4.032" ry="4.03199" fill="#343137"/>
<ellipse cx="486.337" cy="216.802" rx="4.032" ry="4.03199" fill="#343137"/>
<path d="M195.213 207.263V242.894L188.337 250.604L187.036 252.522C183.531 257.692 176.033 258.019 172.091 253.174V253.174C170.738 251.511 170 249.434 170 247.291V242.961C170 239.362 170.903 235.821 172.626 232.662L173.811 230.49C177.895 223.003 183.47 216.432 190.193 211.183L195.213 207.263Z" fill="#926D98"/>
<path d="M306.068 207.263V242.894L312.945 250.604L314.245 252.522C317.75 257.692 325.249 258.019 329.191 253.174V253.174C330.543 251.511 331.281 249.434 331.281 247.291V242.961C331.281 239.362 330.378 235.821 328.655 232.662L327.471 230.49C323.386 223.003 317.811 216.432 311.089 211.183L306.068 207.263Z" fill="#6E9DD1"/>
<path d="M307.371 190.187C310.727 221.478 307.371 340.019 249.376 286.583C191.38 340.019 186.541 221.478 191.38 190.187C191.38 160.26 217.345 136 249.376 136C281.406 136 307.371 160.26 307.371 190.187Z" fill="#926D98"/>
<path d="M294.397 192.885C294.397 214.405 274.339 218.515 249.597 218.515C224.855 218.515 204.797 214.405 204.797 192.885C204.797 171.365 224.855 153.92 249.597 153.92C274.339 153.92 294.397 171.365 294.397 192.885Z" fill="#F6E6D0"/>
<path d="M241.957 192.994C241.264 192.301 241.755 191.115 242.735 191.115H253.927C254.914 191.115 255.513 192.205 254.983 193.039V193.039C254.738 193.424 254.302 193.645 253.846 193.616L248.783 193.289L242.74 193.316C242.446 193.318 242.164 193.202 241.957 192.994V192.994Z" fill="#343137"/>
<rect x="239.078" y="175.115" width="18" height="3" fill="black"/>
<circle cx="232.578" cy="176.615" r="10.5" fill="black"/>
<circle cx="263.578" cy="176.615" r="10.5" fill="black"/>
<path d="M308.213 188.667V228.001L301.337 236.511L300.225 238.322C296.772 243.943 288.727 244.283 284.814 238.972V238.972C283.636 237.374 283 235.44 283 233.455V228.04C283 224.08 283.913 220.173 285.667 216.623L286.653 214.627C290.843 206.147 296.693 198.596 303.857 192.421L308.213 188.667Z" fill="#484848"/>
<path d="M419.068 188.667V228.001L425.945 236.511L427.056 238.322C430.509 243.943 438.554 244.283 442.468 238.972V238.972C443.646 237.374 444.281 235.44 444.281 233.455V228.04C444.281 224.08 443.369 220.173 441.614 216.623L440.628 214.627C436.438 206.147 430.588 198.596 423.424 192.421L419.068 188.667Z" fill="#484848"/>
<path d="M420.996 169.817C424.352 204.359 420.996 335.216 363.001 276.228C305.005 335.216 300.166 204.359 305.005 169.817C305.005 136.781 330.97 110 363.001 110C395.031 110 420.996 136.781 420.996 169.817Z" fill="#484848"/>
<path d="M407.397 172.796C407.397 196.552 387.339 201.089 362.597 201.089C337.855 201.089 317.797 196.552 317.797 172.796C317.797 149.04 337.855 129.782 362.597 129.782C387.339 129.782 407.397 149.04 407.397 172.796Z" fill="#F6E6D0"/>
<path d="M357.152 181.214C356.349 178.554 358.34 175.873 361.118 175.873H366.159C368.955 175.873 371.005 178.503 370.323 181.214V181.214V181.214C369.1 188.642 358.425 188.633 357.152 181.214V181.214V181.214Z" fill="#343137"/>
<rect x="374.125" y="158.069" width="12.9024" height="3.56072" fill="black"/>
<rect x="341.867" y="158.069" width="12.9024" height="3.56072" fill="black"/>
<path d="M90.213 238.263V273.894L83.3367 281.604L82.0365 283.522C78.5313 288.692 71.0326 289.019 67.0906 284.174V284.174C65.7383 282.511 65 280.434 65 278.291V273.961C65 270.362 65.9029 266.821 67.626 263.662L68.8107 261.49C72.8948 254.003 78.4701 247.432 85.1925 242.183L90.213 238.263Z" fill="#2B5F42"/>
<path d="M201.068 238.263V273.894L207.945 281.604L209.245 283.522C212.75 288.692 220.249 289.019 224.191 284.174V284.174C225.543 282.511 226.281 280.434 226.281 278.291V273.961C226.281 270.362 225.378 266.821 223.655 263.662L222.471 261.49C218.386 254.003 212.811 247.432 206.089 242.183L201.068 238.263Z" fill="#2B5F42"/>
<path d="M202.95 221.187C206.305 252.478 202.95 371.019 144.954 317.583C86.9578 371.019 82.1193 252.478 86.9578 221.187C86.9578 191.26 112.923 167 144.954 167C176.984 167 202.95 191.26 202.95 221.187Z" fill="#2B5F42"/>
<path d="M189.397 223.885C189.397 245.405 169.339 249.515 144.597 249.515C119.855 249.515 99.7969 245.405 99.7969 223.885C99.7969 202.365 119.855 184.92 144.597 184.92C169.339 184.92 189.397 202.365 189.397 223.885Z" fill="#F6E6D0"/>
<path d="M119.563 205.348C119.309 206.295 120.327 207.076 121.176 206.586L130.868 200.99C131.724 200.496 131.697 199.253 130.821 198.796V198.796C130.416 198.585 129.928 198.611 129.548 198.864L125.326 201.679L120.08 204.677C119.825 204.823 119.639 205.064 119.563 205.348V205.348Z" fill="#343137"/>
<path d="M167.976 205.348C168.23 206.295 167.212 207.076 166.363 206.586L156.671 200.99C155.815 200.496 155.842 199.253 156.718 198.796V198.796C157.123 198.585 157.611 198.611 157.991 198.864L162.213 201.679L167.459 204.677C167.714 204.823 167.9 205.064 167.976 205.348V205.348Z" fill="#343137"/>
<path d="M138.832 235.004C138.139 234.31 138.63 233.125 139.61 233.125H150.802C151.789 233.125 152.388 234.215 151.858 235.048V235.048C151.613 235.434 151.177 235.655 150.721 235.626L145.658 235.299L139.615 235.326C139.321 235.327 139.039 235.211 138.832 235.004V235.004Z" fill="#343137"/>
<ellipse cx="128.079" cy="217.802" rx="4.032" ry="4.03199" fill="#343137"/>
<ellipse cx="160.337" cy="217.802" rx="4.032" ry="4.03199" fill="#343137"/>
<path d="M633.022 307.023L624.872 269.862L615.937 263.394L614.142 261.691C609.304 257.101 601.408 258.475 598.405 264.43V264.43C597.375 266.473 597.081 268.809 597.571 271.043L598.561 275.56C599.384 279.313 601.136 282.799 603.656 285.7L605.388 287.694C611.36 294.568 618.678 300.146 626.889 304.083L633.022 307.023Z" fill="#D2AF1D"/>
<path d="M616.882 235.952C613.317 269.417 616.882 396.193 678.504 339.044C740.125 396.193 745.266 269.417 740.125 235.952C740.125 203.946 712.536 178 678.504 178C644.471 178 616.882 203.946 616.882 235.952Z" fill="#F3CA1E"/>
<path d="M615.967 234.826C615.967 257.803 613.347 255.49 630.125 265.05C656.543 265.05 677.93 262.384 677.93 239.407C677.93 216.43 659.568 198.664 633.15 198.664C633.15 198.664 615.967 211.849 615.967 234.826Z" fill="#F6E6D0"/>
<ellipse cx="4.305" cy="4.305" rx="4.305" ry="4.305" transform="matrix(-1 0 0 1 641.031 224.303)" fill="#343137"/>
<path d="M635.864 243.244C636.499 242.609 636.049 241.522 635.151 241.522H622.801C621.903 241.522 621.452 242.609 622.088 243.244V243.244V243.244C626.032 246.695 631.92 246.695 635.864 243.244V243.244V243.244Z" fill="#343137"/>
<circle cx="7.5" cy="7.5" r="7.5" transform="matrix(-1 0 0 1 623.016 245)" fill="#484848"/>
<rect width="7" height="23.3929" transform="matrix(-0.901035 -0.433746 -0.433746 0.901035 618.016 258.036)" fill="#484848"/>
<path d="M629.022 311.023L620.872 273.862L611.937 267.394L610.142 265.691C605.304 261.101 597.408 262.475 594.405 268.43V268.43C593.375 270.473 593.081 272.809 593.571 275.043L594.561 279.56C595.384 283.313 597.136 286.799 599.656 289.7L601.388 291.694C607.36 298.568 614.678 304.146 622.889 308.083L629.022 311.023Z" fill="#F3CA1E"/>
<path d="M130.128 289.758V311.137L126.002 315.763L125.222 316.913C123.119 320.015 118.62 320.212 116.254 317.304V317.304C115.443 316.307 115 315.061 115 313.775V311.176C115 309.017 115.542 306.893 116.576 304.997L117.286 303.694C119.737 299.202 123.082 295.259 127.116 292.11L130.128 289.758Z" fill="#B04B32"/>
<path d="M196.638 289.758V311.137L200.764 315.763L201.544 316.913C203.647 320.015 208.146 320.212 210.511 317.304V317.304C211.323 316.307 211.766 315.061 211.766 313.775V311.176C211.766 309.017 211.224 306.893 210.19 304.997L209.479 303.694C207.029 299.202 203.684 295.259 199.65 292.11L196.638 289.758Z" fill="#B04B32"/>
<path d="M197.767 279.512C199.78 298.287 197.767 369.411 162.969 337.349C128.172 369.411 125.268 298.287 128.172 279.512C128.172 261.556 143.751 247 162.969 247C182.187 247 197.767 261.556 197.767 279.512Z" fill="#B04B32"/>
<path d="M189.643 281.131C189.643 294.043 177.608 296.509 162.763 296.509C147.917 296.509 135.883 294.043 135.883 281.131C135.883 268.219 147.917 257.752 162.763 257.752C177.608 257.752 189.643 268.219 189.643 281.131Z" fill="#F6E6D0"/>
<path d="M147.425 268.023C147 268.43 147.279 269.147 147.867 269.16L154.581 269.309C155.173 269.322 155.547 268.676 155.24 268.169V268.169C155.098 267.935 154.839 267.796 154.566 267.808L151.524 267.936L147.899 267.84C147.723 267.835 147.553 267.901 147.425 268.023V268.023Z" fill="#343137"/>
<path d="M177.09 268.048C177.512 268.457 177.229 269.173 176.64 269.182L169.926 269.286C169.334 269.295 168.964 268.647 169.275 268.142V268.142C169.418 267.908 169.677 267.771 169.951 267.785L172.992 267.934L176.617 267.861C176.793 267.858 176.963 267.925 177.09 268.048V268.048Z" fill="#343137"/>
<ellipse cx="152.849" cy="277.482" rx="2.4192" ry="2.41919" fill="#343137"/>
<ellipse cx="172.2" cy="277.482" rx="2.4192" ry="2.41919" fill="#343137"/>
<path d="M158.968 286.903C158.492 285.475 159.555 284 161.06 284H164.664C166.179 284 167.276 285.444 166.871 286.903V286.903V286.903C166.074 291.284 159.796 291.278 158.968 286.903V286.903V286.903Z" fill="#343137"/>
<path d="M260.213 309.173V273.541L253.337 265.832L252.036 263.914C248.531 258.744 241.033 258.417 237.091 263.262V263.262C235.738 264.924 235 267.001 235 269.144V273.475C235 277.073 235.903 280.614 237.626 283.773L238.811 285.945C242.895 293.433 248.47 300.004 255.193 305.253L260.213 309.173Z" fill="#F3CA1E"/>
<path d="M371.068 269.263V304.894L377.945 312.604L379.245 314.522C382.75 319.692 390.249 320.019 394.191 315.174V315.174C395.543 313.511 396.281 311.434 396.281 309.291V304.961C396.281 301.362 395.378 297.821 393.655 294.662L392.471 292.49C388.386 285.003 382.811 278.432 376.089 273.183L371.068 269.263Z" fill="#F3CA1E"/>
<path d="M373.575 252.187C376.93 283.478 373.575 402.019 315.579 348.583C257.583 402.019 252.744 283.478 257.583 252.187C257.583 222.26 283.548 198 315.579 198C347.609 198 373.575 222.26 373.575 252.187Z" fill="#F3CA1E"/>
<path d="M359.397 254.885C359.397 276.405 339.339 280.515 314.597 280.515C289.855 280.515 269.797 276.405 269.797 254.885C269.797 233.365 289.855 215.92 314.597 215.92C339.339 215.92 359.397 233.365 359.397 254.885Z" fill="#F6E6D0"/>
<ellipse cx="298.704" cy="243.965" rx="4.032" ry="4.03199" fill="#343137"/>
<ellipse cx="330.962" cy="243.965" rx="4.032" ry="4.03199" fill="#343137"/>
<path d="M309.191 257.673C308.596 257.078 309.017 256.061 309.859 256.061H321.425C322.267 256.061 322.688 257.078 322.093 257.673V257.673V257.673C318.4 260.905 312.885 260.905 309.191 257.673V257.673V257.673Z" fill="#343137"/>
<path d="M344.463 279.595V315.226L337.587 322.936L336.286 324.854C332.781 330.024 325.283 330.351 321.341 325.506V325.506C319.988 323.844 319.25 321.766 319.25 319.623V315.293C319.25 311.694 320.153 308.153 321.876 304.994L323.061 302.822C327.145 295.335 332.72 288.764 339.443 283.515L344.463 279.595Z" fill="#6E9DD1"/>
<path d="M455.318 279.595V315.226L462.195 322.936L463.495 324.854C467 330.024 474.499 330.351 478.441 325.506V325.506C479.793 323.844 480.531 321.766 480.531 319.623V315.293C480.531 311.694 479.628 308.153 477.905 304.994L476.721 302.822C472.636 295.335 467.061 288.764 460.339 283.515L455.318 279.595Z" fill="#6E9DD1"/>
<path d="M456.621 262.519C459.977 293.81 456.621 412.351 398.626 358.915C340.63 412.351 335.791 293.81 340.63 262.519C340.63 232.592 366.595 208.332 398.626 208.332C430.656 208.332 456.621 232.592 456.621 262.519Z" fill="#6E9DD1"/>
<path d="M443.647 265.217C443.647 286.737 423.589 290.847 398.847 290.847C374.105 290.847 354.047 286.737 354.047 265.217C354.047 243.697 374.105 226.252 398.847 226.252C423.589 226.252 443.647 243.697 443.647 265.217Z" fill="#F6E6D0"/>
<path d="M392.504 260.208C391.81 259.515 392.301 258.329 393.282 258.329H404.474C405.461 258.329 406.06 259.419 405.53 260.252V260.252C405.285 260.638 404.849 260.859 404.393 260.83L399.329 260.503L393.287 260.53C392.993 260.531 392.711 260.415 392.504 260.208V260.208Z" fill="#343137"/>
<ellipse cx="377.729" cy="253.491" rx="4.8384" ry="4.83839" fill="#343137"/>
<ellipse cx="377.726" cy="253.49" rx="3.2256" ry="3.22559" fill="#F5F5F5"/>
<ellipse cx="419.659" cy="253.491" rx="4.8384" ry="4.83839" fill="#343137"/>
<ellipse cx="419.663" cy="253.49" rx="3.2256" ry="3.22559" fill="#F5F5F5"/>
<path d="M395.208 313.957C393.987 310.513 398.432 304.551 400.808 302C402.674 304.87 406.408 311.278 406.408 313.957C406.408 316.951 408.851 322.623 409.731 323.788C409.956 323.921 410.054 324 409.971 324C409.917 324 409.835 323.925 409.731 323.788C408.847 323.263 405.995 321.893 404.371 321.13C402.903 318.261 399.977 312.33 400.025 311.565C399.887 313.886 399.79 316.241 399.79 318.261C398.976 321.704 396.396 322.884 395.208 323.043C395.718 321.449 396.43 317.4 395.208 313.957Z" fill="#B04B32"/>
<path d="M400.808 302C398.432 304.551 393.987 310.513 395.208 313.957C396.43 317.4 395.718 321.449 395.208 323.043C396.396 322.884 398.976 321.704 399.79 318.261C399.79 316.241 399.887 313.886 400.025 311.565M400.808 302C402.674 304.87 406.408 311.278 406.408 313.957C406.408 317.304 409.462 324 409.971 324C410.378 324 406.408 322.087 404.371 321.13C402.903 318.261 399.977 312.33 400.025 311.565M400.808 302C400.597 303.986 400.254 307.73 400.025 311.565" stroke="#B04B32" stroke-width="2"/>
<path d="M385.5 299.5C372 297.5 358.167 291.667 354 288.5C359.5 298 374.589 306.57 378 307.5C383.5 309 402.5 308 407 307.5C411.5 307 422.5 303 428.5 299.5C433.3 296.7 444 287.333 444.5 284L431.5 292C425.5 293.833 418 297 408 299.5C403.634 300.591 399.358 301.553 385.5 299.5Z" fill="#B04B32" stroke="#B04B32" stroke-width="2"/>
<path d="M191.213 284.263V319.894L184.337 327.604L183.036 329.522C179.531 334.692 172.033 335.019 168.091 330.174V330.174C166.738 328.511 166 326.434 166 324.291V319.961C166 316.362 166.903 312.821 168.626 309.662L169.811 307.49C173.895 300.003 179.47 293.432 186.193 288.183L191.213 284.263Z" fill="#2A448A"/>
<path d="M302.068 284.263V319.894L308.945 327.604L310.245 329.522C313.75 334.692 321.249 335.019 325.191 330.174V330.174C326.543 328.511 327.281 326.434 327.281 324.291V319.961C327.281 316.362 326.378 312.821 324.655 309.662L323.471 307.49C319.386 300.003 313.811 293.432 307.089 288.183L302.068 284.263Z" fill="#2A448A"/>
<path d="M303.996 267.187C307.352 298.478 303.996 417.019 246.001 363.583C188.005 417.019 183.166 298.478 188.005 267.187C188.005 237.26 213.97 213 246.001 213C278.031 213 303.996 237.26 303.996 267.187Z" fill="#2A448A"/>
<path d="M290.397 269.885C290.397 291.405 270.339 295.515 245.597 295.515C220.855 295.515 200.797 291.405 200.797 269.885C200.797 248.365 220.855 230.92 245.597 230.92C270.339 230.92 290.397 248.365 290.397 269.885Z" fill="#F6E6D0"/>
<path d="M240.152 277.511C239.358 275.131 241.13 272.673 243.639 272.673H249.645C252.17 272.673 253.999 275.079 253.323 277.511V277.511V277.511C251.996 284.812 241.533 284.802 240.152 277.511V277.511V277.511Z" fill="#343137"/>
<ellipse cx="230.743" cy="258.965" rx="4.032" ry="4.03199" fill="#343137"/>
<rect x="257.125" y="256.545" width="12.9024" height="3.22559" fill="black"/>
<path d="M799.998 233.614V235.966H795.198H791.198H778.398H773.598H770.078C769.598 235.966 769.118 235.827 768.798 235.827C767.678 235.412 766.878 234.721 766.398 233.614H799.998Z" fill="#CDA349"/>
<path d="M799.994 231.124V233.614H766.394C766.234 233.337 766.234 233.06 766.234 232.784V231.124H799.994Z" fill="#E2C675"/>
<path d="M799.994 226.283V231.124H766.234V229.464C766.234 228.081 767.354 226.836 768.794 226.422C769.114 226.283 769.594 226.283 770.074 226.283H776.634H780.154H790.394H796.314H799.994Z" fill="#F4E09C"/>
<path d="M773.597 235.965C759.997 266.948 745.757 298.484 730.877 330.435C718.717 356.299 706.557 381.611 694.237 406.508C692.317 406.231 690.237 405.955 688.157 405.401C681.117 403.742 675.837 401.114 672.477 399.039C704.637 344.681 736.637 290.185 768.797 235.827C769.277 235.965 769.597 235.965 770.077 235.965H773.597Z" fill="#CE3D32"/>
<path d="M799.998 235.965V435C795.358 434.17 789.598 432.51 783.678 429.329C776.958 425.733 772.478 421.307 770.078 418.402C779.518 381.472 787.358 339.978 791.838 294.749C793.758 274.416 794.878 254.776 795.358 235.965H799.998Z" fill="#CE3D32"/>
<path d="M778.234 235.965H791.034C788.634 268.745 782.554 307.889 769.114 350.905C760.954 377.046 751.354 400.421 741.434 421.03C740.154 420.754 738.714 420.477 737.434 420.2C723.674 416.604 716.154 408.72 713.594 405.816C730.074 368.747 745.914 329.327 760.794 287.833C767.034 270.267 772.794 252.978 778.234 235.965Z" fill="#CE3D32"/>
<path d="M799.996 155.743V226.283H796.156C791.836 187.693 787.516 149.104 783.516 110.375C779.676 73.5836 775.836 36.7918 772.156 0H785.436C786.396 22.5453 787.676 45.9206 789.916 69.8491C792.476 99.7251 795.996 128.356 799.996 155.743Z" fill="#CE3D32"/>
<path d="M790.237 226.284H779.997C762.237 193.642 744.317 155.467 728.797 112.174C715.997 76.3508 706.877 42.8786 700.477 12.4493V12.1726C718.237 8.1615 732.157 4.84195 740.797 2.62891C747.997 44.815 756.637 88.6608 767.037 133.89C774.237 165.702 782.077 196.546 790.237 226.284Z" fill="#CE3D32"/>
<path d="M776.48 226.283H769.92C769.44 226.283 769.12 226.283 768.64 226.421C748 212.313 720.8 190.182 697.76 157.817C658.24 102.629 652.64 48.6861 652 22.4063C661.76 20.4699 671.2 18.5334 679.84 16.7354C679.84 43.5685 688.96 78.0089 704.48 112.864C726.08 161.136 753.28 198.896 776.48 226.283Z" fill="#CE3D32"/>
<path d="M791.198 235.965H795.198C794.718 254.776 793.597 274.416 791.677 294.749C787.357 339.978 779.518 381.334 769.918 418.402C766.718 419.647 755.518 423.52 741.438 421.03C751.357 400.421 760.958 376.908 769.118 350.905C782.718 307.889 788.798 268.745 791.198 235.965Z" fill="#B52D2A"/>
<path d="M773.594 235.965H778.394C772.954 252.978 767.194 270.267 760.954 287.833C746.234 329.466 730.394 368.747 713.754 405.816C709.754 406.645 702.714 407.614 694.234 406.507C706.554 381.61 718.714 356.161 730.874 330.434C745.754 298.483 759.994 266.947 773.594 235.965Z" fill="#B52D2A"/>
<path d="M799.998 0.137695V155.742C795.998 128.356 792.478 99.7245 789.918 69.9867C787.838 46.0583 786.398 22.683 785.438 0.137695H799.998Z" fill="#B52D2A"/>
<path d="M796.157 226.283H790.237C782.077 196.546 774.237 165.701 767.037 133.889C756.637 88.6599 747.997 44.814 740.797 2.62798C747.357 0.968205 751.037 0 751.037 0H772.317C775.997 36.7918 779.677 73.5836 783.677 110.375C787.517 149.104 791.837 187.693 796.157 226.283Z" fill="#B52D2A"/>
<path d="M780 226.284H776.48C753.28 198.897 726.08 161.137 704.64 112.866C689.12 78.0101 680 43.5697 680 16.7366C687.2 15.2152 694.08 13.6937 700.48 12.3105V12.5872C707.04 43.0165 716 76.4887 728.8 112.312C744.32 155.467 762.24 193.641 780 226.284Z" fill="#B52D2A"/>
<path d="M676.476 0.137695H698.876C698.876 0.137695 529.436 43.4303 399.516 43.4303L399.676 29.5988C519.836 29.5988 650.396 5.25535 676.476 0.137695Z" fill="#B52D2A"/>
<path d="M400.152 0.137695H534.072C505.272 5.80861 459.192 12.3094 399.672 12.3094L399.832 0.137695H400.152Z" fill="#B52D2A"/>
<path d="M534.072 0.137695H676.472C650.392 5.25535 519.832 29.5988 399.672 29.5988L399.832 12.1711C459.192 12.3094 505.272 5.80861 534.072 0.137695Z" fill="#CE3D32"/>
<path d="M740.636 2.76568C731.996 4.97872 718.076 8.29828 700.316 12.3094C693.916 13.6926 687.196 15.214 679.836 16.7355C671.196 18.5336 661.756 20.47 651.996 22.4064C582.716 36.0996 487.196 50.8993 399.516 50.8993V43.5686C529.436 43.4303 698.876 0.137695 698.876 0.137695H750.876C750.876 0.137695 747.356 1.1059 740.636 2.76568Z" fill="#CE3D32"/>
<path d="M0 233.614V235.966H4.8H8.8H21.6H26.4H29.92C30.4 235.966 30.88 235.827 31.2 235.827C32.32 235.412 33.12 234.721 33.6 233.614H0Z" fill="#CDA349"/>
<path d="M0 231.124V233.614H33.6C33.76 233.337 33.76 233.06 33.76 232.784V231.124H0Z" fill="#E2C675"/>
<path d="M0 226.283V231.124H33.76V229.464C33.76 228.081 32.64 226.836 31.2 226.422C30.88 226.283 30.4 226.283 29.92 226.283H23.36H19.84H9.76H3.84H0Z" fill="#F4E09C"/>
<path d="M26.3984 235.965C39.9984 266.948 54.2384 298.484 69.1184 330.435C81.2784 356.299 93.4384 381.611 105.758 406.508C107.678 406.231 109.758 405.955 111.838 405.401C118.878 403.742 124.158 401.114 127.518 399.039C95.3584 344.681 63.3584 290.185 31.1984 235.827C30.7184 235.965 30.3984 235.965 29.9184 235.965H26.3984Z" fill="#CE3D32"/>
<path d="M0 235.965V435C4.64 434.17 10.4 432.51 16.32 429.329C23.04 425.733 27.52 421.307 29.92 418.402C20.64 381.334 12.64 339.978 8.32 294.749C6.4 274.416 5.28 254.776 4.8 235.965H0Z" fill="#CE3D32"/>
<path d="M21.7609 235.965H8.96094C11.3609 268.745 17.4409 307.889 30.8809 350.905C39.0409 377.046 48.6409 400.421 58.5609 421.03C59.8409 420.754 61.2809 420.477 62.5609 420.2C76.3209 416.604 83.8409 408.72 86.4009 405.816C69.9209 368.747 54.0809 329.327 39.2009 287.833C32.9609 270.267 27.2009 252.978 21.7609 235.965Z" fill="#CE3D32"/>
<path d="M0 155.743V226.283H3.84C8.16 187.693 12.48 149.104 16.48 110.375C20.32 73.5836 24.16 36.7918 27.84 0H14.56C13.6 22.6837 12.16 46.0589 10.08 69.9874C7.52 99.7251 4 128.356 0 155.743Z" fill="#CE3D32"/>
<path d="M9.75781 226.284H19.9978C37.7578 193.641 55.6778 155.466 71.1978 112.174C83.9978 76.3502 93.1178 42.8779 99.5178 12.4486V12.172C81.9178 8.2992 67.9978 4.97964 59.3578 2.7666C52.1578 44.9527 43.5178 88.7985 33.1178 134.028C25.7578 165.702 17.9178 196.546 9.75781 226.284Z" fill="#CE3D32"/>
<path d="M23.5156 226.283H30.0756C30.5556 226.283 30.8756 226.283 31.3556 226.421C51.9956 212.313 79.1956 190.182 102.236 157.817C141.756 102.629 147.356 48.6861 147.996 22.4063C138.236 20.4699 128.796 18.5334 120.156 16.7354C120.156 43.5685 111.036 78.0089 95.5156 112.864C73.9156 161.136 46.7156 198.896 23.5156 226.283Z" fill="#CE3D32"/>
<path d="M8.79688 235.965H4.79688C5.27688 254.776 6.39687 274.416 8.31687 294.749C12.6369 339.978 20.4769 381.334 30.0769 418.402C33.2769 419.647 44.4769 423.52 58.5569 421.03C48.6369 400.421 39.0369 376.908 30.8769 350.905C17.2769 307.889 11.1969 268.745 8.79688 235.965Z" fill="#B52D2A"/>
<path d="M26.4016 235.965H21.6016C27.0416 252.978 32.8016 270.267 39.0416 287.833C53.7616 329.466 69.6016 368.747 86.2416 405.816C90.2416 406.645 97.2816 407.614 105.762 406.507C93.4416 381.61 81.2816 356.161 69.1216 330.434C54.2416 298.483 40.0016 266.947 26.4016 235.965Z" fill="#B52D2A"/>
<path d="M0 0.137695V155.742C4 128.356 7.52 99.7245 10.08 69.9867C12.16 46.0583 13.6 22.683 14.56 0.137695H0Z" fill="#B52D2A"/>
<path d="M3.84375 226.283H9.76375C17.9237 196.545 25.7638 165.701 32.9638 133.888C43.3638 88.6593 52.0037 44.8134 59.2037 2.62736C52.6437 1.1059 49.1238 0.137695 49.1238 0.137695H27.8438C24.1638 36.9295 20.4838 73.7213 16.4838 110.513C12.4838 149.103 8.16375 187.693 3.84375 226.283Z" fill="#B52D2A"/>
<path d="M20 226.284H23.52C46.72 198.897 73.92 161.137 95.36 112.866C110.88 78.0101 120 43.5697 120 16.7366C112.8 15.2152 105.92 13.6937 99.52 12.3105V12.5872C92.96 43.0165 84 76.4887 71.2 112.312C55.68 155.467 37.76 193.641 20 226.284Z" fill="#B52D2A"/>
<path d="M123.517 0.137695H101.117C101.117 0.137695 270.557 43.4303 400.477 43.4303L400.317 29.5988C280.157 29.5988 149.597 5.25535 123.517 0.137695Z" fill="#B52D2A"/>
<path d="M399.842 0.137695H265.922C294.722 5.80861 340.802 12.3094 400.322 12.3094L400.162 0.137695H399.842Z" fill="#B52D2A"/>
<path d="M265.916 0.137695H123.516C149.596 5.25535 280.156 29.5988 400.316 29.5988L400.156 12.1711C340.796 12.3094 294.716 5.80861 265.916 0.137695Z" fill="#CE3D32"/>
<path d="M59.3572 2.76568C67.9972 4.97872 81.9172 8.29828 99.6772 12.3094C106.077 13.6926 112.797 15.214 120.157 16.7355C128.797 18.5336 138.237 20.47 147.997 22.4064C217.277 35.9613 312.957 50.8993 400.637 50.8993V43.5686C270.557 43.4303 101.117 0.137695 101.117 0.137695H49.1172C49.1172 0.137695 52.6372 1.1059 59.3572 2.76568Z" fill="#CE3D32"/>
</svg>
