<svg width="888" height="584" viewBox="0 0 888 584" fill="none" xmlns="http://www.w3.org/2000/svg">
<path d="M241.465 544.087C358.77 481.859 377.985 507.275 475.059 559.675C580.278 616.449 676.945 527.584 690.027 452.638C727.361 238.972 618.405 47.0591 486.17 7.6021C410.059 -15.0872 261.676 12.3231 249.692 151.918C244.248 215.408 270.37 273.016 204.598 297.415C136.591 322.648 33.4036 266.26 3.60515 385.689C-25.8683 504.081 131.777 602.265 241.465 544.087Z" fill="#EBF3FA"/>
<path d="M453.25 583.248C693.356 583.248 888.001 576.208 888.001 567.523C888.001 558.839 693.356 551.798 453.25 551.798C213.143 551.798 18.498 558.839 18.498 567.523C18.498 576.208 213.143 583.248 453.25 583.248Z" fill="#D6E6F2"/>
<path d="M75.1631 438.078C75.1631 438.078 191.713 372.847 228.714 330.408C296.627 252.467 486.271 190.196 505.197 214.819C522.772 237.722 478.039 254.206 465.255 261.939C452.472 269.672 386.945 299.938 386.945 299.938C386.945 299.938 492.525 277.867 522.125 273.816C551.188 269.838 574.979 304.637 516.39 320.787C477.779 331.774 439.881 345.125 402.91 360.766C402.91 360.766 538.627 336.994 547.599 357.547C556.313 377.601 539.626 394.251 407.757 397.563C407.757 397.563 390.182 429.531 444.517 427.94C498.852 426.349 527.49 433.952 508.324 451.527C489.157 469.102 398.174 466.327 369.407 472.673C340.639 479.019 316.348 510.043 230.36 512.633C170.919 514.483 131.274 544.601 131.274 544.601C131.274 544.601 77.1611 503.198 75.1631 438.078Z" fill="#FBC6B4"/>
<path d="M356.03 376.971C356.03 376.971 313.572 496.685 220.979 427.292L356.03 340.341V376.971Z" fill="#F7B2A0"/>
<path d="M363.097 95.8459H574.516C580.796 95.8459 586.82 98.3408 591.26 102.782C595.701 107.223 598.196 113.246 598.196 119.526V510.155C598.196 516.435 595.701 522.458 591.26 526.899C586.82 531.34 580.796 533.835 574.516 533.835H360.877C354.597 533.835 348.574 531.34 344.133 526.899C339.692 522.458 337.197 516.435 337.197 510.155V121.654C337.222 114.8 339.961 108.236 344.816 103.399C349.67 98.562 356.244 95.8459 363.097 95.8459Z" fill="#94B8ED"/>
<path d="M592.865 95.8459H379.892C366.63 95.8459 355.879 106.597 355.879 119.859V509.822C355.879 523.084 366.63 533.835 379.892 533.835H592.865C606.127 533.835 616.878 523.084 616.878 509.822V119.859C616.878 106.597 606.127 95.8459 592.865 95.8459Z" fill="#B3D0FF"/>
<path d="M583.712 116.473H392.551C384.551 116.473 378.065 122.958 378.065 130.958V473.191C378.065 481.191 384.551 487.676 392.551 487.676H583.712C591.712 487.676 598.198 481.191 598.198 473.191V130.958C598.198 122.958 591.712 116.473 583.712 116.473Z" fill="#94B8ED"/>
<path d="M573.722 116.473H392.551C384.551 116.473 378.065 122.958 378.065 130.958V473.191C378.065 481.191 384.551 487.676 392.551 487.676H573.722C581.722 487.676 588.208 481.191 588.208 473.191V130.958C588.208 122.958 581.722 116.473 573.722 116.473Z" fill="#F0F8FF"/>
<path d="M558.551 515.074H424.055C422.1 515.05 420.232 514.263 418.849 512.881C417.467 511.498 416.679 509.63 416.655 507.674C416.679 505.719 417.467 503.851 418.849 502.468C420.232 501.086 422.1 500.298 424.055 500.274H558.551C560.506 500.298 562.374 501.086 563.757 502.468C565.139 503.851 565.927 505.719 565.951 507.674C565.927 509.63 565.139 511.498 563.757 512.881C562.374 514.263 560.506 515.05 558.551 515.074Z" fill="#94B8ED"/>
<path d="M639.898 130.311H411.829V468.862H639.898V130.311Z" fill="#D6E6F2"/>
<path d="M618.383 148.404H432.809V161.65H618.383V148.404Z" fill="white"/>
<path d="M618.383 325.911H432.809V339.157H618.383V325.911Z" fill="white"/>
<path d="M525.864 169.365H432.809V250.265H525.864V169.365Z" fill="white"/>
<path d="M618.378 169.365H536.849V190.418H618.378V169.365Z" fill="white"/>
<path d="M618.378 199.279H536.849V220.332H618.378V199.279Z" fill="white"/>
<path d="M618.378 229.213H536.849V250.266H618.378V229.213Z" fill="white"/>
<path d="M618.383 346.854H432.809V378.675H618.383V346.854Z" fill="white"/>
<path d="M618.383 432.361H432.809V451.305H618.383V432.361Z" fill="white"/>
<path d="M618.383 383.946H432.809V393.418H618.383V383.946Z" fill="white"/>
<path d="M618.383 416.229H432.809V425.702H618.383V416.229Z" fill="white"/>
<path d="M718.097 205.895H479.095C462.481 205.895 449.014 219.362 449.014 235.976V384.55C449.014 401.163 462.481 414.631 479.095 414.631H718.097C734.71 414.631 748.178 401.163 748.178 384.55V235.976C748.178 219.362 734.71 205.895 718.097 205.895Z" fill="#426ECE"/>
<path d="M709.383 205.895H470.381C453.768 205.895 440.3 219.362 440.3 235.976V384.55C440.3 401.163 453.768 414.631 470.381 414.631H709.383C725.997 414.631 739.464 401.163 739.464 384.55V235.976C739.464 219.362 725.997 205.895 709.383 205.895Z" fill="#5A7FE5"/>
<path d="M739.464 245.227H440.3V282.985H739.464V245.227Z" fill="#282738"/>
<path d="M698.809 301.134H481.711C480.556 301.134 479.448 300.676 478.63 299.861C477.812 299.047 477.35 297.941 477.345 296.786C477.345 296.213 477.458 295.645 477.677 295.115C477.896 294.586 478.218 294.104 478.623 293.699C479.029 293.294 479.51 292.972 480.04 292.753C480.57 292.533 481.137 292.42 481.711 292.42H698.809C699.382 292.42 699.95 292.533 700.48 292.753C701.009 292.972 701.491 293.294 701.896 293.699C702.302 294.104 702.623 294.586 702.843 295.115C703.062 295.645 703.175 296.213 703.175 296.786C703.17 297.941 702.708 299.047 701.89 299.861C701.071 300.676 699.964 301.134 698.809 301.134Z" fill="#AACEF2"/>
<g style="mix-blend-mode:overlay" opacity="0.2">
<path d="M462.094 414.63H572.354L739.41 294.565V227.687C739.395 221.912 737.094 216.377 733.011 212.294C728.927 208.21 723.392 205.909 717.617 205.894H656.308L440.301 354.801V392.837C440.315 398.613 442.616 404.147 446.7 408.231C450.784 412.315 456.318 414.616 462.094 414.63Z" fill="white"/>
</g>
<path d="M439.19 160.096H406.741V469.694H439.19V160.096Z" fill="#FF6C52"/>
<path d="M439.19 265.362H406.741V469.695H439.19V265.362Z" fill="#FFA000"/>
<path d="M439.19 348.741H406.741V469.694H439.19V348.741Z" fill="#FEDA00"/>
<path d="M439.19 412.215H406.741V469.695H439.19V412.215Z" fill="#8DC73E"/>
<path d="M220.943 437.949C220.943 437.949 277.405 469.399 313.813 408.108C321.879 394.548 330.463 363.042 360.064 353.237C425.665 331.481 443.721 299.79 422.279 286.285C400.838 272.78 275.648 311.297 234.948 344.597C208.659 366.317 165.85 408.922 220.943 437.949Z" fill="#FBC6B4"/>
<path d="M420.759 288.543C420.759 288.543 428.418 296.054 410.473 302.455C397.024 307.246 378.801 302.455 374.953 297.367C374.953 297.367 368.238 289.079 389.476 285.028C397.209 283.548 415.265 281.457 420.759 288.543Z" fill="#F7B2A0"/>
<path d="M647.709 137.269C655.797 101.408 633.282 65.7798 597.421 57.6916C561.56 49.6034 525.932 72.1177 517.844 107.979C509.756 143.84 532.27 179.468 568.131 187.556C603.992 195.644 639.62 173.13 647.709 137.269Z" fill="#FAC22E"/>
<rect y="-2.69151" width="89.2459" height="7.81135" rx="3.90567" transform="matrix(-0.707107 0.707107 0.707107 0.707107 613.621 90.721)" fill="#FF6262" stroke="#FF6262" stroke-width="3.80637"/>
<rect x="554.477" y="88.8178" width="89.2459" height="7.81135" rx="3.90567" transform="rotate(45 554.477 88.8178)" fill="#FF6262" stroke="#FF6262" stroke-width="3.80637"/>
<path d="M769.261 326.875C766.018 325.414 764.572 321.601 766.033 318.357L769.559 310.527C771.019 307.283 774.832 305.837 778.076 307.298C779.262 307.818 790.704 310.629 794.23 302.798C795.992 298.883 793.84 293.204 787.967 290.56C783.188 288.408 778.373 290.95 777.492 292.907C776.031 296.151 772.218 297.597 768.974 296.136C765.73 294.675 764.285 290.862 765.746 287.619C770.045 278.069 782.645 274.036 793.256 278.814C808.917 285.866 809.517 300.221 805.094 310.045C801.441 318.159 794.19 322.354 784.677 321.854C782.606 321.748 780.655 321.426 778.954 321.037L777.779 323.646C776.318 326.89 772.505 328.335 769.261 326.875Z" fill="#323141"/>
<path d="M762.211 342.536C765.455 343.997 769.268 342.551 770.729 339.308C772.189 336.064 770.744 332.251 767.5 330.79C764.256 329.33 760.443 330.775 758.983 334.019C757.522 337.262 758.968 341.076 762.211 342.536Z" fill="#323141"/>
<path d="M793.645 357.352C792.706 355.756 793.239 353.702 794.835 352.763L798.687 350.497C800.283 349.558 802.337 350.091 803.276 351.687C803.623 352.264 807.638 356.899 811.49 354.633C813.417 353.5 814.21 350.441 812.51 347.551C811.128 345.2 808.318 344.832 807.355 345.398C805.759 346.337 803.705 345.804 802.766 344.209C801.828 342.613 802.36 340.558 803.956 339.62C808.654 336.856 815.219 338.932 818.289 344.152C822.821 351.857 818.759 358.135 813.926 360.978C809.934 363.326 805.593 362.928 801.702 359.855C800.855 359.187 800.123 358.463 799.517 357.786L798.234 358.542C796.638 359.48 794.584 358.948 793.645 357.352Z" fill="#323141"/>
<path d="M785.935 361.883C786.873 363.479 788.928 364.012 790.523 363.073C792.119 362.135 792.652 360.08 791.713 358.484C790.775 356.889 788.72 356.356 787.124 357.294C785.529 358.233 784.996 360.288 785.935 361.883Z" fill="#323141"/>
<path d="M732.415 325.916C730.571 326.075 728.947 324.709 728.788 322.864L728.405 318.411C728.246 316.566 729.612 314.943 731.457 314.784C732.127 314.719 738.04 313.095 737.657 308.642C737.465 306.416 735.047 304.381 731.707 304.669C728.989 304.903 727.446 307.279 727.541 308.392C727.7 310.236 726.334 311.86 724.489 312.019C722.645 312.178 721.021 310.812 720.862 308.967C720.394 303.537 725.098 298.509 731.131 297.989C740.037 297.222 743.951 303.594 744.432 309.18C744.829 313.794 742.598 317.539 738.148 319.725C737.18 320.202 736.212 320.55 735.34 320.805L735.468 322.289C735.626 324.133 734.26 325.757 732.415 325.916Z" fill="#323141"/>
<path d="M733.181 334.822C735.025 334.663 736.392 333.039 736.233 331.194C736.074 329.35 734.45 327.983 732.605 328.142C730.761 328.301 729.394 329.925 729.553 331.77C729.712 333.614 731.336 334.981 733.181 334.822Z" fill="#323141"/>
<ellipse cx="673.403" cy="566.599" rx="118.4" ry="5.55002" fill="#B8D0E1"/>
<path d="M626.257 444.75L644.007 401.1L639.424 388.23L638.787 385.233C637.068 377.153 628.045 373.017 620.803 376.989V376.989C618.318 378.352 616.378 380.529 615.311 383.154L613.154 388.459C611.361 392.867 610.703 397.654 611.24 402.383L611.61 405.633C612.883 416.84 616.439 427.667 622.059 437.446L626.257 444.75Z" fill="#484848"/>
<path d="M778.794 468.885L760.303 512.226L764.666 525.172L765.252 528.18C766.833 536.287 775.784 540.576 783.094 536.728V536.728C785.601 535.408 787.577 533.265 788.689 530.658L790.937 525.39C792.804 521.013 793.543 516.238 793.087 511.501L792.773 508.245C791.691 497.018 788.319 486.132 782.866 476.258L778.794 468.885Z" fill="#484848"/>
<path d="M789.245 448.793C777.088 488.595 711.491 631.043 668.677 535.949C570.402 570.85 626.033 424.15 648.157 388.6C663.687 352.198 707.86 336.163 746.821 352.785C785.781 369.407 804.775 412.391 789.245 448.793Z" fill="#484848"/>
<path d="M772.061 445.34C760.893 471.517 734.363 466.107 704.268 453.267C674.172 440.427 651.907 425.02 663.075 398.843C674.243 372.667 707.693 361.856 737.789 374.696C767.885 387.535 783.229 419.164 772.061 445.34Z" fill="#F6E6D0"/>
<path d="M712.465 412.704C711.981 411.501 713.193 410.314 714.386 410.823L727.999 416.631C729.201 417.143 729.363 418.78 728.286 419.518V419.518C727.788 419.86 727.143 419.903 726.604 419.631L720.614 416.606L713.25 413.503C712.892 413.352 712.609 413.064 712.465 412.704V412.704Z" fill="#343137"/>
<circle cx="697.966" cy="396.866" r="6.39848" transform="rotate(23.1047 697.966 396.866)" fill="#343137"/>
<circle cx="697.969" cy="396.866" r="4.26565" transform="rotate(23.1047 697.969 396.866)" fill="#F5F5F5"/>
<circle cx="748.968" cy="418.626" r="6.39848" transform="rotate(23.1047 748.968 418.626)" fill="#343137"/>
<circle cx="748.971" cy="418.626" r="4.26565" transform="rotate(23.1047 748.971 418.626)" fill="#F5F5F5"/>
</svg>
