<svg width="47" height="50" viewBox="0 0 47 50" fill="none" xmlns="http://www.w3.org/2000/svg">
<path d="M0 0H38.2963C43.1032 0 47 3.89678 47 8.7037V41.2963C47 46.1032 43.1032 50 38.2963 50H0V0Z" fill="#50589D"/>
<path d="M13.6479 19.355C14.002 19.354 14.3451 19.5226 14.6178 19.8314L22.7411 29.1118L30.8795 20.1629C31.0345 19.9908 31.2129 19.8623 31.4044 19.7847C31.5958 19.7072 31.7966 19.6822 31.9952 19.711C32.1938 19.7399 32.3862 19.8221 32.5615 19.953C32.7367 20.0839 32.8913 20.2608 33.0164 20.4736C33.1423 20.6855 33.2363 20.9293 33.293 21.191C33.3498 21.4527 33.3681 21.7272 33.347 21.9986C33.3258 22.27 33.2657 22.5331 33.1699 22.7726C33.0742 23.0122 32.9448 23.2235 32.7891 23.3944L23.6959 33.3998C23.4247 33.7045 23.0845 33.8711 22.7335 33.8711C22.3825 33.8711 22.0423 33.7045 21.7711 33.3998L12.6779 23.0423C12.5245 22.8684 12.3976 22.6548 12.3046 22.4138C12.2116 22.1728 12.1544 21.909 12.1361 21.6377C12.1178 21.3664 12.1388 21.0928 12.198 20.8326C12.2571 20.5724 12.3533 20.3308 12.4809 20.1214C12.6219 19.8838 12.7997 19.6918 13.0015 19.5593C13.2033 19.4268 13.424 19.357 13.6479 19.355Z" fill="white"/>
</svg>
