<svg width="1148" height="605" viewBox="0 0 1148 605" fill="none" xmlns="http://www.w3.org/2000/svg">
<path d="M160.174 551.563C160.174 551.563 49.2234 423.78 141.41 285.435C223.205 162.687 318.57 171.078 388.537 220.89C418.336 242.105 504.253 223.505 577.379 98.604C677.103 -71.7271 1022.78 31.5793 959.753 293.637C929.252 420.455 1052.58 425.065 989.74 551.831L160.174 551.563Z" fill="#EBF3FA"/>
<path d="M699.697 398.896L709.932 400.579C710.747 400.713 711.468 401.055 712.036 401.532C712.634 402.035 713.062 402.686 713.245 403.396C713.303 403.613 713.336 403.836 713.343 404.061C713.352 404.266 713.34 404.472 713.306 404.68L689.759 547.392C689.455 549.231 687.539 550.473 685.448 550.225C685.381 550.216 685.312 550.207 685.245 550.196L675.01 548.513C674.943 548.502 674.875 548.489 674.808 548.476C672.748 548.041 671.331 546.251 671.636 544.411L695.183 401.7C695.217 401.492 695.272 401.293 695.346 401.101C695.426 400.891 695.528 400.69 695.653 400.503C696.055 399.888 696.669 399.409 697.397 399.125C698.089 398.855 698.881 398.762 699.697 398.896Z" fill="#FFB93E"/>
<path d="M702.313 471.306L689.698 547.762C689.428 549.404 687.538 550.483 685.448 550.226C685.381 550.217 685.313 550.208 685.245 550.197L675.01 548.514C674.943 548.503 674.875 548.489 674.808 548.477C672.746 548.051 671.304 546.424 671.575 544.782L682.64 477.715C688.153 477.522 695.943 476.238 702.313 471.306Z" fill="#FFA412"/>
<path d="M692.916 415.642L692.647 417.264L710.768 420.26L711.036 418.637L692.916 415.642Z" fill="#FFA412"/>
<path d="M691.997 421.104L691.729 422.726L709.852 425.712L710.119 424.09L691.997 421.104Z" fill="#FFA412"/>
<path d="M690.9 427.741L690.632 429.363L708.752 432.355L709.02 430.733L690.9 427.741Z" fill="#FFA412"/>
<path d="M689.256 437.744L688.988 439.366L707.111 442.356L707.378 440.734L689.256 437.744Z" fill="#FFA412"/>
<path d="M687.478 448.398L687.21 450.02L705.332 453.01L705.6 451.388L687.478 448.398Z" fill="#FFA412"/>
<path d="M684.773 464.8L684.506 466.422L702.628 469.408L702.895 467.786L684.773 464.8Z" fill="#FFA412"/>
<path d="M682.265 480.158L681.997 481.78L700.118 484.775L700.386 483.154L682.265 480.158Z" fill="#FFA412"/>
<path d="M680.014 493.774L679.746 495.396L697.869 498.386L698.137 496.764L680.014 493.774Z" fill="#FFA412"/>
<path d="M693.753 410.374L693.485 411.997L711.608 414.983L711.875 413.361L693.753 410.374Z" fill="#FFA412"/>
<path d="M694.325 406.881L694.058 408.503L712.18 411.493L712.448 409.871L694.325 406.881Z" fill="#FFA412"/>
<path d="M694.872 403.589L694.604 405.21L712.727 408.197L712.994 406.575L694.872 403.589Z" fill="#FFA412"/>
<path d="M695.017 402.714L713.14 405.694L713.307 404.681C713.342 404.473 713.353 404.267 713.345 404.062L695.347 401.102C695.273 401.295 695.218 401.493 695.184 401.701L695.017 402.714Z" fill="#FFA412"/>
<path d="M695.653 400.504L713.245 403.396C713.063 402.686 712.634 402.035 712.037 401.533L697.397 399.126C696.669 399.411 696.055 399.89 695.653 400.504Z" fill="#FFA412"/>
<path d="M718.264 398.896L728.499 400.579C729.314 400.713 730.035 401.055 730.604 401.532C731.202 402.035 731.629 402.686 731.812 403.396C731.87 403.613 731.903 403.836 731.911 404.061C731.919 404.266 731.907 404.472 731.873 404.68L708.327 547.392C708.023 549.231 706.106 550.473 704.016 550.225C703.948 550.216 703.88 550.207 703.812 550.196L693.578 548.513C693.51 548.502 693.443 548.489 693.376 548.476C691.315 548.041 689.9 546.251 690.203 544.411L713.75 401.7C713.784 401.492 713.84 401.293 713.914 401.101C713.993 400.891 714.096 400.69 714.221 400.503C714.622 399.888 715.236 399.409 715.965 399.125C716.656 398.855 717.449 398.762 718.264 398.896Z" fill="#FFB93E"/>
<path d="M720.881 471.306L708.265 547.762C707.995 549.404 706.106 550.483 704.016 550.226C703.948 550.217 703.88 550.208 703.813 550.197L693.578 548.514C693.51 548.503 693.443 548.489 693.376 548.477C691.314 548.051 689.871 546.424 690.142 544.782L701.208 477.715C706.72 477.522 714.51 476.238 720.881 471.306Z" fill="#FFA412"/>
<path d="M711.483 415.642L711.215 417.264L729.335 420.26L729.604 418.637L711.483 415.642Z" fill="#FFA412"/>
<path d="M710.584 421.121L710.316 422.743L728.439 425.73L728.706 424.107L710.584 421.121Z" fill="#FFA412"/>
<path d="M709.467 427.742L709.199 429.364L727.32 432.356L727.588 430.734L709.467 427.742Z" fill="#FFA412"/>
<path d="M707.803 437.725L707.535 439.347L725.658 442.337L725.925 440.715L707.803 437.725Z" fill="#FFA412"/>
<path d="M706.043 448.398L705.775 450.02L723.898 453.01L724.165 451.388L706.043 448.398Z" fill="#FFA412"/>
<path d="M703.339 464.867L703.071 466.489L721.192 469.48L721.46 467.859L703.339 464.867Z" fill="#FFA412"/>
<path d="M700.814 480.072L700.547 481.694L718.67 484.684L718.937 483.062L700.814 480.072Z" fill="#FFA412"/>
<path d="M698.562 493.754L698.294 495.376L716.416 498.366L716.684 496.744L698.562 493.754Z" fill="#FFA412"/>
<path d="M712.322 410.44L712.055 412.062L730.175 415.054L730.443 413.432L712.322 410.44Z" fill="#FFA412"/>
<path d="M712.922 406.951L712.654 408.573L730.777 411.559L731.044 409.937L712.922 406.951Z" fill="#FFA412"/>
<path d="M713.438 403.588L713.171 405.21L731.294 408.197L731.561 406.575L713.438 403.588Z" fill="#FFA412"/>
<path d="M713.582 402.714L731.706 405.694L731.873 404.681C731.907 404.473 731.919 404.267 731.91 404.062L713.912 401.102C713.838 401.295 713.783 401.493 713.749 401.701L713.582 402.714Z" fill="#FFA412"/>
<path d="M714.22 400.504L731.812 403.396C731.629 402.686 731.201 402.035 730.603 401.533L715.964 399.126C715.236 399.411 714.621 399.89 714.22 400.504Z" fill="#FFA412"/>
<path d="M650.361 535.903L650.343 546.275C650.34 547.101 650.119 547.868 649.738 548.506C649.339 549.176 648.765 549.703 648.093 549.997C647.888 550.09 647.673 550.158 647.452 550.201C647.251 550.243 647.046 550.265 646.835 550.264L502.195 549.921C500.33 549.917 498.797 548.224 498.706 546.121C498.704 546.052 498.702 545.984 498.702 545.915L498.721 535.543C498.721 535.475 498.723 535.406 498.726 535.337C498.824 533.234 500.363 531.549 502.228 531.554L646.869 531.897C647.079 531.898 647.285 531.92 647.486 531.962C647.706 532.007 647.921 532.077 648.126 532.17C648.796 532.467 649.368 532.996 649.765 533.669C650.143 534.309 650.362 535.076 650.361 535.903Z" fill="#FFB93E"/>
<path d="M579.309 550.103L501.819 549.919C500.155 549.915 498.787 548.223 498.706 546.12C498.704 546.051 498.702 545.983 498.702 545.914L498.721 535.542C498.721 535.474 498.723 535.405 498.726 535.336C498.814 533.233 500.189 531.548 501.853 531.552L569.827 531.713C570.902 537.123 573.419 544.607 579.309 550.103Z" fill="#FFA412"/>
<path d="M631.153 531.877L631.109 550.244L632.753 550.248L632.797 531.881L631.153 531.877Z" fill="#FFA412"/>
<path d="M625.589 531.865L625.545 550.232L627.189 550.236L627.233 531.869L625.589 531.865Z" fill="#FFA412"/>
<path d="M618.867 531.802L618.819 550.169L620.463 550.173L620.511 531.806L618.867 531.802Z" fill="#FFA412"/>
<path d="M608.632 531.777L608.59 550.143L610.234 550.147L610.276 531.78L608.632 531.777Z" fill="#FFA412"/>
<path d="M597.87 531.798L597.826 550.165L599.47 550.169L599.514 531.802L597.87 531.798Z" fill="#FFA412"/>
<path d="M581.289 531.759L581.245 550.126L582.889 550.13L582.933 531.763L581.289 531.759Z" fill="#FFA412"/>
<path d="M565.763 531.722L565.719 550.089L567.363 550.093L567.407 531.726L565.763 531.722Z" fill="#FFA412"/>
<path d="M551.873 531.661L551.825 550.028L553.469 550.032L553.517 531.666L551.873 531.661Z" fill="#FFA412"/>
<path d="M636.451 531.891L636.407 550.258L638.051 550.262L638.095 531.895L636.451 531.891Z" fill="#FFA412"/>
<path d="M639.924 531.877L639.886 550.244L641.53 550.248L641.568 531.881L639.924 531.877Z" fill="#FFA412"/>
<path d="M643.33 531.905L643.286 550.272L644.93 550.276L644.974 531.909L643.33 531.905Z" fill="#FFA412"/>
<path d="M645.843 531.894L645.81 550.261L646.837 550.264C647.048 550.264 647.252 550.243 647.454 550.201L647.487 531.962C647.286 531.919 647.081 531.897 646.87 531.897L645.843 531.894Z" fill="#FFA412"/>
<path d="M648.126 532.169L648.094 549.997C648.766 549.702 649.34 549.176 649.739 548.505L649.766 533.669C649.369 532.996 648.797 532.467 648.126 532.169Z" fill="#FFA412"/>
<path d="M634.93 517.5L634.911 527.872C634.91 528.699 634.688 529.465 634.308 530.103C633.908 530.774 633.335 531.3 632.663 531.595C632.458 531.687 632.243 531.755 632.022 531.799C631.821 531.84 631.616 531.862 631.405 531.861L486.764 531.518C484.899 531.514 483.366 529.822 483.275 527.718C483.273 527.649 483.271 527.581 483.271 527.513L483.291 517.14C483.291 517.072 483.293 517.003 483.295 516.935C483.394 514.831 484.932 513.147 486.798 513.151L631.438 513.494C631.531 513.495 631.624 513.499 631.714 513.508C631.753 513.511 631.794 513.515 631.833 513.522C631.875 513.526 631.919 513.533 631.962 513.542C631.993 513.546 632.024 513.553 632.055 513.56C632.276 513.605 632.49 513.674 632.695 513.767C632.725 513.78 632.755 513.794 632.786 513.809C632.814 513.823 632.846 513.838 632.874 513.854C632.933 513.885 632.992 513.918 633.05 513.951C633.083 513.972 633.118 513.994 633.151 514.016C633.182 514.036 633.211 514.054 633.24 514.076C633.296 514.114 633.35 514.154 633.404 514.196C633.466 514.245 633.525 514.296 633.583 514.349C633.629 514.389 633.674 514.431 633.719 514.475C633.721 514.477 633.725 514.48 633.727 514.484C633.756 514.513 633.787 514.544 633.815 514.575C633.904 514.668 633.989 514.77 634.068 514.874C634.093 514.905 634.116 514.936 634.138 514.967C634.161 514.998 634.182 515.031 634.205 515.065C634.249 515.131 634.294 515.2 634.334 515.268C634.713 515.907 634.932 516.674 634.93 517.5Z" fill="#FFB93E"/>
<path d="M563.878 531.701L486.388 531.517C484.723 531.513 483.356 529.822 483.275 527.718C483.273 527.649 483.271 527.581 483.271 527.513L483.291 517.14C483.291 517.072 483.293 517.003 483.295 516.935C483.384 514.831 484.757 513.146 486.422 513.15L554.394 513.312C554.424 513.461 554.455 513.612 554.488 513.764C555.613 519.133 558.148 526.358 563.878 531.701Z" fill="#FFA412"/>
<path d="M615.666 513.427L615.624 531.794L617.268 531.797L617.311 513.431L615.666 513.427Z" fill="#FFA412"/>
<path d="M610.103 513.413L610.061 531.78L611.704 531.784L611.746 513.417L610.103 513.413Z" fill="#FFA412"/>
<path d="M603.483 513.443L603.438 531.81L605.082 531.814L605.126 513.447L603.483 513.443Z" fill="#FFA412"/>
<path d="M593.255 513.419L593.211 531.786L594.854 531.79L594.898 513.423L593.255 513.419Z" fill="#FFA412"/>
<path d="M582.414 513.376L582.375 531.742L584.019 531.746L584.057 513.379L582.414 513.376Z" fill="#FFA412"/>
<path d="M565.829 513.326L565.781 531.693L567.425 531.697L567.472 513.33L565.829 513.326Z" fill="#FFA412"/>
<path d="M550.33 513.318L550.286 531.684L551.93 531.688L551.974 513.321L550.33 513.318Z" fill="#FFA412"/>
<path d="M536.444 513.267L536.405 531.634L538.049 531.637L538.088 513.27L536.444 513.267Z" fill="#FFA412"/>
<path d="M620.963 513.439L620.921 531.806L622.565 531.81L622.607 513.443L620.963 513.439Z" fill="#FFA412"/>
<path d="M624.518 513.494L624.474 531.861L626.117 531.865L626.161 513.498L624.518 513.494Z" fill="#FFA412"/>
<path d="M627.897 513.502L627.853 531.869L629.496 531.873L629.54 513.506L627.897 513.502Z" fill="#FFA412"/>
<path d="M630.409 513.49L630.376 531.858L631.403 531.86C631.614 531.86 631.819 531.839 632.021 531.797L632.054 513.558C631.853 513.516 631.648 513.493 631.437 513.493L630.409 513.49Z" fill="#FFA412"/>
<path d="M632.694 513.765L632.662 531.592C633.333 531.298 633.907 530.771 634.307 530.101L634.334 515.265C633.937 514.592 633.365 514.063 632.694 513.765Z" fill="#FFA412"/>
<path d="M642.435 499.603L642.417 509.975C642.416 510.802 642.193 511.568 641.813 512.205C641.413 512.876 640.84 513.403 640.168 513.697C639.963 513.789 639.748 513.858 639.528 513.902C639.326 513.943 639.121 513.965 638.91 513.964L494.269 513.621C493.689 513.62 493.14 513.455 492.657 513.164C491.634 512.549 490.905 511.372 490.792 509.999C490.786 509.94 490.782 509.88 490.781 509.821C490.779 509.753 490.777 509.684 490.777 509.615L490.796 499.243C490.796 499.175 490.798 499.106 490.8 499.037C490.899 496.934 492.438 495.25 494.303 495.254L638.943 495.597C639.154 495.598 639.359 495.621 639.56 495.662C639.781 495.707 639.995 495.776 640.2 495.87C640.871 496.167 641.443 496.697 641.84 497.37C642.218 498.009 642.437 498.777 642.435 499.603Z" fill="#FFB93E"/>
<path d="M571.384 513.804L493.894 513.62C493.376 513.618 492.887 513.454 492.456 513.164C491.542 512.549 490.892 511.372 490.792 509.999C490.786 509.94 490.782 509.88 490.781 509.821C490.779 509.753 490.777 509.684 490.777 509.615L490.796 499.243C490.796 499.175 490.798 499.106 490.8 499.037C490.889 496.934 492.264 495.249 493.928 495.253L561.901 495.414C562.948 500.676 565.357 507.9 570.909 513.35C571.065 513.502 571.223 513.653 571.384 513.804Z" fill="#FFA412"/>
<path d="M645.936 481.245L645.917 491.617C645.916 492.443 645.694 493.21 645.313 493.847C644.914 494.518 644.34 495.045 643.668 495.339C643.463 495.432 643.248 495.499 643.028 495.543C642.826 495.585 642.621 495.606 642.41 495.606L497.77 495.262C495.905 495.258 494.372 493.566 494.281 491.463C494.279 491.394 494.277 491.325 494.277 491.257L494.296 480.885C494.296 480.816 494.298 480.748 494.301 480.679C494.391 478.732 495.715 477.147 497.389 476.924C497.525 476.904 497.662 476.896 497.804 476.896L642.444 477.239C642.655 477.239 642.86 477.262 643.061 477.304C643.281 477.349 643.496 477.418 643.701 477.511C644.372 477.809 644.944 478.338 645.341 479.011C645.718 479.651 645.938 480.418 645.936 481.245Z" fill="#FFB93E"/>
<path d="M574.884 495.446L497.394 495.262C495.73 495.258 494.362 493.566 494.281 491.463C494.279 491.394 494.277 491.325 494.277 491.257L494.296 480.884C494.296 480.816 494.298 480.748 494.301 480.679C494.381 478.734 495.565 477.146 497.059 476.923C497.179 476.903 497.303 476.895 497.428 476.895L565.401 477.056C565.403 477.065 565.405 477.076 565.407 477.085C566.486 482.49 569.003 489.958 574.884 495.446Z" fill="#FFA412"/>
<path d="M635.334 462.882L635.315 473.255C635.314 474.081 635.092 474.847 634.712 475.485C634.312 476.156 633.739 476.682 633.067 476.977C632.861 477.069 632.647 477.137 632.426 477.181C632.358 477.194 632.291 477.207 632.223 477.216C632.186 477.22 632.147 477.225 632.109 477.228C632.072 477.233 632.033 477.235 631.994 477.238C631.932 477.242 631.871 477.244 631.808 477.244L487.168 476.901C485.303 476.896 483.77 475.204 483.679 473.1C483.677 473.032 483.675 472.963 483.676 472.895L483.694 462.523C483.694 462.454 483.697 462.385 483.699 462.317C483.701 462.259 483.705 462.204 483.709 462.149C483.851 460.457 484.929 459.063 486.338 458.655C486.373 458.644 486.41 458.635 486.445 458.626C486.689 458.565 486.942 458.533 487.201 458.533L631.842 458.877C631.948 458.877 632.053 458.884 632.155 458.893C632.202 458.9 632.248 458.904 632.295 458.911H632.296C632.35 458.92 632.404 458.931 632.458 458.942C632.679 458.987 632.893 459.056 633.098 459.149C633.769 459.447 634.341 459.976 634.738 460.649C635.116 461.288 635.336 462.056 635.334 462.882Z" fill="#FFB93E"/>
<path d="M564.282 477.082L486.793 476.899C485.129 476.894 483.76 475.203 483.679 473.099C483.677 473.031 483.675 472.962 483.676 472.894L483.694 462.522C483.694 462.453 483.697 462.384 483.699 462.316C483.701 462.258 483.705 462.203 483.709 462.148C483.837 460.418 484.841 459.002 486.139 458.629C486.184 458.614 486.228 458.603 486.273 458.594C486.452 458.553 486.636 458.531 486.826 458.532L554.799 458.693C554.807 458.737 554.817 458.779 554.826 458.823C555.914 464.213 558.43 471.604 564.251 477.054C564.261 477.063 564.272 477.074 564.282 477.082Z" fill="#FFA412"/>
<path d="M635.063 444.644L635.044 455.016C635.043 455.842 634.821 456.609 634.441 457.246C634.041 457.918 633.468 458.444 632.795 458.739C632.636 458.811 632.466 458.868 632.296 458.91H632.292C632.246 458.922 632.202 458.934 632.155 458.942C631.954 458.984 631.749 459.006 631.537 459.005L486.897 458.662C486.744 458.662 486.591 458.651 486.444 458.625C486.386 458.619 486.328 458.608 486.272 458.594C484.7 458.266 483.488 456.725 483.408 454.862C483.406 454.793 483.404 454.725 483.404 454.656L483.423 444.284C483.423 444.216 483.425 444.147 483.427 444.079C483.526 441.975 485.065 440.29 486.93 440.295L631.571 440.638C631.664 440.639 631.756 440.643 631.847 440.652C631.886 440.656 631.927 440.661 631.965 440.665C632.008 440.67 632.052 440.676 632.095 440.686C632.126 440.69 632.157 440.697 632.188 440.704C632.408 440.748 632.623 440.817 632.828 440.911C632.858 440.924 632.888 440.938 632.919 440.953C632.947 440.966 632.978 440.981 633.008 440.997C633.067 441.029 633.125 441.062 633.183 441.095C633.247 441.136 633.311 441.175 633.373 441.219C633.429 441.257 633.482 441.297 633.537 441.339C633.598 441.388 633.658 441.439 633.716 441.492C633.762 441.532 633.806 441.574 633.852 441.619C633.853 441.62 633.857 441.623 633.859 441.628C633.888 441.656 633.919 441.688 633.948 441.718C634.037 441.812 634.122 441.913 634.201 442.017C634.226 442.048 634.249 442.08 634.27 442.11C634.294 442.143 634.314 442.174 634.337 442.208C634.382 442.274 634.426 442.343 634.467 442.411C634.846 443.05 635.065 443.817 635.063 444.644Z" fill="#FFB93E"/>
<path d="M564.011 458.846L486.521 458.663C486.459 458.662 486.398 458.659 486.337 458.655C486.27 458.651 486.204 458.642 486.138 458.63C484.649 458.392 483.482 456.803 483.408 454.863C483.406 454.794 483.404 454.726 483.404 454.657L483.423 444.285C483.423 444.216 483.425 444.148 483.427 444.08C483.516 441.976 484.889 440.291 486.555 440.295L554.526 440.456C554.557 440.606 554.588 440.757 554.62 440.909C555.737 446.233 558.241 453.382 563.872 458.715C563.918 458.76 563.965 458.802 564.011 458.846Z" fill="#FFA412"/>
<path d="M642.57 426.747L642.551 437.12C642.549 437.946 642.327 438.712 641.947 439.35C641.548 440.021 640.974 440.548 640.302 440.842C640.096 440.934 639.882 441.003 639.661 441.046C639.46 441.088 639.255 441.11 639.044 441.109L494.404 440.766C493.822 440.764 493.274 440.599 492.791 440.309C491.768 439.694 491.04 438.517 490.926 437.144C490.92 437.085 490.916 437.025 490.915 436.965C490.913 436.897 490.911 436.829 490.911 436.76L490.93 426.388C490.93 426.32 490.932 426.25 490.934 426.182C491.033 424.079 492.572 422.394 494.437 422.399L639.077 422.742C639.289 422.742 639.493 422.765 639.695 422.807C639.915 422.852 640.13 422.921 640.335 423.014C641.005 423.312 641.577 423.841 641.974 424.514C642.352 425.153 642.571 425.921 642.57 426.747Z" fill="#FFB93E"/>
<path d="M571.517 440.949L494.028 440.765C493.509 440.764 493.021 440.599 492.59 440.308C491.676 439.694 491.026 438.518 490.926 437.145C490.92 437.085 490.916 437.026 490.915 436.966C490.913 436.898 490.911 436.829 490.911 436.76L490.93 426.388C490.93 426.32 490.932 426.251 490.934 426.183C491.024 424.079 492.398 422.394 494.062 422.398L562.035 422.559C563.082 427.821 565.491 435.045 571.043 440.495C571.199 440.648 571.357 440.799 571.517 440.949Z" fill="#FFA412"/>
<path d="M654.423 408.409L654.405 418.781C654.403 419.607 654.181 420.374 653.801 421.012C653.401 421.683 652.828 422.209 652.156 422.504C651.95 422.596 651.735 422.664 651.515 422.708C651.314 422.749 651.108 422.771 650.897 422.77L506.257 422.427C504.392 422.423 502.859 420.731 502.768 418.627C502.766 418.559 502.765 418.49 502.765 418.421L502.784 408.049C502.784 407.981 502.785 407.912 502.788 407.844C502.878 405.899 504.202 404.311 505.877 404.088C506.012 404.069 506.151 404.06 506.291 404.06L650.931 404.404C651.142 404.404 651.347 404.427 651.549 404.469C651.769 404.514 651.983 404.583 652.188 404.676C652.859 404.974 653.431 405.503 653.828 406.176C654.205 406.815 654.424 407.583 654.423 408.409Z" fill="#FFB93E"/>
<path d="M583.371 422.611L505.881 422.427C504.217 422.423 502.848 420.731 502.767 418.627C502.765 418.559 502.764 418.49 502.764 418.422L502.783 408.05C502.783 407.981 502.784 407.912 502.787 407.844C502.868 405.9 504.051 404.311 505.545 404.087C505.665 404.068 505.789 404.06 505.915 404.06L573.888 404.221C573.89 404.23 573.892 404.241 573.894 404.249C574.973 409.657 577.49 417.124 583.371 422.611Z" fill="#FFA412"/>
<path d="M635.467 390.026L635.449 400.398C635.447 401.225 635.225 401.991 634.844 402.629C634.445 403.3 633.872 403.826 633.199 404.121C632.994 404.213 632.78 404.281 632.559 404.325C632.492 404.338 632.423 404.351 632.356 404.359C632.302 404.369 632.248 404.372 632.193 404.377C632.166 404.379 632.139 404.381 632.112 404.384C632.056 404.385 632 404.388 631.942 404.388L487.301 404.044C485.436 404.04 483.903 402.348 483.813 400.244C483.81 400.176 483.809 400.107 483.809 400.038L483.827 389.666C483.828 389.598 483.83 389.529 483.832 389.461C483.931 387.358 485.47 385.673 487.335 385.677L631.975 386.021C632.037 386.021 632.099 386.023 632.161 386.028C632.308 386.037 632.451 386.057 632.592 386.086C632.813 386.131 633.027 386.2 633.232 386.293C633.336 386.34 633.439 386.391 633.535 386.449C633.597 386.484 633.657 386.52 633.715 386.56C633.721 386.562 633.728 386.567 633.735 386.573C633.794 386.613 633.852 386.655 633.91 386.699C633.922 386.706 633.931 386.715 633.939 386.722C633.993 386.761 634.045 386.806 634.095 386.852C634.219 386.959 634.335 387.074 634.443 387.2C634.477 387.238 634.511 387.277 634.542 387.318C634.547 387.324 634.553 387.331 634.559 387.34C634.581 387.364 634.6 387.388 634.619 387.415C634.623 387.42 634.627 387.426 634.63 387.431C634.665 387.477 634.7 387.526 634.732 387.577C634.781 387.648 634.827 387.718 634.871 387.793C635.25 388.433 635.469 389.2 635.467 390.026Z" fill="#FFB93E"/>
<path d="M564.415 404.227L486.925 404.043C485.262 404.039 483.893 402.347 483.813 400.244C483.81 400.175 483.809 400.106 483.809 400.038L483.827 389.666C483.828 389.597 483.83 389.529 483.832 389.46C483.921 387.357 485.296 385.672 486.96 385.675L554.933 385.837C554.96 385.976 554.988 386.118 555.021 386.261C556.139 391.623 558.668 398.845 564.384 404.198C564.394 404.206 564.405 404.218 564.415 404.227Z" fill="#FFA412"/>
<path d="M646.133 372.109L646.115 382.481C646.113 383.307 645.891 384.074 645.51 384.712C645.111 385.382 644.538 385.909 643.866 386.204C643.66 386.296 643.446 386.363 643.225 386.407C643.024 386.449 642.819 386.471 642.608 386.47L497.967 386.127C497.406 386.126 496.874 385.972 496.405 385.699C495.351 385.093 494.599 383.891 494.488 382.49C494.484 382.437 494.48 382.382 494.479 382.327C494.476 382.259 494.475 382.19 494.475 382.121L494.494 371.749C494.494 371.681 494.496 371.612 494.498 371.544C494.588 369.597 495.913 368.011 497.587 367.788C497.722 367.768 497.859 367.76 498.001 367.76L642.642 368.104C642.852 368.104 643.058 368.127 643.259 368.169C643.479 368.214 643.693 368.283 643.898 368.376C644.569 368.674 645.141 369.203 645.538 369.876C645.916 370.515 646.135 371.282 646.133 372.109Z" fill="#FFB93E"/>
<path d="M575.081 386.31L497.591 386.126C497.091 386.125 496.617 385.97 496.198 385.698C495.257 385.092 494.587 383.891 494.488 382.49C494.484 382.437 494.48 382.382 494.479 382.326C494.476 382.258 494.475 382.189 494.475 382.121L494.494 371.749C494.494 371.68 494.496 371.611 494.498 371.543C494.579 369.599 495.762 368.01 497.256 367.786C497.376 367.767 497.5 367.758 497.626 367.758L565.598 367.92C565.601 367.929 565.602 367.94 565.605 367.948C566.655 373.217 569.074 380.441 574.637 385.884C574.782 386.028 574.931 386.169 575.081 386.31Z" fill="#FFA412"/>
<path d="M635.534 353.745L635.515 364.118C635.513 364.944 635.291 365.71 634.911 366.347C634.511 367.019 633.938 367.545 633.266 367.84C633.061 367.932 632.846 368 632.625 368.044C632.558 368.057 632.49 368.07 632.422 368.079C632.385 368.083 632.347 368.087 632.308 368.091C632.271 368.096 632.233 368.098 632.194 368.1C632.132 368.105 632.07 368.107 632.008 368.107L487.367 367.763C485.502 367.759 483.969 366.067 483.879 363.964C483.876 363.895 483.875 363.826 483.875 363.758L483.894 353.385C483.894 353.317 483.896 353.248 483.898 353.18C483.997 351.076 485.536 349.392 487.401 349.396L632.041 349.739C632.252 349.74 632.457 349.763 632.658 349.805C632.879 349.85 633.093 349.919 633.298 350.012C633.969 350.31 634.541 350.839 634.938 351.512C635.316 352.152 635.535 352.919 635.534 353.745Z" fill="#FFB93E"/>
<path d="M564.482 367.946L486.992 367.763C485.328 367.758 483.96 366.067 483.879 363.964C483.876 363.895 483.875 363.826 483.875 363.758L483.894 353.385C483.894 353.317 483.896 353.248 483.898 353.18C483.987 351.076 485.362 349.391 487.026 349.395L554.999 349.556C556.073 354.958 558.582 362.423 564.45 367.917C564.46 367.926 564.472 367.937 564.482 367.946Z" fill="#FFA412"/>
<path d="M623.229 495.578L623.185 513.945L624.828 513.949L624.872 495.582L623.229 495.578Z" fill="#FFA412"/>
<path d="M617.638 495.546L617.6 513.913L619.244 513.916L619.282 495.55L617.638 495.546Z" fill="#FFA412"/>
<path d="M610.945 495.514L610.906 513.88L612.55 513.884L612.589 495.517L610.945 495.514Z" fill="#FFA412"/>
<path d="M600.762 495.525L600.718 513.892L602.362 513.896L602.406 495.529L600.762 495.525Z" fill="#FFA412"/>
<path d="M589.945 495.499L589.901 513.866L591.545 513.87L591.589 495.503L589.945 495.499Z" fill="#FFA412"/>
<path d="M573.362 495.459L573.318 513.826L574.962 513.83L575.006 495.463L573.362 495.459Z" fill="#FFA412"/>
<path d="M557.813 495.404L557.774 513.771L559.418 513.774L559.457 495.408L557.813 495.404Z" fill="#FFA412"/>
<path d="M543.975 495.391L543.931 513.758L545.574 513.762L545.618 495.395L543.975 495.391Z" fill="#FFA412"/>
<path d="M628.526 495.591L628.481 513.957L630.125 513.961L630.169 495.595L628.526 495.591Z" fill="#FFA412"/>
<path d="M632 495.58L631.961 513.947L633.604 513.95L633.643 495.584L632 495.58Z" fill="#FFA412"/>
<path d="M635.404 495.606L635.36 513.973L637.004 513.977L637.048 495.61L635.404 495.606Z" fill="#FFA412"/>
<path d="M637.917 495.596L637.884 513.963L638.911 513.966C639.122 513.966 639.327 513.945 639.528 513.903L639.561 495.664C639.36 495.621 639.155 495.599 638.944 495.598L637.917 495.596Z" fill="#FFA412"/>
<path d="M640.201 495.871L640.169 513.699C640.84 513.404 641.415 512.878 641.814 512.207L641.841 497.371C641.443 496.698 640.872 496.169 640.201 495.871Z" fill="#FFA412"/>
<path d="M576.861 477.1L576.817 495.467L578.461 495.471L578.505 477.104L576.861 477.1Z" fill="#FFA412"/>
<path d="M561.284 477.019L561.242 495.386L562.886 495.39L562.928 477.023L561.284 477.019Z" fill="#FFA412"/>
<path d="M547.473 477.031L547.429 495.398L549.073 495.402L549.117 477.035L547.473 477.031Z" fill="#FFA412"/>
<path d="M633.605 495.586L633.639 477.219L632.197 477.216C632.274 477.206 632.35 477.196 632.426 477.18L632.459 458.942C632.359 458.92 632.257 458.904 632.155 458.893L632.187 441.095L632.828 441.097L632.795 458.74C633.467 458.446 634.041 457.919 634.441 457.249L634.468 442.412C634.14 441.857 633.688 441.407 633.165 441.097L633.74 441.099L633.773 422.732L632.129 422.728L632.097 440.691C631.924 440.66 631.751 440.641 631.571 440.64L630.544 440.637L630.511 459.005L630.815 459.005L630.782 477.241L631.809 477.244C631.872 477.244 631.934 477.238 631.996 477.234L631.962 495.583L633.605 495.586Z" fill="#FFA412"/>
<path d="M635.524 477.24L635.479 495.607L637.123 495.611L637.167 477.244L635.524 477.24Z" fill="#FFA412"/>
<path d="M638.873 477.221L638.825 495.588L640.469 495.592L640.517 477.225L638.873 477.221Z" fill="#FFA412"/>
<path d="M641.415 477.237L641.382 495.604L642.409 495.607C642.62 495.607 642.824 495.585 643.026 495.543L643.059 477.305C642.858 477.262 642.653 477.24 642.442 477.24L641.415 477.237Z" fill="#FFA412"/>
<path d="M643.699 477.512L643.667 495.339C644.339 495.045 644.913 494.518 645.312 493.848L645.34 479.012C644.942 478.339 644.37 477.809 643.699 477.512Z" fill="#FFA412"/>
<path d="M617.706 477.21L617.74 458.843L617.436 458.843L617.47 440.607L615.825 440.603L615.792 458.97L616.096 458.971L616.063 477.177L614.459 477.173L614.426 495.54L616.07 495.544L616.103 477.206L617.706 477.21Z" fill="#FFA412"/>
<path d="M605.503 458.814L605.199 458.813L605.232 440.578L603.588 440.574L603.555 458.941L603.859 458.941L603.826 477.177L604.231 477.178L604.198 495.516L605.842 495.52L605.875 477.153L605.47 477.153L605.503 458.814Z" fill="#FFA412"/>
<path d="M633.099 459.149L633.066 476.977C633.739 476.682 634.312 476.155 634.712 475.485L634.739 460.649C634.341 459.976 633.77 459.447 633.099 459.149Z" fill="#FFA412"/>
<path d="M595.004 440.554L593.36 440.55L593.327 458.916L593.631 458.917L593.598 477.124L593.416 477.123L593.383 495.49L595.026 495.494L595.06 477.156L595.242 477.157L595.275 458.79L594.971 458.79L595.004 440.554Z" fill="#FFA412"/>
<path d="M584.187 440.529L582.543 440.525L582.51 458.891L582.814 458.892L582.781 477.128L584.425 477.132L584.458 458.765L584.154 458.764L584.187 440.529Z" fill="#FFA412"/>
<path d="M567.607 440.488L565.962 440.485L565.929 458.851L566.233 458.852L566.2 477.087L567.844 477.091L567.877 458.724L567.573 458.724L567.607 440.488Z" fill="#FFA412"/>
<path d="M552.08 440.451L550.437 440.448L550.403 458.814L550.707 458.815L550.674 477.051L552.318 477.055L552.351 458.688L552.047 458.687L552.08 440.451Z" fill="#FFA412"/>
<path d="M538.218 440.418L536.574 440.414L536.54 458.782L536.845 458.782L536.811 477.018L538.455 477.022L538.489 458.655L538.184 458.654L538.218 440.418Z" fill="#FFA412"/>
<path d="M622.767 440.62L621.123 440.617L621.09 458.983L621.394 458.984L621.36 477.19H621.133L621.1 495.557L622.743 495.561L622.777 477.223L623.005 477.224L623.038 458.857L622.734 458.856L622.767 440.62Z" fill="#FFA412"/>
<path d="M626.266 440.628L624.944 440.624L624.976 422.711L623.333 422.707L623.299 441.074L624.622 441.077L624.589 458.991L624.893 458.991L624.86 477.227L626.504 477.231L626.537 458.864L626.233 458.863L626.266 440.628Z" fill="#FFA412"/>
<path d="M617.796 422.708L617.752 441.075L619.395 441.079L619.439 422.712L617.796 422.708Z" fill="#FFA412"/>
<path d="M611.062 440.592L610.261 440.59L610.229 458.957L610.532 458.958L610.499 477.193L612.143 477.197L612.176 458.83L611.872 458.83L611.905 441.047L612.705 441.048L612.739 422.682L611.095 422.678L611.062 440.592Z" fill="#FFA412"/>
<path d="M600.846 422.63L600.798 440.997L602.442 441.001L602.49 422.634L600.846 422.63Z" fill="#FFA412"/>
<path d="M590.078 422.642L590.034 441.009L591.679 441.013L591.723 422.646L590.078 422.642Z" fill="#FFA412"/>
<path d="M573.444 422.563L573.401 440.93L575.045 440.934L575.088 422.567L573.444 422.563Z" fill="#FFA412"/>
<path d="M557.927 422.535L557.889 440.902L559.533 440.905L559.571 422.538L557.927 422.535Z" fill="#FFA412"/>
<path d="M544.108 422.533L544.063 440.9L545.707 440.904L545.751 422.536L544.108 422.533Z" fill="#FFA412"/>
<path d="M628.596 440.634L628.001 440.632L627.967 458.998L628.272 458.999L628.239 477.207L626.697 477.203L626.664 495.569L628.308 495.573L628.341 477.235L629.883 477.239L629.916 458.872L629.612 458.871L629.644 441.089L630.239 441.09L630.273 422.724L628.629 422.719L628.596 440.634Z" fill="#FFA412"/>
<path d="M635.537 422.749L635.493 441.117L637.137 441.12L637.181 422.753L635.537 422.749Z" fill="#FFA412"/>
<path d="M639.661 441.048L639.695 422.809C639.493 422.767 639.288 422.744 639.077 422.744L638.05 422.741L638.017 441.108L639.044 441.111C639.255 441.111 639.46 441.09 639.661 441.048Z" fill="#FFA412"/>
<path d="M641.948 439.352L641.975 424.516C641.578 423.843 641.006 423.314 640.335 423.016L640.303 440.844C640.975 440.55 641.547 440.023 641.948 439.352Z" fill="#FFA412"/>
<path d="M635.216 404.381L635.172 422.748L636.816 422.752L636.86 404.385L635.216 404.381Z" fill="#FFA412"/>
<path d="M612.748 404.328L612.704 422.694L614.348 422.698L614.392 404.332L612.748 404.328Z" fill="#FFA412"/>
<path d="M601.933 404.303L601.889 422.67L603.533 422.674L603.577 404.306L601.933 404.303Z" fill="#FFA412"/>
<path d="M585.35 404.263L585.306 422.63L586.949 422.634L586.993 404.267L585.35 404.263Z" fill="#FFA412"/>
<path d="M569.823 404.225L569.779 422.593L571.423 422.597L571.467 404.229L569.823 404.225Z" fill="#FFA412"/>
<path d="M555.936 404.177L555.897 422.544L557.541 422.548L557.58 404.181L555.936 404.177Z" fill="#FFA412"/>
<path d="M640.513 404.394L640.469 422.761L642.113 422.765L642.157 404.398L640.513 404.394Z" fill="#FFA412"/>
<path d="M644.012 404.402L643.968 422.769L645.611 422.773L645.655 404.406L644.012 404.402Z" fill="#FFA412"/>
<path d="M647.333 404.371L647.291 422.738L648.934 422.742L648.977 404.375L647.333 404.371Z" fill="#FFA412"/>
<path d="M649.904 404.403L649.871 422.769L650.898 422.772C651.109 422.772 651.314 422.751 651.515 422.709L651.549 404.47C651.348 404.428 651.142 404.405 650.931 404.405L649.904 404.403Z" fill="#FFA412"/>
<path d="M652.188 404.678L652.156 422.506C652.828 422.211 653.402 421.684 653.801 421.014L653.828 406.178C653.431 405.505 652.859 404.975 652.188 404.678Z" fill="#FFA412"/>
<path d="M616.196 404.352L617.84 404.356L617.873 385.989L616.269 385.985L616.302 368.071L617.906 368.075L617.939 349.708L616.295 349.704L616.262 368.042L614.659 368.038L614.625 386.405L616.229 386.409L616.196 404.352Z" fill="#FFA412"/>
<path d="M610.643 385.949L610.596 404.315L612.24 404.319L612.287 385.953L610.643 385.949Z" fill="#FFA412"/>
<path d="M582.976 385.918L582.932 404.286L584.576 404.289L584.62 385.922L582.976 385.918Z" fill="#FFA412"/>
<path d="M566.341 385.842L566.299 404.209L567.942 404.213L567.985 385.846L566.341 385.842Z" fill="#FFA412"/>
<path d="M550.867 385.843L550.823 404.209L552.467 404.213L552.511 385.847L550.867 385.843Z" fill="#FFA412"/>
<path d="M536.954 385.772L536.912 404.139L538.556 404.143L538.599 385.776L536.954 385.772Z" fill="#FFA412"/>
<path d="M621.493 404.364L622.948 404.367L622.915 422.706L624.559 422.71L624.592 404.343L623.137 404.339L623.17 386.001L622.943 386.001L622.975 368.086L623.203 368.087L623.236 349.72L621.592 349.716L621.559 368.054L621.332 368.053L621.298 386.421L621.525 386.421L621.493 404.364Z" fill="#FFA412"/>
<path d="M625 385.986L624.967 404.353L626.61 404.356L626.643 385.989L625 385.986Z" fill="#FFA412"/>
<path d="M633.514 386.449L633.804 386.45L633.837 368.083L632.395 368.079C632.472 368.07 632.549 368.06 632.624 368.044L632.657 349.805C632.456 349.763 632.251 349.74 632.04 349.74L631.013 349.737L630.98 368.105L632.006 368.107C632.069 368.107 632.131 368.101 632.193 368.097L632.16 386.031C632.098 386.027 632.037 386.021 631.974 386.021L630.947 386.019L630.914 404.357L630.016 404.355L630.049 386.017L628.508 386.013L628.54 368.099L630.082 368.103L630.115 349.736L628.471 349.732L628.438 368.07L626.896 368.066L626.863 386.433L628.404 386.437L628.372 404.38L629.621 404.383L629.588 422.721L631.233 422.725L631.266 404.387L631.941 404.388C632.152 404.389 632.356 404.367 632.558 404.325L632.591 386.447L633.231 386.448L633.199 404.121C633.871 403.827 634.444 403.3 634.844 402.629L634.871 387.794C634.532 387.219 634.061 386.759 633.514 386.449Z" fill="#FFA412"/>
<path d="M577.035 367.946L576.996 386.312L578.64 386.316L578.678 367.949L577.035 367.946Z" fill="#FFA412"/>
<path d="M561.533 367.923L561.489 386.291L563.133 386.295L563.177 367.927L561.533 367.923Z" fill="#FFA412"/>
<path d="M547.67 367.892L547.626 386.259L549.27 386.263L549.314 367.896L547.67 367.892Z" fill="#FFA412"/>
<path d="M635.665 368.063L635.623 386.43L637.267 386.434L637.309 368.067L635.665 368.063Z" fill="#FFA412"/>
<path d="M639.101 368.108L639.057 386.474L640.7 386.478L640.744 368.111L639.101 368.108Z" fill="#FFA412"/>
<path d="M641.614 368.101L641.581 386.468L642.609 386.47C642.819 386.471 643.024 386.449 643.226 386.407L643.259 368.169C643.058 368.126 642.853 368.104 642.642 368.103L641.614 368.101Z" fill="#FFA412"/>
<path d="M645.511 384.712L645.538 369.876C645.141 369.204 644.569 368.674 643.899 368.376L643.866 386.205C644.537 385.91 645.111 385.384 645.511 384.712Z" fill="#FFA412"/>
<path d="M610.76 349.702L610.716 368.069L612.36 368.073L612.404 349.706L610.76 349.702Z" fill="#FFA412"/>
<path d="M605.703 349.678L604.058 349.675L604.025 368.041L604.43 368.042L604.398 385.956L603.993 385.956L603.959 404.322L605.602 404.326L605.636 386.383L606.041 386.384L606.075 368.017L605.669 368.016L605.703 349.678Z" fill="#FFA412"/>
<path d="M593.796 367.988L593.613 367.988L593.58 386.354L593.762 386.355L593.729 404.298L595.374 404.302L595.407 385.935L595.225 385.935L595.258 368.02L595.44 368.021L595.472 349.654L593.829 349.65L593.796 367.988Z" fill="#FFA412"/>
<path d="M583.041 349.636L582.997 368.004L584.641 368.007L584.685 349.64L583.041 349.636Z" fill="#FFA412"/>
<path d="M566.459 349.597L566.415 367.964L568.059 367.967L568.103 349.601L566.459 349.597Z" fill="#FFA412"/>
<path d="M550.906 349.54L550.858 367.907L552.503 367.912L552.55 349.545L550.906 349.54Z" fill="#FFA412"/>
<path d="M537.046 349.514L537.008 367.881L538.652 367.884L538.691 349.518L537.046 349.514Z" fill="#FFA412"/>
<path d="M625.071 349.703L625.023 368.07L626.667 368.074L626.715 349.708L625.071 349.703Z" fill="#FFA412"/>
<path d="M633.298 350.013L633.266 367.841C633.937 367.546 634.511 367.02 634.911 366.349L634.938 351.513C634.54 350.84 633.968 350.311 633.298 350.013Z" fill="#FFA412"/>
<path d="M681.49 398.979L691.703 400.792C692.516 400.937 693.233 401.288 693.795 401.773C694.386 402.283 694.806 402.939 694.98 403.651C695.036 403.869 695.065 404.093 695.07 404.318C695.076 404.524 695.061 404.729 695.024 404.937L669.653 547.335C669.326 549.171 667.394 550.388 665.307 550.113C665.239 550.104 665.171 550.094 665.104 550.082L654.891 548.268C654.824 548.256 654.757 548.242 654.689 548.228C652.635 547.767 651.242 545.959 651.569 544.123L676.94 401.725C676.957 401.633 676.977 401.543 677.002 401.455C677.011 401.417 677.023 401.378 677.036 401.341C677.048 401.299 677.062 401.257 677.078 401.217C677.088 401.187 677.1 401.158 677.112 401.128C677.194 400.919 677.299 400.719 677.427 400.534C677.445 400.506 677.463 400.48 677.484 400.451C677.502 400.425 677.523 400.397 677.543 400.372C677.584 400.32 677.626 400.267 677.67 400.215C677.695 400.186 677.722 400.155 677.75 400.127C677.776 400.1 677.798 400.075 677.825 400.05C677.872 400.001 677.921 399.955 677.971 399.909C678.03 399.857 678.09 399.807 678.152 399.759C678.2 399.72 678.249 399.683 678.3 399.647C678.303 399.646 678.306 399.642 678.311 399.641C678.344 399.617 678.38 399.593 678.415 399.57C678.522 399.498 678.637 399.431 678.753 399.372C678.788 399.353 678.822 399.335 678.857 399.32C678.892 399.303 678.928 399.287 678.964 399.27C679.037 399.238 679.113 399.206 679.187 399.178C679.882 398.917 680.676 398.834 681.49 398.979Z" fill="#FFB93E"/>
<path d="M683.18 471.416L669.588 547.704C669.296 549.344 667.394 550.397 665.307 550.113C665.24 550.103 665.171 550.093 665.104 550.081L654.891 548.267C654.824 548.256 654.757 548.241 654.69 548.228C652.633 547.776 651.212 546.132 651.504 544.492L663.427 477.574C663.58 477.57 663.733 477.565 663.889 477.56C669.371 477.381 676.926 476.135 683.18 471.416Z" fill="#FFA412"/>
<path d="M674.428 415.618L674.14 417.236L692.22 420.463L692.509 418.845L674.428 415.618Z" fill="#FFA412"/>
<path d="M673.454 421.089L673.166 422.707L691.248 425.925L691.536 424.307L673.454 421.089Z" fill="#FFA412"/>
<path d="M672.293 427.618L672.005 429.237L690.087 432.458L690.375 430.84L672.293 427.618Z" fill="#FFA412"/>
<path d="M670.497 437.688L670.209 439.307L688.291 442.528L688.58 440.91L670.497 437.688Z" fill="#FFA412"/>
<path d="M668.592 448.376L668.304 449.994L686.386 453.212L686.674 451.594L668.592 448.376Z" fill="#FFA412"/>
<path d="M665.758 464.703L665.47 466.322L683.552 469.545L683.841 467.927L665.758 464.703Z" fill="#FFA412"/>
<path d="M662.959 479.984L662.671 481.602L680.753 484.82L681.041 483.202L662.959 479.984Z" fill="#FFA412"/>
<path d="M660.553 493.672L660.264 495.291L678.344 498.518L678.633 496.899L660.553 493.672Z" fill="#FFA412"/>
<path d="M675.367 410.356L675.079 411.974L693.161 415.196L693.449 413.577L675.367 410.356Z" fill="#FFA412"/>
<path d="M676.048 406.949L675.76 408.567L693.842 411.791L694.13 410.172L676.048 406.949Z" fill="#FFA412"/>
<path d="M676.573 403.585L676.285 405.203L694.367 408.425L694.655 406.806L676.573 403.585Z" fill="#FFA412"/>
<path d="M676.76 402.736L694.843 405.948L695.024 404.937C695.061 404.729 695.075 404.523 695.069 404.318L677.111 401.129C677.035 401.32 676.977 401.518 676.94 401.725L676.76 402.736Z" fill="#FFA412"/>
<path d="M677.425 400.534L694.978 403.652C694.804 402.939 694.385 402.283 693.793 401.773L679.186 399.179C678.455 399.454 677.835 399.925 677.425 400.534Z" fill="#FFA412"/>
<path d="M932.201 550.105H869.996C866.662 547.285 872.303 540.879 878.196 540.449C880.755 540.255 883.992 540.789 887.69 541.569C888.546 530.229 893.434 479.245 911.857 481.294C932.573 483.588 911.857 503.746 906.001 515.681C901.664 524.52 897.088 537.197 894.997 543.179C896.679 543.543 898.42 543.9 900.198 544.226C902.944 535.817 913.16 507.531 926.151 509.179C941.405 511.109 935.274 522.45 924.462 529.182C916.531 534.132 906.791 541.168 902.162 544.568C906.084 545.206 910.176 545.637 914.328 545.54C924.983 545.288 930.185 548.42 932.201 550.105Z" fill="#82B378"/>
<path d="M233.482 546.174C229.231 539.486 216.433 522.128 199.392 524.425C180.822 526.928 219.9 539.187 231.864 546.225C229.207 546.261 226.922 546.049 225.245 545.449C217.246 542.595 203.549 548.07 199.169 549.99H275.314C274.787 548.166 273.416 545.188 269.869 543.018C268.619 542.252 266.105 542.145 262.862 542.393C267.389 537.049 270.534 519.975 257.93 524.368C248.722 527.578 248.747 538.01 249.651 544.181C247.691 544.489 245.704 544.8 243.742 545.082C239.951 525.735 226.543 469.034 199.364 467.521C171.812 465.988 222.728 526.326 239.681 545.624C237.509 545.886 235.418 546.083 233.482 546.174Z" fill="#82B378"/>
<path d="M654.144 268.796C679.007 243.933 679.007 203.623 654.144 178.761C629.281 153.898 588.971 153.898 564.109 178.761C539.246 203.623 539.246 243.933 564.109 268.796C588.971 293.659 629.281 293.659 654.144 268.796Z" fill="#E2810E"/>
<path d="M665.831 242.618C674.762 208.61 654.433 173.801 620.425 164.87C586.417 155.939 551.608 176.268 542.677 210.276C533.746 244.284 554.075 279.093 588.083 288.024C622.091 296.955 656.9 276.626 665.831 242.618Z" fill="#FFB93E"/>
<path d="M604.731 285.111C584.263 285.112 564.394 274.274 553.834 255.118C546.354 241.549 544.606 225.879 548.912 210.996C553.218 196.112 563.062 183.796 576.63 176.316C590.2 168.836 605.869 167.089 620.753 171.394C635.636 175.7 647.953 185.544 655.433 199.112C670.873 227.123 660.647 262.473 632.637 277.915C623.782 282.794 614.191 285.111 604.731 285.111ZM604.555 172.544C595.468 172.544 586.48 174.838 578.301 179.346C565.541 186.38 556.285 197.961 552.236 211.957C548.187 225.953 549.831 240.688 556.865 253.447C566.794 271.459 585.481 281.651 604.725 281.651C613.623 281.652 622.638 279.474 630.966 274.883C657.305 260.364 666.921 227.121 652.401 200.782C645.368 188.023 633.787 178.766 619.791 174.718C614.766 173.264 609.645 172.544 604.555 172.544Z" fill="#FFA412"/>
<path d="M619.754 238.004C619.28 236.836 618.698 235.876 618.008 235.12C617.317 234.364 616.452 233.777 615.411 233.358C614.369 232.94 613.134 232.665 611.704 232.533C610.274 232.402 608.589 232.39 606.646 232.499C603.296 232.661 600.196 232.665 597.347 232.511C594.496 232.357 591.919 231.89 589.616 231.11C587.313 230.329 585.289 229.144 583.546 227.554C581.802 225.963 580.378 223.806 579.272 221.083C578.313 218.721 577.857 216.397 577.905 214.112C577.953 211.827 578.461 209.646 579.43 207.569C580.398 205.492 581.784 203.562 583.587 201.777C585.389 199.995 587.585 198.429 590.176 197.087L586.555 188.166L593.734 185.25L597.407 194.296C600.115 193.585 602.725 193.319 605.237 193.496C607.749 193.675 610.07 194.285 612.202 195.329C614.334 196.375 616.251 197.854 617.952 199.769C619.652 201.685 621.067 204.032 622.195 206.811L609.227 212.076C607.873 208.742 606.12 206.548 603.967 205.496C601.816 204.444 599.497 204.421 597.015 205.43C595.668 205.976 594.585 206.635 593.765 207.405C592.945 208.175 592.353 209.015 591.99 209.922C591.628 210.831 591.477 211.791 591.539 212.801C591.601 213.812 591.841 214.831 592.258 215.859C592.675 216.888 593.203 217.758 593.84 218.47C594.477 219.182 595.307 219.744 596.328 220.155C597.348 220.567 598.592 220.839 600.057 220.971C601.523 221.106 603.289 221.141 605.354 221.079C608.695 220.985 611.788 221.024 614.629 221.197C617.469 221.372 620.044 221.855 622.353 222.649C624.662 223.444 626.689 224.636 628.432 226.226C630.176 227.818 631.595 229.961 632.689 232.656C633.682 235.101 634.148 237.47 634.084 239.761C634.022 242.053 633.499 244.223 632.519 246.271C631.539 248.321 630.125 250.223 628.276 251.977C626.427 253.731 624.207 255.28 621.616 256.623L624.984 264.918L617.849 267.815L614.498 259.561C611.913 260.32 609.292 260.752 606.636 260.861C603.978 260.968 601.434 260.601 599.001 259.76C596.569 258.919 594.329 257.522 592.281 255.569C590.234 253.617 588.532 250.973 587.179 247.638L600.148 242.373C600.949 244.345 601.894 245.88 602.984 246.975C604.073 248.07 605.242 248.826 606.491 249.241C607.74 249.657 609.02 249.785 610.332 249.624C611.643 249.464 612.912 249.134 614.139 248.636C615.545 248.065 616.706 247.384 617.621 246.592C618.537 245.799 619.223 244.938 619.682 244.006C620.14 243.075 620.371 242.1 620.374 241.078C620.378 240.056 620.172 239.033 619.754 238.004Z" fill="#FFA412"/>
<path opacity="0.2" d="M738.725 308.888V529.304C738.725 542.16 728.214 552.682 715.367 552.682H488.963C486.998 552.682 485.086 552.44 483.255 551.986C479.334 551.015 475.785 549.067 472.886 546.417C470.814 544.525 469.076 542.272 467.77 539.766C467.7 539.632 467.632 539.499 467.566 539.361C466.208 536.635 465.36 533.615 465.144 530.432C465.102 529.889 465.084 529.341 465.084 528.786V310.302C465.084 297.937 471.468 286.507 481.882 279.849C481.882 279.849 481.89 279.845 481.909 279.835C490.581 274.279 496.334 264.547 496.334 253.474C496.334 250.189 495.827 247.029 494.89 244.053H708.919C707.982 247.029 707.476 250.189 707.476 253.474C707.476 264.089 712.759 273.471 720.84 279.123C720.844 279.123 720.844 279.127 720.848 279.127C721.388 279.503 721.938 279.864 722.5 280.203C722.503 280.207 722.503 280.207 722.503 280.207C732.531 286.317 738.725 297.14 738.725 308.888Z" fill="#ED9F4A"/>
<path opacity="0.2" d="M738.725 308.888V529.303C738.725 541.605 729.098 551.77 717.012 552.623C716.469 552.664 715.918 552.682 715.364 552.682H615.658C602.523 552.682 591.776 541.929 591.776 528.786V310.302C591.776 297.937 598.162 286.507 608.577 279.849C617.27 274.298 623.034 264.558 623.034 253.474C623.034 250.189 622.528 247.029 621.59 244.053H708.915C707.977 247.029 707.471 250.189 707.471 253.474C707.471 262.175 711.021 270.046 716.752 275.709C718.482 277.425 720.41 278.937 722.501 280.207C732.529 286.317 738.725 297.14 738.725 308.888Z" fill="#ED9F4A"/>
<path opacity="0.6" d="M721.047 279.428C714.053 275.203 683.757 260.225 606.71 260.86C518.46 261.589 483.108 279.586 482.025 280.146C490.701 274.542 496.456 264.725 496.456 253.555C496.456 250.243 495.949 247.055 495.012 244.053H709.122C708.184 247.055 707.678 250.243 707.678 253.555C707.678 264.263 712.963 273.727 721.047 279.428Z" fill="#ED9F4A"/>
<path d="M713.682 242.536V252.568C713.682 253.558 712.879 254.365 711.897 254.365H491.916C490.931 254.365 490.128 253.558 490.128 252.568V242.536C490.128 241.549 490.931 240.739 491.916 240.739H711.897C712.879 240.739 713.682 241.55 713.682 242.536Z" fill="#2B478B"/>
<path d="M713.682 242.536V252.568C713.682 253.558 712.878 254.365 711.896 254.365H628.555C627.572 254.365 626.765 253.558 626.765 252.568V242.536C626.765 241.549 627.572 240.739 628.555 240.739H711.896C712.878 240.739 713.682 241.55 713.682 242.536Z" fill="#233862"/>
<path d="M566.99 292.127C566.99 292.127 561.317 300.113 556.116 300.224C550.916 300.335 543.005 296.522 543.005 296.522C543.005 296.522 538.229 285.881 541.468 281.717C541.468 281.717 544.716 280.291 548.112 282.809C548.695 283.243 549.288 283.79 549.87 284.493C550.694 285.483 551.619 286.047 552.6 286.344C556.311 287.473 560.715 284.817 562.363 287.38C563.325 288.87 564.371 289.99 565.232 290.776C566.249 291.683 566.99 292.127 566.99 292.127Z" fill="#F9DDBF"/>
<path d="M493.037 349.731C493.037 349.731 513.087 301.15 549.176 300.225C549.176 300.225 582.489 303.926 584.339 349.731H493.037Z" fill="#F9DDBF"/>
<path d="M539.288 301.707C539.288 301.707 553.754 304.924 558.217 303.033C558.217 303.033 558.891 296.985 552.8 297.833C548.63 298.414 545.914 296.409 544.317 295.597C542.056 294.447 538.688 299.177 539.288 301.707Z" fill="#F1A34F"/>
<path d="M551.879 292.589C550.953 293.283 548.112 282.808 548.112 282.808C548.695 283.243 549.288 283.789 549.87 284.493C550.694 285.482 551.619 286.047 552.6 286.343C552.609 286.648 552.776 291.913 551.879 292.589Z" fill="#E5C1A1"/>
<path d="M565.231 290.775C565.027 290.895 558.337 294.902 557.43 294.902C556.505 294.902 562.362 287.38 562.362 287.38C563.325 288.869 564.37 289.988 565.231 290.775Z" fill="#E5C1A1"/>
<path d="M512.624 336.159C512.253 335.842 526.813 314.722 530.823 314.567C534.833 314.413 543.842 319.194 550.365 319.811C556.887 320.429 563.211 318.578 564.444 322.433C565.678 326.289 569.071 339.958 566.989 342.146C564.907 344.333 520.63 342.999 512.624 336.159Z" fill="#E5C1A1"/>
<path d="M314.914 407.965L314.754 463.404L304.021 475.369L301.989 478.347C296.512 486.375 284.843 486.85 278.732 479.294V479.294C276.635 476.701 275.496 473.466 275.505 470.132L275.525 463.394C275.541 457.795 276.962 452.29 279.657 447.382L281.51 444.009C287.898 432.377 296.602 422.178 307.085 414.042L314.914 407.965Z" fill="#484848"/>
<path d="M487.391 408.464L487.231 463.903L497.895 475.93L499.91 478.919C505.34 486.979 517.006 487.522 523.161 480.001V480.001C525.272 477.421 526.43 474.192 526.44 470.858L526.459 464.12C526.476 458.521 525.087 453.008 522.42 448.085L520.587 444.7C514.266 433.032 505.621 422.783 495.185 414.586L487.391 408.464Z" fill="#484848"/>
<path d="M490.471 381.902C495.551 430.603 489.797 615.025 399.802 531.623C309.327 614.503 302.332 430.044 310.001 381.38C310.135 334.818 350.644 297.188 400.48 297.332C450.315 297.476 490.606 335.34 490.471 381.902Z" fill="#484848"/>
<path d="M469.3 386.04C469.203 419.523 437.977 425.827 399.481 425.716C360.984 425.605 329.795 419.12 329.892 385.637C329.989 352.154 361.275 325.101 399.771 325.213C438.268 325.324 469.397 352.557 469.3 386.04Z" fill="#F6E6D0"/>
<path d="M391.089 397.68C389.865 393.973 392.633 390.157 396.537 390.168L405.882 390.195C409.809 390.206 412.644 393.958 411.582 397.739V397.739V397.739C409.484 409.093 393.205 409.03 391.089 397.68V397.68V397.68Z" fill="#343137"/>
<circle cx="376.534" cy="368.78" r="6.27338" transform="rotate(0.16569 376.534 368.78)" fill="#343137"/>
<circle cx="426.72" cy="368.925" r="6.27338" transform="rotate(0.16569 426.72 368.925)" fill="#343137"/>
<path opacity="0.5" d="M565.925 542.168C565.04 542.633 564.15 543.073 563.253 543.498C562.4 543.992 561.532 544.477 560.646 544.939C556.568 547.084 552.362 548.791 548.085 550.082C546.504 548.641 545.18 546.925 544.184 545.016C543.503 545.379 542.823 545.728 542.137 546.068V419.381C545.282 419.801 548.394 420.428 551.443 421.253C568.558 425.879 583.8 436.768 593.07 452.785C611.483 484.607 599.329 524.625 565.925 542.168Z" fill="#E2810E"/>
<path d="M577.499 447.796C559.084 414.39 517.075 402.238 483.669 420.653C450.264 439.068 438.111 481.077 456.526 514.483C474.941 547.888 516.95 560.041 550.356 541.626C583.761 523.211 595.914 481.202 577.499 447.796Z" fill="#E2810E"/>
<path d="M547.674 543.029C546.823 543.548 545.958 544.049 545.078 544.535C544.781 544.699 544.483 544.861 544.185 545.017C543.504 545.38 542.824 545.729 542.137 546.069C509.246 562.222 469.129 549.825 451.248 517.39C434.193 486.454 443.36 448.135 471.344 428.014C473.576 426.408 475.924 424.919 478.392 423.56C479.277 423.072 480.17 422.604 481.067 422.162C481.937 421.728 482.817 421.313 483.699 420.922C486.402 419.717 489.151 418.701 491.925 417.87C496.049 416.628 500.235 415.791 504.43 415.348C517.44 413.97 530.53 416.347 542.137 422.025C554.452 428.047 565.1 437.787 572.222 450.704C590.151 483.232 579.104 523.911 547.674 543.029Z" fill="#FFB93E"/>
<path d="M512.22 547.721C506.347 547.721 500.441 546.891 494.643 545.213C478.496 540.542 465.135 529.863 457.021 515.143C448.906 500.422 447.009 483.423 451.68 467.276C456.351 451.129 467.031 437.768 481.751 429.654C496.471 421.539 513.47 419.642 529.617 424.314C545.764 428.985 559.125 439.664 567.24 454.384C575.354 469.105 577.251 486.104 572.58 502.251C567.909 518.397 557.23 531.758 542.509 539.873C533.075 545.074 522.703 547.721 512.22 547.721ZM460.308 513.33C467.939 527.172 480.503 537.215 495.687 541.607C510.87 545.999 526.855 544.216 540.698 536.585C554.539 528.955 564.582 516.391 568.974 501.207C573.366 486.024 571.583 470.039 563.953 456.196C556.322 442.354 543.758 432.312 528.574 427.92C513.391 423.528 497.406 425.311 483.564 432.942C469.721 440.572 459.679 453.136 455.287 468.32C450.895 483.503 452.678 499.488 460.308 513.33Z" fill="#FFA412"/>
<path d="M542.565 490.775C542.429 490.435 542.284 490.106 542.137 489.783C541.016 487.321 539.621 485.324 537.948 483.798C536.055 482.073 533.858 480.78 531.353 479.918C528.848 479.055 526.055 478.531 522.974 478.344C519.891 478.154 516.536 478.111 512.911 478.213C510.67 478.281 508.755 478.241 507.164 478.096C505.576 477.952 504.226 477.657 503.119 477.212C502.01 476.767 501.111 476.157 500.419 475.382C499.727 474.611 499.157 473.666 498.703 472.552C498.249 471.437 497.991 470.33 497.923 469.233C497.855 468.138 498.019 467.097 498.414 466.11C498.808 465.126 499.449 464.216 500.339 463.382C501.227 462.545 502.401 461.83 503.862 461.237C506.557 460.142 509.073 460.168 511.407 461.308C513.741 462.451 515.642 464.831 517.111 468.447L531.183 462.735C529.957 459.723 528.423 457.176 526.576 455.097C524.733 453.02 522.654 451.415 520.339 450.28C518.027 449.148 515.508 448.485 512.783 448.292C510.06 448.099 507.226 448.388 504.291 449.16L500.306 439.346L492.517 442.508L496.445 452.186C493.635 453.644 491.252 455.34 489.295 457.274C487.34 459.211 485.837 461.305 484.788 463.557C483.735 465.812 483.186 468.178 483.132 470.656C483.081 473.135 483.574 475.657 484.615 478.218C485.815 481.174 487.361 483.514 489.252 485.238C491.144 486.963 493.34 488.25 495.839 489.096C498.337 489.944 501.131 490.452 504.223 490.616C507.314 490.783 510.678 490.78 514.312 490.605C516.419 490.485 518.249 490.497 519.8 490.641C521.352 490.783 522.69 491.081 523.822 491.535C524.951 491.992 525.89 492.627 526.639 493.447C527.388 494.266 528.02 495.311 528.533 496.575C528.987 497.693 529.211 498.802 529.206 499.911C529.203 501.02 528.953 502.078 528.453 503.088C527.957 504.098 527.211 505.034 526.219 505.893C525.226 506.752 523.967 507.49 522.44 508.111C521.11 508.65 519.734 509.007 518.31 509.183C516.887 509.356 515.5 509.217 514.144 508.766C512.788 508.315 511.52 507.495 510.34 506.307C509.157 505.122 508.131 503.457 507.262 501.315L493.194 507.028C494.661 510.644 496.507 513.515 498.728 515.631C500.949 517.749 503.38 519.267 506.018 520.177C508.658 521.091 511.418 521.491 514.3 521.372C517.181 521.255 520.027 520.787 522.832 519.962L526.465 528.916L534.206 525.774L530.553 516.776C533.363 515.318 535.771 513.637 537.777 511.733C539.635 509.972 541.087 508.077 542.137 506.041C542.221 505.876 542.303 505.712 542.383 505.544C543.444 503.323 544.011 500.969 544.079 498.482C544.148 495.997 543.643 493.427 542.565 490.775Z" fill="#FFA412"/>
<path d="M988.2 552.806H139.74C139.21 552.806 138.776 552.372 138.776 551.842V551.513C138.776 550.983 139.21 550.549 139.74 550.549H988.2C988.73 550.549 989.164 550.983 989.164 551.513V551.842C989.164 552.371 988.73 552.806 988.2 552.806Z" fill="#2E3552"/>
<path d="M733.798 553.769H733.807L733.816 553.768L734.128 553.753C734.128 553.753 734.128 553.753 734.129 553.753C734.521 553.737 734.906 553.673 735.26 553.563C735.615 553.453 735.937 553.298 736.204 553.101C736.469 552.904 736.682 552.663 736.807 552.385C736.932 552.108 736.962 551.809 736.889 551.515L668.945 199.266L668.944 199.265C668.829 198.678 668.346 198.212 667.72 197.919C667.087 197.621 666.298 197.492 665.524 197.545C664.752 197.598 664.02 197.831 663.499 198.221C662.975 198.613 662.666 199.171 662.785 199.78C662.785 199.78 662.785 199.78 662.785 199.78L730.807 552.011C730.878 552.559 731.283 553.008 731.825 553.307C732.377 553.611 733.082 553.77 733.798 553.769Z" fill="#2B3E60" stroke="#2B3E60" stroke-width="0.736585"/>
<path d="M885.787 553.769H885.796L885.805 553.768L886.119 553.753C886.509 553.735 886.891 553.669 887.243 553.558C887.594 553.447 887.913 553.291 888.177 553.094C888.44 552.897 888.649 552.657 888.772 552.381C888.895 552.104 888.925 551.807 888.851 551.515L820.907 199.294C820.869 198.997 820.731 198.725 820.525 198.492C820.317 198.256 820.039 198.061 819.721 197.91C819.401 197.758 819.039 197.651 818.657 197.59C818.276 197.53 817.88 197.517 817.491 197.553C816.721 197.611 815.994 197.847 815.473 198.236C814.949 198.627 814.637 199.181 814.743 199.787L814.743 199.787L814.744 199.794L882.796 552.011C882.867 552.56 883.272 553.008 883.814 553.307C884.366 553.611 885.071 553.77 885.787 553.769Z" fill="#2B3E60" stroke="#2B3E60" stroke-width="0.736585"/>
<path d="M669.944 223.072H821.533C822.306 223.072 823.066 222.904 823.645 222.586C824.215 222.273 824.638 221.791 824.638 221.2C824.638 220.61 824.215 220.128 823.645 219.815C823.066 219.497 822.306 219.329 821.533 219.329H669.944C669.17 219.329 668.41 219.497 667.831 219.815C667.261 220.128 666.839 220.61 666.839 221.2C666.839 221.791 667.261 222.273 667.831 222.586C668.41 222.904 669.17 223.072 669.944 223.072Z" fill="#2B3E60" stroke="#2B3E60" stroke-width="0.736585"/>
<path d="M677.102 262.154H829.649H829.675C830.453 262.154 831.217 261.986 831.8 261.668C832.372 261.356 832.799 260.874 832.799 260.282C832.799 259.69 832.372 259.208 831.8 258.896C831.217 258.578 830.453 258.411 829.675 258.411H677.102C676.325 258.411 675.56 258.578 674.978 258.896C674.406 259.208 673.979 259.69 673.979 260.282C673.979 260.874 674.406 261.356 674.978 261.668C675.56 261.986 676.325 262.154 677.102 262.154Z" fill="#2B3E60" stroke="#2B3E60" stroke-width="0.736585"/>
<path d="M685.242 300.485H836.831C837.604 300.485 838.364 300.317 838.943 299.999C839.513 299.686 839.936 299.204 839.936 298.614C839.936 298.023 839.513 297.541 838.943 297.228C838.364 296.91 837.604 296.742 836.831 296.742H685.242C684.469 296.742 683.708 296.91 683.129 297.228C682.559 297.541 682.137 298.023 682.137 298.614C682.137 299.204 682.559 299.686 683.129 299.999C683.708 300.317 684.469 300.485 685.242 300.485Z" fill="#2B3E60" stroke="#2B3E60" stroke-width="0.736585"/>
<path d="M692.382 338.065H843.972C844.745 338.065 845.505 337.897 846.084 337.579C846.654 337.266 847.077 336.784 847.077 336.193C847.077 335.603 846.654 335.121 846.084 334.808C845.505 334.489 844.745 334.322 843.972 334.322H692.382C691.609 334.322 690.849 334.489 690.27 334.808C689.7 335.121 689.277 335.603 689.277 336.193C689.277 336.784 689.7 337.266 690.27 337.579C690.849 337.897 691.609 338.065 692.382 338.065Z" fill="#2B3E60" stroke="#2B3E60" stroke-width="0.736585"/>
<path d="M702.711 395.75H855.285C856.077 395.75 856.853 395.536 857.44 395.135C858.029 394.734 858.408 394.154 858.408 393.502C858.408 392.851 858.029 392.271 857.44 391.869C856.853 391.469 856.077 391.255 855.285 391.255H702.711C701.92 391.255 701.144 391.469 700.556 391.869C699.968 392.271 699.589 392.851 699.589 393.502C699.589 394.154 699.968 394.734 700.556 395.135C701.144 395.536 701.92 395.75 702.711 395.75Z" fill="#2B3E60" stroke="#2B3E60" stroke-width="0.736585"/>
<path d="M716.965 454.233H863.413C864.162 454.233 864.899 454.069 865.462 453.755C866.016 453.447 866.425 452.972 866.425 452.392C866.425 451.812 866.016 451.337 865.462 451.029C864.899 450.715 864.162 450.55 863.413 450.55H716.965C716.215 450.55 715.478 450.715 714.916 451.029C714.362 451.337 713.952 451.812 713.952 452.392C713.952 452.972 714.362 453.447 714.916 453.755C715.478 454.069 716.215 454.233 716.965 454.233Z" fill="#2B3E60" stroke="#2B3E60" stroke-width="0.736585"/>
<path d="M728.843 519.112H880.433H880.538V519.111C881.274 519.097 881.992 518.93 882.545 518.627C883.115 518.314 883.537 517.832 883.537 517.241C883.537 516.65 883.115 516.168 882.545 515.855C881.966 515.537 881.206 515.37 880.433 515.37H728.843C728.07 515.37 727.31 515.537 726.731 515.855C726.161 516.168 725.738 516.65 725.738 517.241C725.738 517.832 726.161 518.314 726.731 518.627C727.31 518.945 728.07 519.112 728.843 519.112Z" fill="#2B3E60" stroke="#2B3E60" stroke-width="0.736585"/>
<path d="M698.836 266.236L687.117 212.804L674.27 203.504L671.69 201.055C664.733 194.455 653.38 196.431 649.063 204.994V204.994C647.582 207.931 647.158 211.289 647.862 214.502L649.287 220.997C650.47 226.393 652.989 231.406 656.612 235.576L659.102 238.443C667.689 248.328 678.211 256.348 690.018 262.009L698.836 266.236Z" fill="#D2AF1D"/>
<path d="M675.633 164.047C670.506 212.165 675.633 394.452 764.236 312.28C852.84 394.452 860.232 212.165 852.84 164.047C852.84 118.027 813.171 80.7201 764.236 80.7201C715.302 80.7201 675.633 118.027 675.633 164.047Z" fill="#F3CA1E"/>
<path d="M674.313 162.428C674.313 195.466 670.547 192.14 694.671 205.886C732.656 205.886 763.407 202.053 763.407 169.015C763.407 135.977 737.006 110.432 699.021 110.432C699.021 110.432 674.313 129.39 674.313 162.428Z" fill="#F6E6D0"/>
<ellipse cx="6.19002" cy="6.19001" rx="6.19002" ry="6.19001" transform="matrix(-1 0 0 1 710.35 147.297)" fill="#343137"/>
<path d="M702.924 174.533C703.838 173.62 703.191 172.057 701.899 172.057H684.142C682.85 172.057 682.203 173.62 683.116 174.533V174.533V174.533C688.787 179.495 697.254 179.495 702.924 174.533V174.533V174.533Z" fill="#343137"/>
<path d="M693.43 271.945L681.711 218.513L668.864 209.213L666.283 206.765C659.327 200.164 647.974 202.14 643.657 210.703V210.703C642.175 213.64 641.751 216.998 642.456 220.212L643.88 226.706C645.064 232.102 647.582 237.115 651.205 241.285L653.696 244.152C662.283 254.037 672.805 262.058 684.612 267.718L693.43 271.945Z" fill="#F3CA1E"/>
<path fill-rule="evenodd" clip-rule="evenodd" d="M302.407 298.898C305.569 292.81 307.356 285.892 307.356 278.557C307.356 254.149 287.569 234.362 263.161 234.362C238.753 234.362 218.966 254.149 218.966 278.557C218.966 302.966 238.753 322.753 263.161 322.753C272.139 322.753 280.492 320.075 287.465 315.476L311.407 319.437L302.407 298.898Z" fill="white"/>
<path d="M302.407 298.898L300.773 298.049L300.367 298.831L300.721 299.637L302.407 298.898ZM287.465 315.476L287.765 313.659L287.053 313.541L286.451 313.939L287.465 315.476ZM311.407 319.437L311.107 321.254L314.457 321.809L313.094 318.698L311.407 319.437ZM305.515 278.557C305.515 285.59 303.802 292.217 300.773 298.049L304.042 299.747C307.336 293.402 309.198 286.194 309.198 278.557H305.515ZM263.161 236.204C286.552 236.204 305.515 255.166 305.515 278.557H309.198C309.198 253.132 288.586 232.521 263.161 232.521V236.204ZM220.807 278.557C220.807 255.166 239.77 236.204 263.161 236.204V232.521C237.736 232.521 217.124 253.132 217.124 278.557H220.807ZM263.161 320.911C239.77 320.911 220.807 301.949 220.807 278.557H217.124C217.124 303.983 237.736 324.594 263.161 324.594V320.911ZM286.451 313.939C279.77 318.346 271.768 320.911 263.161 320.911V324.594C272.511 324.594 281.214 321.805 288.479 317.013L286.451 313.939ZM287.164 317.293L311.107 321.254L311.708 317.621L287.765 313.659L287.164 317.293ZM313.094 318.698L304.094 298.159L300.721 299.637L309.721 320.177L313.094 318.698Z" fill="#434343"/>
<path d="M288.661 268.543C282.912 253.271 264.226 260.099 262.519 267.735C260.183 259.65 241.946 253.631 236.376 268.543C230.178 285.163 260.363 300.076 262.519 302.502C264.675 300.525 294.86 284.894 288.661 268.543Z" fill="#F893A6"/>
</svg>
