<svg width="17" height="16" viewBox="0 0 17 16" fill="none" xmlns="http://www.w3.org/2000/svg">
<path d="M4.94445 9.6C4.69259 9.6 4.48133 9.5232 4.31067 9.3696C4.14 9.216 4.05496 9.02613 4.05556 8.8C4.05556 8.57333 4.14089 8.3832 4.31156 8.2296C4.48222 8.076 4.69319 7.99947 4.94445 8C5.1963 8 5.40756 8.0768 5.57822 8.2304C5.74889 8.384 5.83393 8.57387 5.83333 8.8C5.83333 9.02667 5.748 9.2168 5.57733 9.3704C5.40667 9.524 5.1957 9.60053 4.94445 9.6ZM8.5 9.6C8.24815 9.6 8.03689 9.5232 7.86622 9.3696C7.69556 9.216 7.61052 9.02613 7.61111 8.8C7.61111 8.57333 7.69644 8.3832 7.86711 8.2296C8.03778 8.076 8.24874 7.99947 8.5 8C8.75185 8 8.96311 8.0768 9.13378 8.2304C9.30444 8.384 9.38948 8.57387 9.38889 8.8C9.38889 9.02667 9.30356 9.2168 9.13289 9.3704C8.96222 9.524 8.75126 9.60053 8.5 9.6ZM12.0556 9.6C11.8037 9.6 11.5924 9.5232 11.4218 9.3696C11.2511 9.216 11.1661 9.02613 11.1667 8.8C11.1667 8.57333 11.252 8.3832 11.4227 8.2296C11.5933 8.076 11.8043 7.99947 12.0556 8C12.3074 8 12.5187 8.0768 12.6893 8.2304C12.86 8.384 12.945 8.57387 12.9444 8.8C12.9444 9.02667 12.8591 9.2168 12.6884 9.3704C12.5178 9.524 12.3068 9.60053 12.0556 9.6ZM2.27778 16C1.78889 16 1.37022 15.8432 1.02178 15.5296C0.673335 15.216 0.499409 14.8395 0.500002 14.4V3.2C0.500002 2.76 0.674224 2.3832 1.02267 2.0696C1.37111 1.756 1.78948 1.59947 2.27778 1.6H3.16667V0H4.94445V1.6H12.0556V0H13.8333V1.6H14.7222C15.2111 1.6 15.6298 1.7568 15.9782 2.0704C16.3267 2.384 16.5006 2.76053 16.5 3.2V14.4C16.5 14.84 16.3258 15.2168 15.9773 15.5304C15.6289 15.844 15.2105 16.0005 14.7222 16H2.27778ZM2.27778 14.4H14.7222V6.4H2.27778V14.4ZM2.27778 4.8H14.7222V3.2H2.27778V4.8Z" fill="black"/>
</svg>
