<svg width="18" height="18" viewBox="0 0 18 18" fill="none" xmlns="http://www.w3.org/2000/svg">
<path d="M10.8887 2.66283L11.6303 1.9213C12.2202 1.3314 13.0203 1 13.8545 1C14.6887 1 15.4888 1.3314 16.0787 1.9213C16.6686 2.51119 17 3.31127 17 4.14551C17 4.97975 16.6686 5.77982 16.0787 6.36972L15.3372 7.11125M10.8887 2.66283C10.8887 2.66283 10.9815 4.2387 12.3718 5.62818C13.7621 7.01846 15.3372 7.11125 15.3372 7.11125M10.8887 2.66283L9.00091 4.55067M15.3372 7.11125L11.1295 11.3197L8.64894 13.7987L8.52095 13.9275C8.05859 14.389 7.82741 14.6202 7.57303 14.8186C7.27284 15.0529 6.94802 15.2538 6.60432 15.4177C6.31314 15.5561 6.00357 15.6593 5.38362 15.8657L2.75905 16.7408M2.75905 16.7408L2.1175 16.9552C1.96796 17.0054 1.80739 17.0128 1.65385 16.9767C1.50031 16.9406 1.35988 16.8624 1.24835 16.7508C1.13682 16.6393 1.05861 16.4989 1.02251 16.3454C0.986408 16.1918 0.993848 16.0312 1.04399 15.8817L1.25837 15.2402M2.75905 16.7408L1.25837 15.2402M1.25837 15.2402L2.1335 12.6156C2.33988 11.9956 2.44307 11.6861 2.58146 11.3949C2.74545 11.0509 2.94623 10.7261 3.18061 10.4262C3.37899 10.1718 3.61017 9.94061 4.07173 9.47905L6.20115 7.35043" stroke="black" stroke-width="1.5" stroke-linecap="round"/>
</svg>
