<svg width="16" height="16" viewBox="0 0 16 16" fill="none" xmlns="http://www.w3.org/2000/svg">
<path d="M1.35657 5.05263H14.6423L13.848 14.4211C13.8117 14.8487 13.5555 15.25 13.1317 15.5433C12.7079 15.8367 12.1483 16 11.5669 16H4.43314C3.85168 16 3.29209 15.8367 2.86829 15.5433C2.44449 15.25 2.18834 14.8487 2.152 14.4211L1.35657 5.05263ZM16 2.52632V4.21053H0V2.52632H3.42857V1.68421C3.42857 1.23753 3.66939 0.809144 4.09804 0.493294C4.5267 0.177443 5.10808 0 5.71429 0H10.2857C10.8919 0 11.4733 0.177443 11.902 0.493294C12.3306 0.809144 12.5714 1.23753 12.5714 1.68421V2.52632H16ZM5.71429 2.52632H10.2857V1.68421H5.71429V2.52632Z" fill="#575757"/>
</svg>
