<svg width="39" height="40" viewBox="0 0 39 40" fill="none" xmlns="http://www.w3.org/2000/svg">
<path d="M10.7493 18.9466V12.3486" stroke="#F3CA1E" stroke-width="2" stroke-linecap="round" stroke-linejoin="round"/>
<path d="M13.4983 14.754L10.7492 12.0049L8 14.754" stroke="#F3CA1E" stroke-width="2" stroke-linecap="round" stroke-linejoin="round"/>
<path d="M15.8063 30.8865V24.8128L14.6342 23.4986L14.4126 23.1716C13.8151 22.2903 12.5369 22.2346 11.8649 23.0605V23.0605C11.6344 23.3439 11.5085 23.698 11.5085 24.0632V24.8014C11.5085 25.4148 11.6625 26.0184 11.9562 26.5569L12.1581 26.9271C12.8543 28.2034 13.8046 29.3235 14.9505 30.2183L15.8063 30.8865Z" fill="#F3CA1E"/>
<path d="M34.7022 24.1519V30.2256L35.8743 31.5398L36.096 31.8667C36.6935 32.748 37.9717 32.8037 38.6436 31.9778V31.9778C38.8741 31.6945 39 31.3403 39 30.9751V30.2369C39 29.6235 38.8461 29.0199 38.5524 28.4814L38.3504 28.1112C37.6543 26.8349 36.7039 25.7148 35.558 24.8201L34.7022 24.1519Z" fill="#F3CA1E"/>
<path d="M35.1289 21.2415C35.7008 26.5754 35.1289 46.7817 25.243 37.6731C15.3571 46.7817 14.5323 26.5754 15.3571 21.2415C15.3571 16.1403 19.7831 12.0049 25.243 12.0049C30.7028 12.0049 35.1289 16.1403 35.1289 21.2415Z" fill="#F3CA1E"/>
<path d="M32.7125 21.7013C32.7125 25.3696 29.2935 26.0702 25.076 26.0702C20.8585 26.0702 17.4395 25.3696 17.4395 21.7013C17.4395 18.0331 20.8585 15.0593 25.076 15.0593C29.2935 15.0593 32.7125 18.0331 32.7125 21.7013Z" fill="#F6E6D0"/>
<circle cx="22.368" cy="19.84" r="0.687289" fill="#343137"/>
<circle cx="27.866" cy="19.84" r="0.687289" fill="#343137"/>
<path d="M24.1546 22.1766C24.0531 22.0752 24.125 21.9017 24.2684 21.9017H26.24C26.3835 21.9017 26.4553 22.0752 26.3539 22.1766V22.1766V22.1766C25.7243 22.7276 24.7842 22.7276 24.1546 22.1766V22.1766V22.1766Z" fill="#343137"/>
<mask id="path-10-outside-1_472_675" maskUnits="userSpaceOnUse" x="-1" y="0" width="24" height="9" fill="black">
<rect fill="white" x="-1" width="24" height="9"/>
<path d="M3.06621 8.05859C2.94251 8.05859 2.83509 8.01628 2.74395 7.93164C2.65931 7.84049 2.61699 7.73307 2.61699 7.60938V2.02344H0.63457C0.517383 2.02344 0.416471 1.98438 0.331836 1.90625C0.253711 1.82161 0.214648 1.7207 0.214648 1.60352C0.214648 1.48633 0.253711 1.38542 0.331836 1.30078C0.416471 1.21615 0.517383 1.17383 0.63457 1.17383H5.49785C5.61504 1.17383 5.71595 1.21615 5.80059 1.30078C5.88522 1.38542 5.92754 1.48633 5.92754 1.60352C5.92754 1.7207 5.88522 1.82161 5.80059 1.90625C5.71595 1.98438 5.61504 2.02344 5.49785 2.02344H3.5252V7.60938C3.5252 7.73307 3.47962 7.84049 3.38848 7.93164C3.29733 8.01628 3.18991 8.05859 3.06621 8.05859ZM10.5752 8.10742C9.8916 8.10742 9.28939 7.95768 8.76855 7.6582C8.26074 7.35872 7.86361 6.94531 7.57715 6.41797C7.2972 5.88411 7.15072 5.27539 7.1377 4.5918C7.15072 3.9082 7.2972 3.30273 7.57715 2.77539C7.8571 2.24154 8.25749 1.82487 8.77832 1.52539C9.29915 1.22591 9.89811 1.07617 10.5752 1.07617C11.2588 1.07617 11.861 1.22591 12.3818 1.52539C12.8896 1.82487 13.2835 2.24154 13.5635 2.77539C13.8499 3.30924 13.9997 3.91471 14.0127 4.5918C13.9997 5.26888 13.8532 5.87109 13.5732 6.39844C13.2868 6.9388 12.8831 7.35872 12.3623 7.6582C11.848 7.95768 11.2523 8.10742 10.5752 8.10742ZM8.0459 4.5918C8.0459 5.09961 8.14681 5.55534 8.34863 5.95898C8.55697 6.37565 8.84993 6.69792 9.22754 6.92578C9.61165 7.14714 10.0609 7.25781 10.5752 7.25781C11.1025 7.25781 11.5518 7.14062 11.9229 6.90625C12.3005 6.67839 12.5902 6.36589 12.792 5.96875C13.0003 5.5651 13.1045 5.10612 13.1045 4.5918C13.1045 4.08398 13.0036 3.62826 12.8018 3.22461C12.5934 2.81445 12.2972 2.49544 11.9131 2.26758C11.529 2.03971 11.083 1.92578 10.5752 1.92578C10.0479 1.92578 9.59863 2.04297 9.22754 2.27734C8.84993 2.50521 8.55697 2.82096 8.34863 3.22461C8.14681 3.62174 8.0459 4.07747 8.0459 4.5918ZM16.7268 8.05859C16.6031 8.05859 16.4956 8.01628 16.4045 7.93164C16.3199 7.84049 16.2775 7.73307 16.2775 7.60938V1.63281C16.2775 1.50911 16.3199 1.40169 16.4045 1.31055C16.4956 1.2194 16.6031 1.17383 16.7268 1.17383H18.9533C19.5653 1.17383 20.0699 1.27799 20.467 1.48633C20.8316 1.68164 21.105 1.9388 21.2873 2.25781C21.4761 2.57031 21.5705 2.9349 21.5705 3.35156C21.5705 3.73568 21.4859 4.08724 21.3166 4.40625C21.1408 4.7513 20.8511 5.02474 20.4475 5.22656C20.0503 5.42839 19.5523 5.5293 18.9533 5.5293H17.1857V7.60938C17.1857 7.73307 17.1402 7.84049 17.049 7.93164C16.9579 8.01628 16.8505 8.05859 16.7268 8.05859ZM18.8654 4.66992C19.4579 4.66992 19.9038 4.55924 20.2033 4.33789C20.5093 4.11003 20.6623 3.78125 20.6623 3.35156C20.6623 2.92188 20.5093 2.59635 20.2033 2.375C19.9038 2.14714 19.4579 2.0332 18.8654 2.0332H17.3029C17.2248 2.0332 17.1857 2.07227 17.1857 2.15039V4.66992H18.8654Z"/>
</mask>
<path d="M3.06621 8.05859C2.94251 8.05859 2.83509 8.01628 2.74395 7.93164C2.65931 7.84049 2.61699 7.73307 2.61699 7.60938V2.02344H0.63457C0.517383 2.02344 0.416471 1.98438 0.331836 1.90625C0.253711 1.82161 0.214648 1.7207 0.214648 1.60352C0.214648 1.48633 0.253711 1.38542 0.331836 1.30078C0.416471 1.21615 0.517383 1.17383 0.63457 1.17383H5.49785C5.61504 1.17383 5.71595 1.21615 5.80059 1.30078C5.88522 1.38542 5.92754 1.48633 5.92754 1.60352C5.92754 1.7207 5.88522 1.82161 5.80059 1.90625C5.71595 1.98438 5.61504 2.02344 5.49785 2.02344H3.5252V7.60938C3.5252 7.73307 3.47962 7.84049 3.38848 7.93164C3.29733 8.01628 3.18991 8.05859 3.06621 8.05859ZM10.5752 8.10742C9.8916 8.10742 9.28939 7.95768 8.76855 7.6582C8.26074 7.35872 7.86361 6.94531 7.57715 6.41797C7.2972 5.88411 7.15072 5.27539 7.1377 4.5918C7.15072 3.9082 7.2972 3.30273 7.57715 2.77539C7.8571 2.24154 8.25749 1.82487 8.77832 1.52539C9.29915 1.22591 9.89811 1.07617 10.5752 1.07617C11.2588 1.07617 11.861 1.22591 12.3818 1.52539C12.8896 1.82487 13.2835 2.24154 13.5635 2.77539C13.8499 3.30924 13.9997 3.91471 14.0127 4.5918C13.9997 5.26888 13.8532 5.87109 13.5732 6.39844C13.2868 6.9388 12.8831 7.35872 12.3623 7.6582C11.848 7.95768 11.2523 8.10742 10.5752 8.10742ZM8.0459 4.5918C8.0459 5.09961 8.14681 5.55534 8.34863 5.95898C8.55697 6.37565 8.84993 6.69792 9.22754 6.92578C9.61165 7.14714 10.0609 7.25781 10.5752 7.25781C11.1025 7.25781 11.5518 7.14062 11.9229 6.90625C12.3005 6.67839 12.5902 6.36589 12.792 5.96875C13.0003 5.5651 13.1045 5.10612 13.1045 4.5918C13.1045 4.08398 13.0036 3.62826 12.8018 3.22461C12.5934 2.81445 12.2972 2.49544 11.9131 2.26758C11.529 2.03971 11.083 1.92578 10.5752 1.92578C10.0479 1.92578 9.59863 2.04297 9.22754 2.27734C8.84993 2.50521 8.55697 2.82096 8.34863 3.22461C8.14681 3.62174 8.0459 4.07747 8.0459 4.5918ZM16.7268 8.05859C16.6031 8.05859 16.4956 8.01628 16.4045 7.93164C16.3199 7.84049 16.2775 7.73307 16.2775 7.60938V1.63281C16.2775 1.50911 16.3199 1.40169 16.4045 1.31055C16.4956 1.2194 16.6031 1.17383 16.7268 1.17383H18.9533C19.5653 1.17383 20.0699 1.27799 20.467 1.48633C20.8316 1.68164 21.105 1.9388 21.2873 2.25781C21.4761 2.57031 21.5705 2.9349 21.5705 3.35156C21.5705 3.73568 21.4859 4.08724 21.3166 4.40625C21.1408 4.7513 20.8511 5.02474 20.4475 5.22656C20.0503 5.42839 19.5523 5.5293 18.9533 5.5293H17.1857V7.60938C17.1857 7.73307 17.1402 7.84049 17.049 7.93164C16.9579 8.01628 16.8505 8.05859 16.7268 8.05859ZM18.8654 4.66992C19.4579 4.66992 19.9038 4.55924 20.2033 4.33789C20.5093 4.11003 20.6623 3.78125 20.6623 3.35156C20.6623 2.92188 20.5093 2.59635 20.2033 2.375C19.9038 2.14714 19.4579 2.0332 18.8654 2.0332H17.3029C17.2248 2.0332 17.1857 2.07227 17.1857 2.15039V4.66992H18.8654Z" fill="#F3CA1E"/>
<path d="M2.74395 7.93164L2.37755 8.27187L2.39015 8.28544L2.40372 8.29804L2.74395 7.93164ZM2.61699 2.02344H3.11699V1.52344H2.61699V2.02344ZM0.331836 1.90625L-0.035566 2.24539L-0.0220004 2.26009L-0.0073043 2.27365L0.331836 1.90625ZM0.331836 1.30078L-0.0217176 0.947228L-0.0287859 0.954296L-0.035566 0.961641L0.331836 1.30078ZM5.80059 1.90625L6.13973 2.27365L6.14707 2.26687L6.15414 2.2598L5.80059 1.90625ZM3.5252 2.02344V1.52344H3.0252V2.02344H3.5252ZM3.38848 7.93164L3.7287 8.29804L3.73548 8.29174L3.74203 8.28519L3.38848 7.93164ZM3.06621 7.55859C3.0639 7.55859 3.0642 7.55841 3.06654 7.55884C3.06895 7.55928 3.07233 7.56015 3.07613 7.56165C3.07993 7.56315 3.08287 7.56476 3.08469 7.56592C3.08644 7.56705 3.08622 7.56715 3.08417 7.56524L2.40372 8.29804C2.58678 8.46802 2.81553 8.55859 3.06621 8.55859V7.55859ZM3.11034 7.59142C3.10844 7.58936 3.10854 7.58914 3.10966 7.5909C3.11083 7.59272 3.11244 7.59565 3.11393 7.59945C3.11543 7.60326 3.11631 7.60664 3.11675 7.60904C3.11718 7.61138 3.11699 7.61168 3.11699 7.60938H2.11699C2.11699 7.86005 2.20756 8.08881 2.37755 8.27187L3.11034 7.59142ZM3.11699 7.60938V2.02344H2.11699V7.60938H3.11699ZM2.61699 1.52344H0.63457V2.52344H2.61699V1.52344ZM0.63457 1.52344C0.63256 1.52344 0.639768 1.52332 0.651493 1.52786C0.656861 1.52993 0.661583 1.53239 0.665361 1.53478C0.667176 1.53592 0.66857 1.53692 0.669543 1.53767C0.670513 1.53842 0.670982 1.53885 0.670976 1.53885L-0.0073043 2.27365C0.17146 2.43867 0.394115 2.52344 0.63457 2.52344V1.52344ZM0.699237 1.56711C0.699232 1.5671 0.699664 1.56757 0.700412 1.56854C0.701162 1.56952 0.702164 1.57091 0.703311 1.57273C0.705697 1.5765 0.708151 1.58122 0.710229 1.58659C0.714768 1.59832 0.714648 1.60553 0.714648 1.60352H-0.285352C-0.285352 1.84397 -0.200579 2.06663 -0.035566 2.24539L0.699237 1.56711ZM0.714648 1.60352C0.714648 1.60151 0.714768 1.60871 0.710229 1.62044C0.708151 1.62581 0.705697 1.63053 0.703311 1.63431C0.702164 1.63612 0.701162 1.63752 0.700412 1.63849C0.699664 1.63946 0.699232 1.63993 0.699237 1.63992L-0.035566 0.961641C-0.200579 1.14041 -0.285352 1.36306 -0.285352 1.60352H0.714648ZM0.685389 1.65433C0.686127 1.6536 0.679173 1.66045 0.664359 1.66666C0.649335 1.67296 0.637608 1.67383 0.63457 1.67383V0.673828C0.38163 0.673828 0.154439 0.771071 -0.0217176 0.947228L0.685389 1.65433ZM0.63457 1.67383H5.49785V0.673828H0.63457V1.67383ZM5.49785 1.67383C5.49481 1.67383 5.48309 1.67296 5.46806 1.66666C5.45325 1.66045 5.44629 1.6536 5.44703 1.65433L6.15414 0.947228C5.97798 0.771071 5.75079 0.673828 5.49785 0.673828V1.67383ZM5.44703 1.65433C5.44777 1.65507 5.44092 1.64812 5.4347 1.6333C5.4284 1.61828 5.42754 1.60655 5.42754 1.60352H6.42754C6.42754 1.35058 6.3303 1.12338 6.15414 0.947228L5.44703 1.65433ZM5.42754 1.60352C5.42754 1.60048 5.4284 1.58875 5.4347 1.57373C5.44092 1.55891 5.44777 1.55196 5.44703 1.5527L6.15414 2.2598C6.3303 2.08365 6.42754 1.85646 6.42754 1.60352H5.42754ZM5.46145 1.53885C5.46144 1.53885 5.46191 1.53842 5.46288 1.53767C5.46385 1.53692 5.46525 1.53592 5.46706 1.53478C5.47084 1.53239 5.47556 1.52993 5.48093 1.52786C5.49265 1.52332 5.49986 1.52344 5.49785 1.52344V2.52344C5.73831 2.52344 5.96096 2.43867 6.13973 2.27365L5.46145 1.53885ZM5.49785 1.52344H3.5252V2.52344H5.49785V1.52344ZM3.0252 2.02344V7.60938H4.0252V2.02344H3.0252ZM3.0252 7.60938C3.0252 7.60945 3.0252 7.60689 3.0261 7.60237C3.027 7.59777 3.02854 7.5926 3.03072 7.58744C3.0329 7.58231 3.0351 7.57866 3.03647 7.57668C3.03777 7.57478 3.03767 7.57534 3.03492 7.57809L3.74203 8.28519C3.92255 8.10468 4.0252 7.87177 4.0252 7.60938H3.0252ZM3.04825 7.56524C3.0462 7.56715 3.04598 7.56705 3.04773 7.56592C3.04955 7.56476 3.05249 7.56315 3.05629 7.56165C3.06009 7.56015 3.06347 7.55928 3.06588 7.55884C3.06822 7.55841 3.06852 7.55859 3.06621 7.55859V8.55859C3.31689 8.55859 3.54564 8.46802 3.7287 8.29804L3.04825 7.56524ZM8.76855 7.6582L8.51455 8.08891L8.51932 8.09166L8.76855 7.6582ZM7.57715 6.41797L7.13429 6.6502L7.13779 6.65663L7.57715 6.41797ZM7.1377 4.5918L6.63779 4.58227L6.6376 4.5918L6.63779 4.60132L7.1377 4.5918ZM7.57715 2.77539L8.01878 3.00984L8.01996 3.0076L7.57715 2.77539ZM12.3818 1.52539L12.6358 1.09468L12.6311 1.09194L12.3818 1.52539ZM13.5635 2.77539L13.1206 3.00761L13.1229 3.0118L13.5635 2.77539ZM14.0127 4.5918L14.5126 4.60141L14.5128 4.5918L14.5126 4.58218L14.0127 4.5918ZM13.5732 6.39844L13.1316 6.16399L13.1315 6.16425L13.5732 6.39844ZM12.3623 7.6582L12.1131 7.22474L12.1107 7.22612L12.3623 7.6582ZM8.34863 5.95898L7.90142 6.18259L8.34863 5.95898ZM9.22754 6.92578L8.96915 7.35396L8.97789 7.359L9.22754 6.92578ZM11.9229 6.90625L11.6645 6.47807L11.6559 6.48351L11.9229 6.90625ZM12.792 5.96875L12.3477 5.73942L12.3462 5.74223L12.792 5.96875ZM12.8018 3.22461L13.249 3.001L13.2475 2.99818L12.8018 3.22461ZM11.9131 2.26758L11.658 2.69761L11.9131 2.26758ZM9.22754 2.27734L9.48593 2.70553L9.49454 2.70009L9.22754 2.27734ZM8.34863 3.22461L7.90431 2.99528L7.90289 2.99808L8.34863 3.22461ZM10.5752 7.60742C9.96681 7.60742 9.45283 7.4749 9.01779 7.22475L8.51932 8.09166C9.12594 8.44046 9.81639 8.60742 10.5752 8.60742V7.60742ZM9.02255 7.22752C8.59424 6.97493 8.26054 6.62853 8.01651 6.1793L7.13779 6.65663C7.46668 7.26209 7.92724 7.74252 8.51456 8.08889L9.02255 7.22752ZM8.01996 6.18576C7.78066 5.72942 7.64935 5.19871 7.6376 4.58227L6.63779 4.60132C6.65209 5.35207 6.81374 6.03881 7.13434 6.65017L8.01996 6.18576ZM7.6376 4.60132C7.64935 3.98478 7.78067 3.45837 8.01878 3.00984L7.13552 2.54095C6.81373 3.1471 6.65208 3.83162 6.63779 4.58227L7.6376 4.60132ZM8.01996 3.0076C8.25596 2.55755 8.58934 2.21082 9.02756 1.95884L8.52908 1.09194C7.92563 1.43892 7.45823 1.92553 7.13434 2.54319L8.01996 3.0076ZM9.02756 1.95884C9.46331 1.70828 9.97426 1.57617 10.5752 1.57617V0.576172C9.82197 0.576172 9.13499 0.743539 8.52908 1.09194L9.02756 1.95884ZM10.5752 1.57617C11.1836 1.57617 11.6976 1.70869 12.1326 1.95884L12.6311 1.09194C12.0244 0.743129 11.334 0.576172 10.5752 0.576172V1.57617ZM12.1278 1.95607C12.5536 2.20715 12.8829 2.55423 13.1207 3.0076L14.0063 2.54319C13.6841 1.92884 13.2257 1.44259 12.6358 1.09471L12.1278 1.95607ZM13.1229 3.0118C13.3677 3.46795 13.5011 3.99411 13.5128 4.60141L14.5126 4.58218C14.4982 3.83532 14.3322 3.15054 14.0041 2.53898L13.1229 3.0118ZM13.5128 4.58218C13.5011 5.1914 13.3701 5.71479 13.1316 6.16399L14.0149 6.63288C14.3363 6.0274 14.4983 5.34636 14.5126 4.60141L13.5128 4.58218ZM13.1315 6.16425C12.8883 6.62296 12.5507 6.97311 12.1131 7.22475L12.6115 8.09166C13.2156 7.74433 13.6853 7.25464 14.015 6.63263L13.1315 6.16425ZM12.1107 7.22612C11.6828 7.47527 11.1763 7.60742 10.5752 7.60742V8.60742C11.3283 8.60742 12.0132 8.44009 12.6139 8.09029L12.1107 7.22612ZM7.5459 4.5918C7.5459 5.16742 7.66075 5.70125 7.90142 6.18259L8.79585 5.73538C8.63287 5.40943 8.5459 5.0318 8.5459 4.5918H7.5459ZM7.90142 6.18259C8.14959 6.67893 8.50591 7.0743 8.96921 7.35388L9.48587 6.49769C9.19396 6.32154 8.96434 6.07237 8.79585 5.73538L7.90142 6.18259ZM8.97789 7.359C9.44935 7.63068 9.98743 7.75781 10.5752 7.75781V6.75781C10.1343 6.75781 9.77396 6.66359 9.47719 6.49257L8.97789 7.359ZM10.5752 7.75781C11.1778 7.75781 11.724 7.6232 12.1898 7.32899L11.6559 6.48351C11.3795 6.65805 11.0272 6.75781 10.5752 6.75781V7.75781ZM12.1812 7.33434C12.6397 7.05763 12.994 6.67492 13.2377 6.19527L12.3462 5.74223C12.1864 6.05685 11.9612 6.29914 11.6645 6.47816L12.1812 7.33434ZM13.2363 6.19807C13.4858 5.71463 13.6045 5.17525 13.6045 4.5918H12.6045C12.6045 5.03699 12.5148 5.41558 12.3477 5.73943L13.2363 6.19807ZM13.6045 4.5918C13.6045 4.01617 13.4896 3.48235 13.249 3.001L12.3545 3.44822C12.5175 3.77416 12.6045 4.1518 12.6045 4.5918H13.6045ZM13.2475 2.99818C12.9976 2.50612 12.6364 2.11533 12.1682 1.83755L11.658 2.69761C11.958 2.87556 12.1892 3.12279 12.356 3.45104L13.2475 2.99818ZM12.1682 1.83755C11.6967 1.55788 11.1602 1.42578 10.5752 1.42578V2.42578C11.0058 2.42578 11.3612 2.52155 11.658 2.69761L12.1682 1.83755ZM10.5752 1.42578C9.97255 1.42578 9.42637 1.56039 8.96054 1.8546L9.49454 2.70009C9.7709 2.52554 10.1232 2.42578 10.5752 2.42578V1.42578ZM8.96921 1.84925C8.50996 2.12638 8.15374 2.51205 7.90432 2.99529L8.79294 3.45393C8.9602 3.12988 9.18991 2.88404 9.48587 2.70544L8.96921 1.84925ZM7.90289 2.99808C7.66026 3.47553 7.5459 4.01095 7.5459 4.5918H8.5459C8.5459 4.144 8.63336 3.76796 8.79438 3.45113L7.90289 2.99808ZM16.4045 7.93164L16.0381 8.27187L16.0507 8.28544L16.0643 8.29804L16.4045 7.93164ZM16.4045 1.31055L16.0509 0.956993L16.0444 0.963539L16.0381 0.970321L16.4045 1.31055ZM20.467 1.48633L20.7031 1.04557L20.6993 1.04355L20.467 1.48633ZM21.2873 2.25781L20.8531 2.50596L20.8593 2.51637L21.2873 2.25781ZM21.3166 4.40625L20.8749 4.17186L20.8711 4.17929L21.3166 4.40625ZM20.4475 5.22656L20.2238 4.77934L20.2209 4.78082L20.4475 5.22656ZM17.1857 5.5293V5.0293H16.6857V5.5293H17.1857ZM17.049 7.93164L17.3892 8.29804L17.396 8.29174L17.4026 8.28519L17.049 7.93164ZM20.2033 4.33789L20.5005 4.73998L20.502 4.73891L20.2033 4.33789ZM20.2033 2.375L19.9005 2.77303L19.9103 2.78011L20.2033 2.375ZM17.1857 4.66992H16.6857V5.16992H17.1857V4.66992ZM16.7268 7.55859C16.7244 7.55859 16.7247 7.55841 16.7271 7.55884C16.7295 7.55928 16.7329 7.56015 16.7367 7.56165C16.7405 7.56315 16.7434 7.56476 16.7452 7.56592C16.747 7.56705 16.7468 7.56715 16.7447 7.56524L16.0643 8.29804C16.2473 8.46802 16.4761 8.55859 16.7268 8.55859V7.55859ZM16.7709 7.59142C16.769 7.58936 16.7691 7.58914 16.7702 7.5909C16.7714 7.59272 16.773 7.59565 16.7745 7.59945C16.776 7.60326 16.7769 7.60664 16.7773 7.60904C16.7777 7.61138 16.7775 7.61168 16.7775 7.60938H15.7775C15.7775 7.86005 15.8681 8.08881 16.0381 8.27187L16.7709 7.59142ZM16.7775 7.60938V1.63281H15.7775V7.60938H16.7775ZM16.7775 1.63281C16.7775 1.6305 16.7777 1.6308 16.7773 1.63314C16.7769 1.63555 16.776 1.63893 16.7745 1.64273C16.773 1.64654 16.7714 1.64947 16.7702 1.65129C16.7691 1.65305 16.769 1.65283 16.7709 1.65077L16.0381 0.970321C15.8681 1.15338 15.7775 1.38214 15.7775 1.63281H16.7775ZM16.758 1.6641C16.7608 1.66135 16.7614 1.66125 16.7595 1.66256C16.7575 1.66392 16.7538 1.66612 16.7487 1.6683C16.7435 1.67049 16.7384 1.67202 16.7338 1.67293C16.7292 1.67382 16.7267 1.67383 16.7268 1.67383V0.673828C16.4644 0.673828 16.2315 0.776476 16.0509 0.956993L16.758 1.6641ZM16.7268 1.67383H18.9533V0.673828H16.7268V1.67383ZM18.9533 1.67383C19.5125 1.67383 19.9305 1.76953 20.2347 1.9291L20.6993 1.04355C20.2092 0.786457 19.6181 0.673828 18.9533 0.673828V1.67383ZM20.2309 1.92707C20.5234 2.08376 20.7232 2.27835 20.8532 2.50588L21.7214 2.00974C21.4869 1.59925 21.1398 1.27952 20.7031 1.04559L20.2309 1.92707ZM20.8593 2.51637C20.9947 2.74034 21.0705 3.0129 21.0705 3.35156H22.0705C22.0705 2.85689 21.9576 2.40029 21.7153 1.99925L20.8593 2.51637ZM21.0705 3.35156C21.0705 3.65932 21.0035 3.92965 20.8749 4.17189L21.7583 4.64061C21.9683 4.24483 22.0705 3.81204 22.0705 3.35156H21.0705ZM20.8711 4.17929C20.7515 4.41397 20.5483 4.61714 20.2239 4.77935L20.6711 5.67378C21.1539 5.43234 21.5301 5.08863 21.7621 4.63321L20.8711 4.17929ZM20.2209 4.78082C19.9139 4.93685 19.4994 5.0293 18.9533 5.0293V6.0293C19.6051 6.0293 20.1867 5.91992 20.674 5.67231L20.2209 4.78082ZM18.9533 5.0293H17.1857V6.0293H18.9533V5.0293ZM16.6857 5.5293V7.60938H17.6857V5.5293H16.6857ZM16.6857 7.60938C16.6857 7.60945 16.6858 7.60689 16.6866 7.60237C16.6875 7.59777 16.6891 7.5926 16.6913 7.58744C16.6934 7.58231 16.6956 7.57866 16.697 7.57668C16.6983 7.57478 16.6982 7.57534 16.6955 7.57809L17.4026 8.28519C17.5831 8.10468 17.6857 7.87177 17.6857 7.60938H16.6857ZM16.7088 7.56524C16.7067 7.56715 16.7065 7.56705 16.7083 7.56592C16.7101 7.56476 16.713 7.56315 16.7168 7.56165C16.7206 7.56015 16.724 7.55928 16.7264 7.55884C16.7288 7.55841 16.7291 7.55859 16.7268 7.55859V8.55859C16.9774 8.55859 17.2062 8.46802 17.3892 8.29804L16.7088 7.56524ZM18.8654 5.16992C19.5063 5.16992 20.0775 5.05263 20.5005 4.73998L19.9061 3.9358C19.7302 4.06586 19.4095 4.16992 18.8654 4.16992V5.16992ZM20.502 4.73891C20.952 4.40381 21.1623 3.91633 21.1623 3.35156H20.1623C20.1623 3.64617 20.0667 3.81625 19.9047 3.93687L20.502 4.73891ZM21.1623 3.35156C21.1623 2.78688 20.9517 2.29924 20.4964 1.96989L19.9103 2.78011C20.067 2.89347 20.1623 3.05687 20.1623 3.35156H21.1623ZM20.5061 1.97709C20.0822 1.6546 19.5086 1.5332 18.8654 1.5332V2.5332C19.4072 2.5332 19.7254 2.63967 19.9006 2.77291L20.5061 1.97709ZM18.8654 1.5332H17.3029V2.5332H18.8654V1.5332ZM17.3029 1.5332C17.1868 1.5332 17.0079 1.56258 16.8615 1.70895C16.7151 1.85532 16.6857 2.03426 16.6857 2.15039H17.6857C17.6857 2.1884 17.6759 2.30874 17.5686 2.41605C17.4613 2.52336 17.3409 2.5332 17.3029 2.5332V1.5332ZM16.6857 2.15039V4.66992H17.6857V2.15039H16.6857ZM17.1857 5.16992H18.8654V4.16992H17.1857V5.16992Z" fill="#F3CA1E" mask="url(#path-10-outside-1_472_675)"/>
</svg>
