<svg width="29" height="18" viewBox="0 0 29 18" fill="none" xmlns="http://www.w3.org/2000/svg">
<path d="M2.07427 0.139114C2.55807 0.13796 3.02693 0.343759 3.39946 0.720791L14.498 12.0509L25.6172 1.12544C25.829 0.915365 26.0727 0.758484 26.3343 0.663818C26.5959 0.569151 26.8702 0.538566 27.1415 0.573818C27.4128 0.609072 27.6758 0.709467 27.9152 0.869236C28.1546 1.029 28.3659 1.245 28.5367 1.5048C28.7087 1.76349 28.8372 2.06114 28.9147 2.38066C28.9922 2.70018 29.0172 3.03525 28.9884 3.36663C28.9595 3.69801 28.8773 4.01915 28.7465 4.3116C28.6157 4.60405 28.4389 4.86204 28.2262 5.07074L15.8025 17.286C15.432 17.658 14.9672 17.8613 14.4876 17.8613C14.008 17.8613 13.5433 17.658 13.1728 17.286L0.74907 4.6408C0.539403 4.42849 0.36609 4.16775 0.239053 3.8735C0.112016 3.57926 0.0337518 3.25729 0.00874841 2.92604C-0.0162569 2.5948 0.0124888 2.26078 0.0933337 1.94312C0.17418 1.62547 0.30554 1.33041 0.47989 1.07486C0.672569 0.784744 0.915477 0.550367 1.19115 0.388572C1.46683 0.226778 1.76842 0.141584 2.07427 0.139114Z" fill="#50589D"/>
</svg>
