<svg width="350" height="357" viewBox="0 0 350 357" fill="none" xmlns="http://www.w3.org/2000/svg">
<path d="M54.7156 154.651V231.977L39.7932 248.708L36.9714 252.87C29.3647 264.09 13.0914 264.8 4.53686 254.285V254.285C1.60212 250.678 -0.00012207 246.169 -0.00012207 241.519V232.121C-0.00012207 224.312 1.95933 216.628 5.69875 209.772L8.26954 205.059C17.1326 188.81 29.2319 174.55 43.8205 163.159L54.7156 154.651Z" fill="#50589D"/>
<path d="M295.284 154.651V231.977L310.207 248.708L313.028 252.87C320.635 264.09 336.908 264.8 345.463 254.285V254.285C348.398 250.678 350 246.169 350 241.519V232.121C350 224.312 348.04 216.628 344.301 209.772L341.73 205.059C332.867 188.81 320.768 174.55 306.179 163.159L295.284 154.651Z" fill="#50589D"/>
<path d="M299.364 117.594C306.646 185.5 299.364 442.75 173.505 326.786C47.6456 442.75 37.1455 185.5 47.6456 117.594C47.6456 52.6484 103.995 0 173.505 0C243.015 0 299.364 52.6484 299.364 117.594Z" fill="#50589D"/>
<path d="M270.444 113.561C270.444 160.262 226.917 169.181 173.222 169.181C119.528 169.181 76 160.262 76 113.561C76 66.8591 119.528 29 173.222 29C226.917 29 270.444 66.8591 270.444 113.561Z" fill="#F6E6D0"/>
</svg>
