<svg width="114" height="76" viewBox="0 0 114 76" fill="none" xmlns="http://www.w3.org/2000/svg">
<path d="M4.2576 16.7196C3.70689 18.7748 5.91602 20.47 7.75873 19.4061L28.7925 7.26221C30.6484 6.19071 30.5907 3.49258 28.6906 2.50147V2.50147C27.8116 2.04294 26.7526 2.09977 25.9276 2.64972L16.7653 8.75797L5.37961 15.264C4.82644 15.5801 4.4225 16.1042 4.2576 16.7196V16.7196Z" fill="#343137"/>
<path d="M109.32 16.7205C109.871 18.7758 107.661 20.4709 105.819 19.4071L84.7849 7.26319C82.929 6.19168 82.9867 3.49356 84.8868 2.50245V2.50245C85.7658 2.04392 86.8248 2.10074 87.6498 2.65069L96.8121 8.75894L108.198 15.265C108.751 15.5811 109.155 16.1051 109.32 16.7205V16.7205Z" fill="#343137"/>
<path d="M43.0772 74.0772C41.5726 72.5726 42.6382 70 44.766 70H69.0537C71.1967 70 72.4958 72.3655 71.3458 74.1739V74.1739C70.8138 75.0105 69.8683 75.4908 68.8789 75.427L57.8899 74.7183L44.7766 74.7767C44.1395 74.7795 43.5277 74.5277 43.0772 74.0772V74.0772Z" fill="#343137"/>
<circle cx="22.7496" cy="36.75" r="8.75" fill="#343137"/>
<circle cx="92.7496" cy="36.75" r="8.75" fill="#343137"/>
</svg>
