<svg width="100" height="102" viewBox="0 0 100 102" fill="none" xmlns="http://www.w3.org/2000/svg">
<path d="M15.6331 65.4961V43.4031L11.3695 38.6227L10.5633 37.4335C8.38995 34.2279 3.74044 34.0251 1.29628 37.0294C0.457783 38.06 0 39.3481 0 40.6768V43.3619C0 45.5931 0.559844 47.7886 1.62825 49.7474L2.36276 51.094C4.89507 55.7365 8.352 59.8109 12.5202 63.0655L15.6331 65.4961Z" fill="#484848"/>
<path d="M84.3669 65.4961V43.4031L88.6305 38.6227L89.4367 37.4335C91.61 34.2279 96.2595 34.0251 98.7037 37.0294C99.5422 38.06 100 39.3481 100 40.6768V43.3619C100 45.5931 99.4401 47.7886 98.3717 49.7474L97.6372 51.094C95.1049 55.7365 91.648 59.8109 87.4798 63.0655L84.3669 65.4961Z" fill="#484848"/>
<path d="M85.5635 33.5982C87.644 53 85.5635 126.5 49.6037 93.3675C13.644 126.5 10.6439 53 13.644 33.5982C13.644 15.0424 29.7437 0 49.6037 0C69.4637 0 85.5635 15.0424 85.5635 33.5982Z" fill="#484848"/>
<path d="M77.1318 35.2713C77.1318 48.6146 64.6953 51.1628 49.354 51.1628C34.0128 51.1628 21.5763 48.6146 21.5763 35.2713C21.5763 21.928 34.0128 11.1111 49.354 11.1111C64.6953 11.1111 77.1318 21.928 77.1318 35.2713Z" fill="#F6E6D0"/>
<path d="M45.9773 40C45.4853 38.5241 46.5838 37 48.1395 37H51.8637C53.4287 37 54.5628 38.492 54.1439 40C53.3208 44.5269 46.8334 44.5207 45.9773 40Z" fill="#343137"/>
<path d="M42.6439 28.5C42.6439 29.8807 41.5246 31 40.1439 31C38.7632 31 37.6439 29.8807 37.6439 28.5C37.6439 27.1193 38.7632 26 40.1439 26C41.5246 26 42.6439 27.1193 42.6439 28.5Z" fill="#343137"/>
<path d="M62.6439 28.5C62.6439 29.8807 61.5246 31 60.1439 31C58.7632 31 57.6439 29.8807 57.6439 28.5C57.6439 27.1193 58.7632 26 60.1439 26C61.5246 26 62.6439 27.1193 62.6439 28.5Z" fill="#343137"/>
<path d="M85.5 41L86.5 42L89.5 48.5L85.5 64L84.5 66.5L82.5 67L83 43.5L85.5 41Z" fill="#484848"/>
</svg>
