<svg width="350" height="357" viewBox="0 0 350 357" fill="none" xmlns="http://www.w3.org/2000/svg">
<path d="M54.7153 154.651V231.977L39.7928 248.708L36.971 252.87C29.3643 264.09 13.091 264.8 4.53649 254.285V254.285C1.60175 250.678 -0.000488281 246.169 -0.000488281 241.519V232.121C-0.000488281 224.312 1.95896 216.628 5.69838 209.772L8.26917 205.059C17.1323 188.81 29.2315 174.55 43.8201 163.159L54.7153 154.651Z" fill="#6E9DD1"/>
<path d="M295.284 154.651V231.977L310.206 248.708L313.028 252.87C320.635 264.09 336.908 264.8 345.463 254.285V254.285C348.397 250.678 350 246.169 350 241.519V232.121C350 224.312 348.04 216.628 344.301 209.772L341.73 205.059C332.867 188.81 320.767 174.55 306.179 163.159L295.284 154.651Z" fill="#6E9DD1"/>
<path d="M298.116 117.594C305.398 185.5 298.116 442.75 172.257 326.786C46.3977 442.75 35.8976 185.5 46.3977 117.594C46.3977 52.6484 102.747 0 172.257 0C241.767 0 298.116 52.6484 298.116 117.594Z" fill="#6E9DD1"/>
<path d="M269.444 113.561C269.444 160.262 225.917 169.181 172.222 169.181C118.528 169.181 75 160.262 75 113.561C75 66.8591 118.528 29 172.222 29C225.917 29 269.444 66.8591 269.444 113.561Z" fill="#F6E6D0"/>
</svg>
