<svg width="350" height="357" viewBox="0 0 350 357" fill="none" xmlns="http://www.w3.org/2000/svg">
<path d="M54.7158 154.651V231.977L39.7933 248.708L36.9715 252.87C29.3648 264.09 13.0915 264.8 4.53698 254.285V254.285C1.60224 250.678 0 246.169 0 241.519V232.121C0 224.312 1.95945 216.628 5.69887 209.772L8.26966 205.059C17.1328 188.81 29.232 174.55 43.8206 163.159L54.7158 154.651Z" fill="#F3CA1E"/>
<path d="M295.284 154.651V231.977L310.207 248.708L313.029 252.87C320.635 264.09 336.908 264.8 345.463 254.285V254.285C348.398 250.678 350 246.169 350 241.519V232.121C350 224.312 348.041 216.628 344.301 209.772L341.73 205.059C332.867 188.81 320.768 174.55 306.179 163.159L295.284 154.651Z" fill="#F3CA1E"/>
<path d="M300.718 117.594C307.999 185.5 300.718 442.75 174.858 326.786C48.9993 442.75 38.4991 185.5 48.9992 117.594C48.9992 52.6484 105.348 0 174.858 0C244.368 0 300.718 52.6484 300.718 117.594Z" fill="#F3CA1E"/>
<path d="M271.444 113.449C271.444 160.151 227.917 169.07 174.222 169.07C120.528 169.07 77 160.151 77 113.449C77 66.7478 120.528 28.8887 174.222 28.8887C227.917 28.8887 271.444 66.7478 271.444 113.449Z" fill="#F6E6D0"/>
</svg>
