<svg width="20" height="20" viewBox="0 0 20 20" fill="none" xmlns="http://www.w3.org/2000/svg">
<path fill-rule="evenodd" clip-rule="evenodd" d="M19.6209 2.20773C19.741 2.08779 19.8363 1.94537 19.9013 1.7886C19.9664 1.63183 19.9999 1.46378 20 1.29405C20.0001 1.12432 19.9668 0.956236 19.9019 0.799388C19.8371 0.642539 19.742 0.5 19.622 0.37991C19.5021 0.25982 19.3596 0.16453 19.2029 0.0994814C19.0461 0.0344326 18.8781 0.000898753 18.7083 0.000794432C18.5386 0.000690112 18.3705 0.0340174 18.2137 0.0988734C18.0568 0.163729 17.9143 0.258844 17.7942 0.378786L9.99984 8.17314L2.20773 0.378786C1.9652 0.136253 1.63625 -2.5555e-09 1.29326 0C0.950265 2.5555e-09 0.621319 0.136253 0.378786 0.378786C0.136253 0.621319 2.5555e-09 0.950265 0 1.29326C-2.5555e-09 1.63625 0.136253 1.9652 0.378786 2.20773L8.17314 9.99984L0.378786 17.7919C0.258696 17.912 0.163436 18.0546 0.0984432 18.2115C0.0334509 18.3684 0 18.5366 0 18.7064C0 18.8762 0.0334509 19.0444 0.0984432 19.2013C0.163436 19.3582 0.258696 19.5008 0.378786 19.6209C0.621319 19.8634 0.950265 19.9997 1.29326 19.9997C1.46309 19.9997 1.63126 19.9662 1.78817 19.9012C1.94507 19.8362 2.08764 19.741 2.20773 19.6209L9.99984 11.8265L17.7942 19.6209C18.0367 19.8631 18.3655 19.9991 18.7083 19.9989C19.0511 19.9987 19.3798 19.8623 19.622 19.6198C19.8642 19.3772 20.0002 19.0484 20 18.7056C19.9998 18.3628 19.8634 18.0342 19.6209 17.7919L11.8265 9.99984L19.6209 2.20773Z" fill="white"/>
</svg>
