<svg width="200" height="200" viewBox="0 0 200 200" fill="none" xmlns="http://www.w3.org/2000/svg">
<path d="M100 183.333C53.9753 183.333 16.667 146.025 16.667 99.9998C16.667 53.9748 53.9753 16.6665 100 16.6665C146.025 16.6665 183.334 53.9748 183.334 99.9998C183.334 146.025 146.025 183.333 100 183.333ZM100 166.667C117.681 166.667 134.638 159.643 147.141 147.14C159.643 134.638 166.667 117.681 166.667 99.9998C166.667 82.3187 159.643 65.3618 147.141 52.8594C134.638 40.357 117.681 33.3332 100 33.3332C82.3192 33.3332 65.3623 40.357 52.8599 52.8594C40.3575 65.3618 33.3337 82.3187 33.3337 99.9998C33.3337 117.681 40.3575 134.638 52.8599 147.14C65.3623 159.643 82.3192 166.667 100 166.667ZM100 58.3332C102.21 58.3332 104.33 59.2111 105.893 60.774C107.456 62.3368 108.334 64.4564 108.334 66.6665V108.333C108.334 110.543 107.456 112.663 105.893 114.226C104.33 115.789 102.21 116.667 100 116.667C97.7902 116.667 95.6706 115.789 94.1078 114.226C92.545 112.663 91.667 110.543 91.667 108.333V66.6665C91.667 64.4564 92.545 62.3368 94.1078 60.774C95.6706 59.2111 97.7902 58.3332 100 58.3332ZM100 141.667C97.7902 141.667 95.6706 140.789 94.1078 139.226C92.545 137.663 91.667 135.543 91.667 133.333C91.667 131.123 92.545 129.003 94.1078 127.441C95.6706 125.878 97.7902 125 100 125C102.21 125 104.33 125.878 105.893 127.441C107.456 129.003 108.334 131.123 108.334 133.333C108.334 135.543 107.456 137.663 105.893 139.226C104.33 140.789 102.21 141.667 100 141.667Z" fill="#F5DE75"/>
</svg>
