<svg width="95" height="50" viewBox="0 0 95 50" fill="none" xmlns="http://www.w3.org/2000/svg">
<rect y="5" width="95" height="40" rx="20" fill="#FEFCF0"/>
<path d="M50.8522 33.4756H46.6148L47 37.66L47.0947 38.4599C47.346 40.5839 50.3801 40.7145 50.8131 38.6201C50.8391 38.4945 50.8522 38.3666 50.8522 38.2384V36.0929V33.4756Z" fill="#50589D"/>
<path d="M50.8522 16.5244H46.6148L47 12.34L47.0947 11.5401C47.346 9.41614 50.3801 9.28545 50.8131 11.3799C50.8391 11.5055 50.8522 11.6334 50.8522 11.7616V13.9071V16.5244Z" fill="#50589D"/>
<path d="M51.7234 33.8169C47.9549 34.2102 41.4684 34.3752 38.5044 29.8927C36.6775 27.1299 36.8161 23.3698 38.3021 20.4098C41.2107 14.6163 47.7872 15.9837 51.7234 16.576C56.2944 16.576 59.9999 20.4355 59.9999 25.1965C59.9999 29.9574 56.2944 33.8169 51.7234 33.8169Z" fill="#50589D"/>
<path d="M56.6121 25.8423C56.612 30.1733 52.8932 31.0003 48.3059 31.0002C43.7186 31 39.9999 30.1729 40 25.8419C40.0002 21.5109 43.719 18.0001 48.3063 18.0002C52.8936 18.0003 56.6122 21.5114 56.6121 25.8423Z" fill="#F6E6D0"/>
<path d="M47.1043 26.8508C46.9589 26.6992 47.0664 26.4473 47.2765 26.4473L49.5853 26.4473C49.7967 26.4473 49.9267 26.6788 49.8166 26.8593C49.764 26.9456 49.6679 26.9954 49.5671 26.9886L48.5257 26.9185L47.2776 26.9243C47.2122 26.9246 47.1495 26.898 47.1043 26.8508Z" fill="#343137"/>
<ellipse cx="44.8751" cy="23.1263" rx="0.837547" ry="0.873838" fill="#343137"/>
<ellipse cx="51.5753" cy="23.1268" rx="0.837547" ry="0.873838" fill="#343137"/>
<path d="M29.6367 16.9704C30.4836 16.8571 31.0094 17.258 31.1225 18.1035L33.0373 32.4164C33.3524 34.7717 31.0954 35.5449 28.3501 34.6623C27.9428 34.5324 27.776 34.2063 27.8256 33.8103C27.878 33.4345 28.1186 33.2384 28.5877 33.2166C30.3031 33.151 30.4106 33.0342 30.3566 32.0169L29.7022 27.1251L27.0405 27.4812L27.3313 29.6553C27.3906 30.0982 27.4471 30.2136 27.8302 30.1623C28.0117 30.1381 28.3921 30.0667 28.6663 29.9685C29.1744 29.7776 29.649 29.7961 29.9167 30.416C30.2099 31.0734 30.0823 31.5003 29.5325 31.8403C29.058 32.1291 28.7125 32.1549 27.9463 32.2574C25.7282 32.5541 25.3826 32.2725 25.1376 30.4406L24.7821 27.7834L24.1771 27.8643L25.1117 34.8496C25.2032 35.5341 24.8108 35.9759 23.984 36.0865C23.1573 36.1971 22.6625 35.874 22.5709 35.1895L22.3797 33.7603L22.2668 33.8368C21.6391 34.2077 21.0852 34.0564 20.8121 33.3962C20.4409 32.4623 19.9849 31.3553 19.6003 30.6281C19.4053 30.2444 19.4281 29.9545 19.709 29.753C20.0275 29.526 20.3233 29.5888 20.6057 29.8584C21.122 30.3426 21.6545 30.9476 22.0862 31.566L21.7791 29.2711C21.724 29.3195 21.6488 29.3705 21.5735 29.4216C20.9632 29.7696 20.3919 29.6411 20.1363 28.9581L19.9816 28.569C18.7423 29.4315 17.6213 29.9503 16.3604 30.3444C15.4745 30.6269 14.8897 30.3977 14.6704 29.5255C14.4537 28.6733 14.7547 28.1618 15.7603 28.0068L15.9821 27.9771C16.4739 27.0507 16.8716 26.0344 17.2061 25.0061C16.6711 25.303 16.1106 25.5624 15.5191 25.744C14.7139 26.0157 14.1613 25.7208 13.9676 24.8861C13.7846 24.1319 14.0654 23.623 14.9527 23.5043C15.2401 22.2774 15.4064 20.7593 15.4921 19.252C15.5443 18.2615 16.0779 17.8007 17.0177 17.9209C17.9144 18.0263 18.2855 18.6529 18.0263 19.6302C17.6986 20.8625 17.2902 22.1056 16.6411 23.2375C17.039 23.1433 17.4194 23.0719 17.777 22.983C17.8965 22.4958 18.0188 22.0286 18.1181 21.544C18.3223 20.6151 18.9258 20.3704 19.7526 20.5672C20.5593 20.7666 20.8202 21.4899 20.5301 22.3893C19.9403 24.2714 18.997 26.1189 17.8063 27.6511C18.3279 27.5608 18.844 27.4303 19.4207 27.2916C19.3306 27.0783 19.2203 26.8677 19.1302 26.6543C18.9325 26.2505 18.9782 25.978 19.2564 25.7563C19.5521 25.5119 19.8479 25.5747 20.1504 25.8416C20.6613 26.2855 21.1373 26.7751 21.5152 27.2983L20.4757 19.5279C20.3625 18.6824 20.7644 18.1573 21.6113 18.044L29.6367 16.9704ZM23.2987 19.4576C23.1576 19.4764 23.0702 19.5906 23.0891 19.7315L23.59 23.4758C23.6975 23.359 23.8736 23.2944 24.0753 23.2674L26.4345 22.9518C26.4975 22.0418 26.4878 20.8956 26.4984 20.054C26.5103 19.3762 26.9445 19.0928 27.6516 19.1621C28.3588 19.2314 28.582 19.6728 28.4747 20.4044C28.37 21.1561 28.2048 21.9158 27.7654 22.7738L28.5719 22.6659C28.7938 22.6362 28.9833 22.6723 29.1178 22.7568L28.6141 18.9923C28.5953 18.8514 28.481 18.7643 28.3399 18.7831L23.2987 19.4576ZM24.2767 22.3184C24.0091 21.6985 23.736 21.0383 23.5101 20.5768C23.3379 20.2105 23.4642 19.9272 23.7478 19.7458C24.0489 19.5416 24.3474 19.6246 24.627 19.8741C25.095 20.3033 25.5898 20.9338 25.9045 21.4449C26.2448 21.9936 26.1077 22.5038 25.5499 22.7833C24.9719 23.0655 24.5444 22.9383 24.2767 22.3184ZM27.9704 25.8405L29.5029 25.6355L29.2794 23.9646C29.1718 24.0814 28.9984 24.1661 28.7766 24.1958L27.7684 24.3307L27.9704 25.8405ZM23.757 24.7239L23.9778 26.3746L25.47 26.175L25.268 24.6652L24.28 24.7974C24.0783 24.8244 23.8914 24.8084 23.757 24.7239ZM19.123 30.5895C19.5776 31.5328 20.0874 32.735 20.4332 33.9387C20.6619 34.7278 20.381 35.2366 19.5825 35.4049C18.8042 35.5705 18.3148 35.2877 18.2393 34.4166C18.1409 33.2208 18.0103 32.0908 17.842 30.9863C17.7854 30.5636 17.9373 30.3179 18.2921 30.2089C18.6269 30.1027 18.9509 30.2232 19.123 30.5895ZM16.7153 30.5428C17.1038 30.5318 17.3754 30.7209 17.4656 31.2416C17.6568 32.3635 17.7525 33.8465 17.7111 34.9176C17.6683 35.8249 16.9505 36.2898 16.1439 36.0904C15.3802 35.9056 15.0373 35.3368 15.3678 34.432C15.6835 33.5701 16.0046 32.4411 16.093 31.2613C16.1319 30.7848 16.347 30.5511 16.7153 30.5428Z" fill="#50589D"/>
<path d="M72.0371 26.0184L68.8306 25.5897C68.6886 25.5707 68.5736 25.6579 68.5547 25.799L68.1935 28.5008C68.0856 29.3073 67.4987 29.6803 66.5651 29.5554C65.6316 29.4306 65.1633 28.9165 65.2711 28.11L65.6998 24.9042C65.813 24.0574 66.3418 23.6561 67.1942 23.7701L72.2474 24.4458L72.3121 23.9619L68.5577 23.4599C67.7053 23.3459 67.3006 22.8197 67.4138 21.9729L67.8479 18.7268C67.9611 17.88 68.4899 17.4787 69.3423 17.5927L79.9764 19.0147C80.8288 19.1287 81.2335 19.6548 81.1203 20.5016L80.6862 23.7477C80.573 24.5945 80.0442 24.9958 79.1918 24.8819L75.4374 24.3798L75.3727 24.8637L80.4665 25.5449C81.3189 25.6589 81.7237 26.185 81.6104 27.0318L81.2572 29.673C80.9795 31.7498 79.359 32.1282 76.4822 30.7789C76.0722 30.601 75.9476 30.297 76.0746 29.9651C76.2016 29.6332 76.4843 29.5273 76.9254 29.6274C77.8454 29.853 78.212 29.7379 78.3349 29.2823L78.1766 29.3842C77.5721 29.7344 77.0782 29.5657 76.7938 28.912L76.7491 28.7829C74.8796 29.1691 72.216 29.4696 69.7767 29.3282C68.896 29.272 68.4371 28.8412 68.5071 28.0091C68.5717 27.2174 69.0368 26.8281 69.9474 26.9704L71.8753 27.2282L72.0371 26.0184ZM70.83 19.5976L70.7734 20.021L72.8028 20.2924L72.8918 19.627L71.1059 19.3882C70.9638 19.3692 70.8489 19.4565 70.83 19.5976ZM76.0171 20.045L75.9281 20.7103L77.9575 20.9817L78.0141 20.5583C78.033 20.4171 77.945 20.3028 77.803 20.2838L76.0171 20.045ZM70.7311 22.1908L72.517 22.4296L72.6087 21.7441L70.5793 21.4727L70.5199 21.9163C70.5011 22.0574 70.5891 22.1718 70.7311 22.1908ZM75.734 22.162L75.6423 22.8475L77.4282 23.0863C77.5703 23.1053 77.6852 23.0181 77.7041 22.8769L77.7634 22.4334L75.734 22.162ZM76.0351 26.5531L75.1624 26.4364L75.0114 27.5654C75.4403 27.6023 75.8516 27.6162 76.2399 27.6476L75.9948 27.1633C75.8621 26.9199 75.889 26.7182 76.0351 26.5531ZM78.6207 27.1451C78.6395 27.0039 78.5515 26.8896 78.4095 26.8706L77.0904 26.6942C77.5573 27.0644 77.9985 27.4723 78.4086 27.9582L78.4966 28.0725L78.6207 27.1451ZM72.7328 29.6209C73.4798 29.9054 74.3391 30.4308 75.0225 31.0353C75.6884 31.6169 75.7415 32.3012 75.0437 32.8851C74.3716 33.4315 73.664 33.3163 73.1901 32.5347C72.7989 31.9077 72.3575 31.192 71.8594 30.5918C71.6103 30.2917 71.6656 30.0323 71.8684 29.7515C72.0712 29.4708 72.3986 29.4941 72.7328 29.6209ZM77.032 31.9196C77.4405 31.9538 77.649 32.2484 77.7575 32.6734C78.5192 35.6279 77.4603 36.5945 75.1455 36.4492C73.4652 36.3476 71.5427 36.0495 70.4143 35.837C67.9749 35.3877 67.4618 34.7445 67.7719 32.4258L67.9876 30.8128C68.1143 29.8652 68.6986 29.5124 69.6524 29.6399C70.6062 29.7675 71.0772 30.2614 70.9505 31.209L70.7995 32.3381C70.6971 33.1043 70.8352 33.3075 71.5171 33.4602C72.6604 33.7157 74.1189 33.9313 75.2106 33.9541C75.8505 33.9576 76.0357 33.654 76.2625 32.5761C76.3705 32.0775 76.6437 31.8882 77.032 31.9196ZM67.1687 29.985C67.576 30.1832 67.637 30.4992 67.5371 30.9373C67.2739 32.1335 66.9672 33.0365 66.1979 34.0008C65.6774 34.6495 64.6831 34.8244 64.0009 34.0559C63.3539 33.3332 63.5456 32.5174 64.3395 31.9873C65.1563 31.4398 65.6391 31.0734 66.1759 30.3038C66.4557 29.9102 66.7817 29.7896 67.1687 29.985ZM81.3284 34.2386C81.6981 35.0269 81.5199 35.7418 80.6109 36.0513C79.7019 36.3607 79.0578 35.9257 78.8598 34.9346C78.7011 34.113 78.4707 33.3639 78.1971 32.6296C78.0454 32.2193 78.1724 31.8874 78.5295 31.6889C78.8865 31.4904 79.1829 31.5916 79.4955 31.8797C80.2142 32.5299 80.8788 33.2755 81.3284 34.2386Z" fill="#50589D"/>
</svg>
