<svg width="32" height="20" viewBox="0 0 32 20" fill="none" xmlns="http://www.w3.org/2000/svg">
<path d="M29.4984 19.1663C28.9683 19.1675 28.4547 18.9546 28.0466 18.5646L15.8876 6.84381L3.70603 18.146C3.474 18.3633 3.20701 18.5256 2.92041 18.6235C2.63382 18.7215 2.33327 18.7531 2.03604 18.7166C1.7388 18.6802 1.45075 18.5763 1.18843 18.411C0.926118 18.2458 0.69471 18.0223 0.507511 17.7536C0.319079 17.486 0.178364 17.178 0.0934518 16.8475C0.00853961 16.517 -0.0188947 16.1703 0.0127259 15.8275C0.0443464 15.4847 0.134398 15.1525 0.277705 14.85C0.421012 14.5474 0.614749 14.2806 0.84778 14.0647L14.4585 1.42818C14.8644 1.04337 15.3736 0.83301 15.899 0.83301C16.4244 0.833011 16.9336 1.04337 17.3395 1.42818L30.9502 14.5094C31.1799 14.7291 31.3698 14.9988 31.5089 15.3032C31.6481 15.6076 31.7339 15.9406 31.7613 16.2833C31.7886 16.626 31.7572 16.9715 31.6686 17.3001C31.58 17.6287 31.4361 17.934 31.2451 18.1983C31.034 18.4984 30.7679 18.7409 30.4659 18.9083C30.1639 19.0757 29.8334 19.1638 29.4984 19.1663Z" fill="#50589D"/>
</svg>
