<svg width="30" height="18" viewBox="0 0 30 18" fill="none" xmlns="http://www.w3.org/2000/svg">
<path d="M2.57427 0.139114C3.05807 0.13796 3.52693 0.343759 3.89946 0.720791L14.998 12.0509L26.1172 1.12544C26.329 0.915365 26.5727 0.758484 26.8343 0.663818C27.0959 0.569151 27.3702 0.538566 27.6415 0.573818C27.9128 0.609072 28.1758 0.709467 28.4152 0.869236C28.6546 1.029 28.8659 1.245 29.0367 1.5048C29.2087 1.76349 29.3372 2.06114 29.4147 2.38066C29.4922 2.70018 29.5172 3.03525 29.4884 3.36663C29.4595 3.69801 29.3773 4.01915 29.2465 4.3116C29.1157 4.60405 28.9389 4.86204 28.7262 5.07074L16.3025 17.286C15.932 17.658 15.4672 17.8613 14.9876 17.8613C14.508 17.8613 14.0433 17.658 13.6728 17.286L1.24907 4.6408C1.0394 4.42849 0.86609 4.16775 0.739053 3.8735C0.612016 3.57926 0.533752 3.25729 0.508748 2.92604C0.483743 2.5948 0.512489 2.26078 0.593334 1.94312C0.67418 1.62547 0.80554 1.33041 0.97989 1.07486C1.17257 0.784744 1.41548 0.550367 1.69115 0.388572C1.96683 0.226778 2.26842 0.141584 2.57427 0.139114Z" fill="#50589D"/>
</svg>
