<svg width="100" height="102" viewBox="0 0 100 102" fill="none" xmlns="http://www.w3.org/2000/svg">
<path d="M15.6331 44.186V66.2791L11.3695 71.0594L10.5633 72.2486C8.38995 75.4543 3.74044 75.657 1.29628 72.6528C0.457783 71.6221 0 70.334 0 69.0054V66.3202C0 64.089 0.559844 61.8935 1.62825 59.9348L2.36276 58.5882C4.89507 53.9456 8.352 49.8713 12.5202 46.6167L15.6331 44.186Z" fill="#F3CA1E"/>
<path d="M84.3669 44.186V66.2791L88.6305 71.0594L89.4367 72.2486C91.61 75.4543 96.2595 75.657 98.7037 72.6528C99.5422 71.6221 100 70.334 100 69.0054V66.3202C100 64.089 99.4401 61.8935 98.3717 59.9348L97.6372 58.5882C95.1049 53.9456 91.648 49.8713 87.4798 46.6167L84.3669 44.186Z" fill="#F3CA1E"/>
<path d="M85.9195 33.5982C88 53 85.9195 126.5 49.9598 93.3675C14 126.5 11 53 14 33.5982C14 15.0424 30.0998 0 49.9598 0C69.8198 0 85.9195 15.0424 85.9195 33.5982Z" fill="#F3CA1E"/>
<path d="M77.1318 35.2715C77.1318 48.6148 64.6953 51.163 49.354 51.163C34.0128 51.163 21.5763 48.6148 21.5763 35.2715C21.5763 21.9282 34.0128 11.1113 49.354 11.1113C64.6953 11.1113 77.1318 21.9282 77.1318 35.2715Z" fill="#F6E6D0"/>
<circle cx="39.5" cy="28.5" r="2.5" fill="#343137"/>
<circle cx="59.5" cy="28.5" r="2.5" fill="#343137"/>
<path d="M46 37C45.631 36.631 45.8923 36 46.4142 36H53.5858C54.1077 36 54.369 36.631 54 37C51.7098 39.0039 48.2902 39.0039 46 37Z" fill="#343137"/>
</svg>
