<svg width="473" height="327" viewBox="0 0 473 327" fill="none" xmlns="http://www.w3.org/2000/svg">
<path d="M141.621 178.906V235.407L130.717 247.632L128.655 250.674C123.097 258.872 111.207 259.39 104.956 251.707C102.811 249.072 101.641 245.777 101.641 242.379V235.512C101.641 229.806 103.072 224.191 105.805 219.182L107.683 215.738C114.159 203.865 123 193.446 133.66 185.122L141.621 178.906Z" fill="#6E9DD1"/>
<path d="M317.401 178.906V235.407L328.305 247.632L330.367 250.674C335.925 258.872 347.816 259.39 354.066 251.707C356.211 249.072 357.382 245.777 357.382 242.379V235.512C357.382 229.806 355.95 224.191 353.217 219.182L351.339 215.738C344.863 203.865 336.022 193.446 325.362 185.122L317.401 178.906Z" fill="#6E9DD1"/>
<path d="M319.471 151.83C324.792 201.449 319.471 389.418 227.507 304.685C135.544 389.418 127.871 201.449 135.544 151.83C135.544 104.376 176.717 65.9062 227.507 65.9062C278.298 65.9062 319.471 104.376 319.471 151.83Z" fill="#6E9DD1"/>
<path d="M298.898 156.112C298.898 190.236 267.093 196.753 227.859 196.753C188.625 196.753 156.82 190.236 156.82 156.112C156.82 121.987 188.625 94.3242 227.859 94.3242C267.093 94.3242 298.898 121.987 298.898 156.112Z" fill="#F6E6D0"/>
<circle cx="204.101" cy="135.58" r="5.73777" fill="#343137"/>
<circle cx="251.643" cy="135.58" r="5.73777" fill="#343137"/>
<path d="M218.855 156.253C218.073 155.674 218.483 154.432 219.456 154.432H237.927C238.9 154.432 239.31 155.674 238.528 156.253C232.544 160.132 224.839 160.132 218.855 156.253Z" fill="#343137"/>
<path d="M365.697 180.278C365.964 179.811 366.461 179.523 366.998 179.523H468.953C470.059 179.523 470.784 180.679 470.305 181.675L437.12 250.544C436.87 251.063 436.345 251.393 435.769 251.393H327.565C326.413 251.393 325.691 250.148 326.263 249.148L365.697 180.278Z" fill="#EDEDED" stroke="#C0BFBF"/>
<rect x="385.078" y="209.809" width="27.4163" height="11.5437" rx="5.77184" fill="#FEFCF0"/>
<path d="M399.754 217.548H398.531L398.642 218.755L398.67 218.986C398.742 219.599 399.618 219.637 399.743 219.032C399.75 218.996 399.754 218.959 399.754 218.922V218.303V217.548Z" fill="#50589D"/>
<path d="M399.754 212.654H398.531L398.642 211.446L398.67 211.215C398.742 210.602 399.618 210.564 399.743 211.169C399.75 211.205 399.754 211.242 399.754 211.279V211.898V212.654Z" fill="#50589D"/>
<path d="M400.005 217.644C399.732 217.673 399.387 217.714 399.007 217.741C395.703 217.973 395.234 212.756 398.542 212.588C399.098 212.56 399.619 212.611 400.005 212.669C401.324 212.669 402.394 213.783 402.394 215.157C402.394 216.531 401.324 217.644 400.005 217.644Z" fill="#50589D"/>
<path d="M401.64 215.573C401.64 216.631 400.732 216.833 399.612 216.833C398.492 216.833 397.584 216.631 397.584 215.573C397.584 214.516 398.492 213.658 399.612 213.658C400.732 213.658 401.64 214.516 401.64 215.573Z" fill="#F6E6D0"/>
<path d="M399.319 215.819C399.283 215.782 399.31 215.721 399.361 215.721L399.925 215.721C399.976 215.721 400.008 215.777 399.981 215.821C399.968 215.842 399.945 215.855 399.92 215.853L399.666 215.836L399.361 215.837C399.345 215.837 399.33 215.831 399.319 215.819Z" fill="#343137"/>
<ellipse cx="398.774" cy="214.909" rx="0.204519" ry="0.213381" fill="#343137"/>
<ellipse cx="400.411" cy="214.909" rx="0.204519" ry="0.213381" fill="#343137"/>
<path d="M393.631 212.781C393.876 212.748 394.027 212.864 394.06 213.108L394.613 217.238C394.704 217.918 394.052 218.141 393.26 217.886C393.142 217.849 393.094 217.755 393.109 217.641C393.124 217.532 393.193 217.476 393.329 217.469C393.824 217.45 393.855 217.417 393.839 217.123L393.65 215.711L392.882 215.814L392.966 216.441C392.983 216.569 392.999 216.603 393.11 216.588C393.162 216.581 393.272 216.56 393.351 216.532C393.498 216.477 393.635 216.482 393.712 216.661C393.797 216.851 393.76 216.974 393.601 217.072C393.464 217.155 393.365 217.163 393.143 217.192C392.503 217.278 392.404 217.197 392.333 216.668L392.23 215.901L392.056 215.925L392.325 217.941C392.352 218.138 392.239 218.266 392 218.297C391.761 218.329 391.619 218.236 391.592 218.039L391.537 217.626L391.504 217.648C391.323 217.755 391.163 217.712 391.085 217.521C390.977 217.252 390.846 216.932 390.735 216.722C390.679 216.611 390.685 216.528 390.766 216.47C390.858 216.404 390.944 216.422 391.025 216.5C391.174 216.64 391.328 216.814 391.452 216.993L391.364 216.331C391.348 216.345 391.326 216.359 391.304 216.374C391.128 216.474 390.963 216.437 390.89 216.24L390.845 216.128C390.487 216.377 390.164 216.527 389.8 216.64C389.544 216.722 389.375 216.656 389.312 216.404C389.25 216.158 389.336 216.01 389.627 215.966L389.691 215.957C389.833 215.69 389.947 215.397 390.044 215.1C389.89 215.185 389.728 215.26 389.557 215.313C389.325 215.391 389.165 215.306 389.109 215.065C389.057 214.847 389.138 214.701 389.394 214.666C389.477 214.312 389.525 213.874 389.549 213.439C389.564 213.153 389.718 213.02 389.99 213.055C390.248 213.085 390.355 213.266 390.281 213.548C390.186 213.904 390.068 214.263 389.881 214.589C389.996 214.562 390.105 214.542 390.209 214.516C390.243 214.375 390.278 214.24 390.307 214.101C390.366 213.833 390.54 213.762 390.779 213.819C391.012 213.876 391.087 214.085 391.003 214.345C390.833 214.888 390.561 215.421 390.217 215.863C390.368 215.837 390.517 215.799 390.683 215.759C390.657 215.698 390.625 215.637 390.599 215.575C390.542 215.459 390.555 215.38 390.636 215.316C390.721 215.246 390.806 215.264 390.894 215.341C391.041 215.469 391.178 215.61 391.288 215.761L390.987 213.519C390.955 213.275 391.071 213.123 391.315 213.091L393.631 212.781ZM391.802 213.498C391.761 213.504 391.736 213.537 391.742 213.578L391.886 214.658C391.917 214.624 391.968 214.606 392.026 214.598L392.707 214.507C392.725 214.244 392.723 213.913 392.726 213.671C392.729 213.475 392.854 213.393 393.058 213.413C393.263 213.433 393.327 213.561 393.296 213.772C393.266 213.989 393.218 214.208 393.091 214.456L393.324 214.424C393.388 214.416 393.443 214.426 393.482 214.451L393.336 213.364C393.331 213.324 393.298 213.298 393.257 213.304L391.802 213.498ZM392.084 214.324C392.007 214.145 391.928 213.955 391.863 213.821C391.814 213.716 391.85 213.634 391.932 213.582C392.019 213.523 392.105 213.547 392.186 213.619C392.321 213.743 392.463 213.925 392.554 214.072C392.652 214.23 392.613 214.378 392.452 214.458C392.285 214.54 392.162 214.503 392.084 214.324ZM393.15 215.341L393.593 215.281L393.528 214.799C393.497 214.833 393.447 214.857 393.383 214.866L393.092 214.905L393.15 215.341ZM391.934 215.018L391.998 215.495L392.429 215.437L392.371 215.001L392.085 215.04C392.027 215.047 391.973 215.043 391.934 215.018ZM390.597 216.711C390.728 216.983 390.875 217.33 390.975 217.678C391.041 217.905 390.96 218.052 390.73 218.101C390.505 218.149 390.364 218.067 390.342 217.816C390.314 217.47 390.276 217.144 390.227 216.826C390.211 216.704 390.255 216.633 390.357 216.601C390.454 216.571 390.547 216.605 390.597 216.711ZM389.902 216.698C390.014 216.694 390.093 216.749 390.119 216.899C390.174 217.223 390.202 217.651 390.19 217.96C390.177 218.222 389.97 218.356 389.737 218.299C389.517 218.245 389.418 218.081 389.513 217.82C389.605 217.571 389.697 217.245 389.723 216.905C389.734 216.767 389.796 216.7 389.902 216.698Z" fill="#50589D"/>
<path d="M405.868 215.391L404.942 215.267C404.901 215.261 404.868 215.287 404.863 215.327L404.758 216.107C404.727 216.34 404.558 216.447 404.289 216.411C404.019 216.375 403.884 216.227 403.915 215.994L404.039 215.069C404.071 214.825 404.224 214.709 404.47 214.742L405.928 214.937L405.947 214.797L404.864 214.652C404.618 214.619 404.501 214.468 404.533 214.223L404.659 213.286C404.691 213.042 404.844 212.926 405.09 212.959L408.159 213.369C408.405 213.402 408.522 213.554 408.489 213.799L408.364 214.735C408.331 214.98 408.178 215.096 407.933 215.063L406.849 214.918L406.83 215.057L408.3 215.254C408.546 215.287 408.663 215.439 408.63 215.683L408.529 216.445C408.448 217.045 407.981 217.154 407.151 216.765C407.032 216.713 406.996 216.625 407.033 216.53C407.07 216.434 407.151 216.403 407.278 216.432C407.544 216.497 407.65 216.464 407.685 216.333L407.64 216.362C407.465 216.463 407.323 216.414 407.24 216.226L407.228 216.188C406.688 216.3 405.919 216.387 405.215 216.346C404.961 216.33 404.829 216.205 404.849 215.965C404.868 215.737 405.002 215.624 405.265 215.665L405.821 215.74L405.868 215.391ZM405.519 213.538L405.503 213.66L406.089 213.738L406.114 213.546L405.599 213.477C405.558 213.472 405.525 213.497 405.519 213.538ZM407.016 213.667L406.991 213.859L407.576 213.937L407.593 213.815C407.598 213.774 407.573 213.741 407.532 213.736L407.016 213.667ZM405.491 214.286L406.006 214.355L406.033 214.157L405.447 214.079L405.43 214.207C405.424 214.248 405.45 214.281 405.491 214.286ZM406.935 214.278L406.908 214.476L407.424 214.545C407.465 214.55 407.498 214.525 407.503 214.484L407.52 214.356L406.935 214.278ZM407.021 215.545L406.77 215.511L406.726 215.837C406.85 215.848 406.969 215.852 407.081 215.861L407.01 215.721C406.972 215.651 406.979 215.593 407.021 215.545ZM407.768 215.716C407.773 215.675 407.748 215.642 407.707 215.637L407.326 215.586C407.461 215.693 407.588 215.81 407.706 215.95L407.732 215.983L407.768 215.716ZM406.068 216.43C406.284 216.512 406.532 216.664 406.729 216.839C406.921 217.006 406.937 217.204 406.735 217.372C406.541 217.53 406.337 217.497 406.2 217.271C406.088 217.09 405.96 216.884 405.816 216.711C405.745 216.624 405.761 216.549 405.819 216.468C405.878 216.387 405.972 216.394 406.068 216.43ZM407.309 217.094C407.427 217.104 407.487 217.189 407.519 217.311C407.738 218.164 407.433 218.443 406.765 218.401C406.28 218.372 405.725 218.286 405.399 218.224C404.695 218.095 404.547 217.909 404.637 217.24L404.699 216.774C404.736 216.501 404.904 216.399 405.18 216.436C405.455 216.473 405.591 216.615 405.554 216.889L405.511 217.215C405.481 217.436 405.521 217.494 405.718 217.538C406.048 217.612 406.468 217.674 406.784 217.681C406.968 217.682 407.022 217.594 407.087 217.283C407.118 217.139 407.197 217.085 407.309 217.094ZM404.463 216.535C404.58 216.593 404.598 216.684 404.569 216.81C404.493 217.155 404.405 217.416 404.183 217.694C404.032 217.882 403.745 217.932 403.549 217.71C403.362 217.502 403.417 217.266 403.646 217.113C403.882 216.955 404.021 216.85 404.176 216.627C404.257 216.514 404.351 216.479 404.463 216.535ZM408.549 217.763C408.656 217.99 408.604 218.197 408.342 218.286C408.08 218.375 407.894 218.25 407.837 217.964C407.791 217.727 407.724 217.511 407.645 217.299C407.602 217.18 407.638 217.084 407.741 217.027C407.844 216.97 407.93 216.999 408.02 217.082C408.228 217.27 408.419 217.485 408.549 217.763Z" fill="#50589D"/>
<path d="M335.389 225.217C336.552 225.217 337.273 226.483 336.679 227.483L323.473 249.711C323.056 250.414 322.154 250.653 321.444 250.25L282.253 228.022C280.913 227.261 281.453 225.217 282.993 225.217H335.389Z" fill="#EDEDED" stroke="#C0BFBF" stroke-linejoin="round"/>
<path fill-rule="evenodd" clip-rule="evenodd" d="M110.155 85.5277C114.329 77.4898 116.688 68.3575 116.688 58.6743C116.688 26.4517 90.5668 0.330078 58.3442 0.330078C26.1216 0.330078 0 26.4517 0 58.6743C0 90.8969 26.1216 117.019 58.3442 117.019C70.1957 117.019 81.2218 113.485 90.4266 107.414L122.037 112.644L110.155 85.5277Z" fill="white"/>
<path d="M90.6962 46.1287C83.5414 27.1238 60.2884 35.6202 58.1643 45.1226C55.2577 35.0612 32.5636 27.571 25.6324 46.1287C17.9187 66.8105 55.4813 85.3683 58.1643 88.3867C60.8474 85.9272 98.41 66.4752 90.6962 46.1287Z" fill="#F893A6"/>
</svg>
