<svg width="100" height="102" viewBox="0 0 100 102" fill="none" xmlns="http://www.w3.org/2000/svg">
<path d="M15.633 44.186V66.2791L11.3694 71.0594L10.5632 72.2486C8.38989 75.4543 3.74038 75.657 1.29622 72.6528C0.457722 71.6221 -6.10352e-05 70.334 -6.10352e-05 69.0054V66.3202C-6.10352e-05 64.089 0.559783 61.8935 1.62819 59.9348L2.3627 58.5882C4.89501 53.9456 8.35194 49.8713 12.5201 46.6167L15.633 44.186Z" fill="#484848"/>
<path d="M84.3668 44.186V66.2791L88.6304 71.0594L89.4366 72.2486C91.61 75.4543 96.2595 75.657 98.7036 72.6528C99.5421 71.6221 99.9999 70.334 99.9999 69.0054V66.3202C99.9999 64.089 99.4401 61.8935 98.3717 59.9348L97.6371 58.5882C95.1048 53.9456 91.6479 49.8713 87.4797 46.6167L84.3668 44.186Z" fill="#484848"/>
<path d="M85.5634 33.5982C87.6439 53 85.5634 126.5 49.6036 93.3675C13.6439 126.5 10.6439 53 13.6439 33.5982C13.6439 15.0424 29.7436 0 49.6036 0C69.4637 0 85.5634 15.0424 85.5634 33.5982Z" fill="#484848"/>
<path d="M77.1317 35.2715C77.1317 48.6148 64.6952 51.163 49.354 51.163C34.0127 51.163 21.5762 48.6148 21.5762 35.2715C21.5762 21.9282 34.0127 11.1113 49.354 11.1113C64.6952 11.1113 77.1317 21.9282 77.1317 35.2715Z" fill="#F6E6D0"/>
<path d="M45.9772 40C45.4852 38.5241 46.5838 37 48.1395 37H51.8636C53.4287 37 54.5627 38.492 54.1439 40C53.3208 44.5269 46.8334 44.5207 45.9772 40Z" fill="#343137"/>
<circle cx="40.1439" cy="28.5" r="2.5" fill="#343137"/>
<circle cx="60.1439" cy="28.5" r="2.5" fill="#343137"/>
</svg>
