<svg width="100" height="102" viewBox="0 0 100 102" fill="none" xmlns="http://www.w3.org/2000/svg">
<path d="M15.633 44.186V66.2791L11.3695 71.0594L10.5633 72.2486C8.38992 75.4543 3.74041 75.657 1.29625 72.6528C0.457753 71.6221 -3.05176e-05 70.334 -3.05176e-05 69.0054V66.3202C-3.05176e-05 64.089 0.559814 61.8935 1.62822 59.9348L2.36273 58.5882C4.89504 53.9456 8.35197 49.8713 12.5201 46.6167L15.633 44.186Z" fill="#50589D"/>
<path d="M84.3669 44.186V66.2791L88.6304 71.0594L89.4367 72.2486C91.61 75.4543 96.2595 75.657 98.7037 72.6528C99.5422 71.6221 99.9999 70.334 99.9999 69.0054V66.3202C99.9999 64.089 99.4401 61.8935 98.3717 59.9348L97.6372 58.5882C95.1049 53.9456 91.6479 49.8713 87.4798 46.6167L84.3669 44.186Z" fill="#50589D"/>
<path d="M85.5324 33.5982C87.6129 53 85.5324 126.5 49.5726 93.3675C13.6129 126.5 10.6129 53 13.6129 33.5982C13.6129 15.0424 29.7126 0 49.5726 0C69.4326 0 85.5324 15.0424 85.5324 33.5982Z" fill="#50589D"/>
<path d="M77.1318 35.2715C77.1318 48.6148 64.6953 51.163 49.354 51.163C34.0128 51.163 21.5763 48.6148 21.5763 35.2715C21.5763 21.9282 34.0128 11.1113 49.354 11.1113C64.6953 11.1113 77.1318 21.9282 77.1318 35.2715Z" fill="#F6E6D0"/>
<path d="M33.8293 23.7774C33.672 24.3646 34.3031 24.8489 34.8296 24.5449L40.8393 21.0753C41.3695 20.7691 41.353 19.9982 40.8102 19.7151C40.559 19.584 40.2564 19.6003 40.0207 19.7574L37.4029 21.5026L34.1499 23.3615C33.9918 23.4518 33.8764 23.6015 33.8293 23.7774Z" fill="#343137"/>
<path d="M63.8468 23.7774C64.0041 24.3646 63.3729 24.8489 62.8465 24.5449L56.8368 21.0753C56.3065 20.7691 56.323 19.9982 56.8659 19.7151C57.1171 19.584 57.4196 19.6003 57.6553 19.7574L60.2732 21.5026L63.5262 23.3615C63.6843 23.4518 63.7997 23.6015 63.8468 23.7774Z" fill="#343137"/>
<path d="M45.7778 42.1649C45.3479 41.735 45.6524 41 46.2603 41H53.1997C53.8119 41 54.1831 41.6759 53.8545 42.1925C53.7025 42.4316 53.4324 42.5688 53.1497 42.5506L50.01 42.3481L46.2633 42.3648C46.0813 42.3656 45.9065 42.2936 45.7778 42.1649Z" fill="#343137"/>
<circle cx="39.1129" cy="31.5" r="2.5" fill="#343137"/>
<circle cx="59.1129" cy="31.5" r="2.5" fill="#343137"/>
</svg>
