<svg width="303" height="308" viewBox="0 0 303 308" fill="none" xmlns="http://www.w3.org/2000/svg">
<path d="M47.2837 133.645V200.467L34.3882 214.926L31.9497 218.522C25.3762 228.218 11.3133 228.832 3.92072 219.745C1.38461 216.628 0 212.732 0 208.713V200.591C0 193.843 1.6933 187.202 4.92479 181.278L8.838 174.104C15.3813 162.108 24.3138 151.58 35.0841 143.17L47.2837 133.645Z" fill="#484848"/>
<path d="M255.176 133.645V200.467L268.071 214.926L270.51 218.522C277.083 228.218 291.146 228.832 298.539 219.745C301.075 216.628 302.46 212.732 302.46 208.713V200.591C302.46 193.843 300.766 187.202 297.535 181.278L293.622 174.104C287.078 162.108 278.146 151.58 267.375 143.17L255.176 133.645Z" fill="#484848"/>
<path d="M258.795 101.621C265.088 160.304 258.795 382.611 150.031 282.399C41.2674 382.611 32.1935 160.304 41.2674 101.621C41.2674 45.4972 89.9626 0 150.031 0C210.1 0 258.795 45.4972 258.795 101.621Z" fill="#484848"/>
<path d="M233.293 106.681C233.293 147.039 195.677 154.747 149.276 154.747C102.875 154.747 65.2596 147.039 65.2596 106.681C65.2596 66.3232 102.875 33.6064 149.276 33.6064C195.677 33.6064 233.293 66.3232 233.293 106.681Z" fill="#F6E6D0"/>
<circle cx="121.419" cy="86.2011" r="7.56149" fill="#343137"/>
<circle cx="151.061" cy="122" r="13" fill="#343137"/>
<circle cx="181.911" cy="86.2011" r="7.56149" fill="#343137"/>
</svg>
