<svg width="270" height="357" viewBox="0 0 270 357" fill="none" xmlns="http://www.w3.org/2000/svg">
<path d="M170.17 92.9904C160.92 95.7404 155.64 105.46 158.39 114.71L153.04 96.6805C150.29 87.4305 140.57 82.1504 131.32 84.9004C122.07 87.6504 116.79 97.3705 119.54 106.62C116.79 97.3705 107.07 92.0904 97.82 94.8404C88.57 97.5904 83.29 107.31 86.04 116.56L55.59 13.9604C52.53 3.64042 41.68 -2.23957 31.36 0.820434C21.04 3.88043 15.16 14.7304 18.22 25.0504L63.53 177.72L40.13 148.96C32.42 139.49 18.5 138.06 9.03002 145.77C-0.439982 153.48 -1.86999 167.4 5.84001 176.87L54.05 236.26C62.04 246.1 72.03 253.89 83.19 259.24C101.85 268.17 115.65 284.84 121.54 304.67L130.82 335.94L236.81 304.48L220.24 248.66C218.37 242.34 218.7 235.57 221.18 229.47L221.21 229.39C224.08 222.31 224.46 214.47 222.28 207.15L218 192.74L215.87 185.56L191.89 104.76C189.14 95.5104 179.42 90.2304 170.17 92.9804V92.9904Z" fill="#F6E6D0"/>
<path opacity="0.99" d="M48.42 33.58L34.91 37.59C31.96 38.46 28.86 36.78 27.99 33.84L24.66 22.64C22.68 15.96 26.49 8.94004 33.16 6.96004C39.84 4.98004 46.86 8.79001 48.84 15.46L52.17 26.66C53.05 29.61 51.36 32.71 48.42 33.58Z" fill="#E9B68A"/>
<path opacity="0.99" d="M36.93 166.891L25.37 176.951C22.19 179.721 17.36 179.391 14.59 176.211L11.3 172.391C5.75001 166.021 6.42 156.351 12.79 150.801C19.16 145.251 28.83 145.921 34.38 152.291L37.67 156.111C40.44 159.291 40.11 164.121 36.93 166.891Z" fill="#E9B68A"/>
<path d="M207.63 230.981C207.63 230.981 197.55 236.781 207.51 270.361C211.53 283.911 215.68 297.881 219.19 309.721L236.79 304.501L220.22 248.681C218.35 242.361 218.68 235.601 221.16 229.491L221.19 229.411C224.06 222.331 224.44 214.491 222.26 207.171L217.98 192.761C217.98 192.761 219.89 215.541 207.61 230.991L207.63 230.981Z" fill="#DDC6A2"/>
<path d="M149.22 330.491C140.21 296.621 138.99 270.411 111.09 257.241C89.6 247.091 54.04 236.271 54.04 236.271C62.03 246.111 72.02 253.901 83.18 259.251C101.84 268.181 115.64 284.851 121.53 304.681L130.81 335.951L149.22 330.491Z" fill="#E9B68A"/>
<path d="M240.317 267.904L99.785 309.611L129.292 409.035L269.824 367.328L240.317 267.904Z" fill="#D61D25"/>
<path d="M240.315 267.902L99.7839 309.609L109.477 342.271L250.009 300.564L240.315 267.902Z" fill="white"/>
<g style="mix-blend-mode:multiply">
<path d="M132.446 299.924L99.7838 309.617L129.291 409.041L161.953 399.347L132.446 299.924Z" fill="#C0BFBF"/>
</g>
</svg>
