<svg width="100" height="102" viewBox="0 0 100 102" fill="none" xmlns="http://www.w3.org/2000/svg">
<path d="M15.633 44.186V66.2791L11.3694 71.0594L10.5632 72.2486C8.38986 75.4543 3.74035 75.657 1.29619 72.6528C0.457692 71.6221 -9.15527e-05 70.334 -9.15527e-05 69.0054V66.3202C-9.15527e-05 64.089 0.559753 61.8935 1.62816 59.9348L2.36267 58.5882C4.89498 53.9456 8.35191 49.8713 12.5201 46.6167L15.633 44.186Z" fill="#6E9DD1"/>
<path d="M84.3668 44.186V66.2791L88.6304 71.0594L89.4366 72.2486C91.6099 75.4543 96.2594 75.657 98.7036 72.6528C99.5421 71.6221 99.9999 70.334 99.9999 69.0054V66.3202C99.9999 64.089 99.44 61.8935 98.3716 59.9348L97.6371 58.5882C95.1048 53.9456 91.6479 49.8713 87.4797 46.6167L84.3668 44.186Z" fill="#6E9DD1"/>
<path d="M85.1762 33.5982C87.2567 53 85.1762 126.5 49.2164 93.3675C13.2567 126.5 10.2566 53 13.2567 33.5982C13.2567 15.0424 29.3564 0 49.2164 0C69.0764 0 85.1762 15.0424 85.1762 33.5982Z" fill="#6E9DD1"/>
<path d="M77.1317 35.2715C77.1317 48.6148 64.6952 51.163 49.3539 51.163C34.0127 51.163 21.5762 48.6148 21.5762 35.2715C21.5762 21.9282 34.0127 11.1113 49.3539 11.1113C64.6952 11.1113 77.1317 21.9282 77.1317 35.2715Z" fill="#F6E6D0"/>
<path d="M45.4215 32.1649C44.9916 31.735 45.2961 31 45.904 31H52.8434C53.4557 31 53.8268 31.6759 53.4983 32.1925C53.3463 32.4316 53.0761 32.5688 52.7934 32.5506L49.6537 32.3481L45.9071 32.3648C45.725 32.3656 45.5502 32.2936 45.4215 32.1649Z" fill="#343137"/>
<circle cx="36.2566" cy="28" r="3" fill="#343137"/>
<circle cx="36.2566" cy="28" r="2" fill="#F5F5F5"/>
<circle cx="62.2566" cy="28" r="3" fill="#343137"/>
<circle cx="62.2566" cy="28" r="2" fill="#F5F5F5"/>
</svg>
