<svg width="1440" height="724" viewBox="0 0 1440 724" fill="none" xmlns="http://www.w3.org/2000/svg">
<path opacity="0.89" d="M1295.46 312H116.037C110.911 312 106.75 311.249 106.75 310.326V265.674C106.75 264.751 110.911 264 116.037 264H1295.46C1300.59 264 1304.75 264.751 1304.75 265.674V310.326C1304.75 311.249 1300.59 312 1295.46 312Z" fill="#4961AB"/>
<path opacity="0.36" d="M789.75 49H345.75V87H789.75V49Z" fill="#4961AB"/>
<path opacity="0.36" d="M1304.75 49H842.75V87H1304.75V49Z" fill="#4961AB"/>
<path opacity="0.36" d="M789.75 118H345.75V156H789.75V118Z" fill="#4961AB"/>
<path opacity="0.36" d="M1304.75 118H842.75V156H1304.75V118Z" fill="#4961AB"/>
<path opacity="0.36" d="M789.75 187H345.75V225H789.75V187Z" fill="#4961AB"/>
<path opacity="0.36" d="M1304.75 187H842.75V225H1304.75V187Z" fill="#4961AB"/>
<path opacity="0.36" d="M891.75 355H107.75V403H891.75V355Z" fill="#4961AB"/>
<path opacity="0.36" d="M893.75 440H109.75V488H893.75V440Z" fill="#4961AB"/>
<path opacity="0.89" d="M106.997 529L106.75 681.735L475.781 682.076L476.028 529.341L106.997 529Z" fill="#3C4592"/>
<path opacity="0.89" d="M522.847 529.425L522.6 682.16L891.63 682.501L891.877 529.766L522.847 529.425Z" fill="#4961AB"/>
<path opacity="0.89" d="M935.719 529.776L935.473 682.511L1304.5 682.852L1304.75 530.117L935.719 529.776Z" fill="#5D92CD"/>
<path opacity="0.36" d="M1304.75 355H935.75V488H1304.75V355Z" fill="#5D92CD"/>
<path opacity="0.36" d="M285.164 225H116.336C112.699 225 109.75 223.31 109.75 221.233V52.7668C109.75 50.6899 112.699 49 116.336 49H285.164C288.801 49 291.75 50.6899 291.75 52.7668V221.233C291.75 223.31 288.801 225 285.164 225Z" fill="#5D92CD"/>
<path opacity="0.89" d="M199.882 198.597C164.999 198.597 136.62 170.218 136.62 135.335C136.62 133.142 136.733 130.92 136.96 128.718L137.13 127.073H195.278C200.203 127.073 204.249 123.178 204.306 118.385V117.79C204.051 113.299 200.194 109.764 195.505 109.764H182.592C179.482 109.764 176.872 107.306 176.787 104.281C176.74 102.74 177.307 101.274 178.385 100.168C179.463 99.0623 180.9 98.4479 182.44 98.4479H206.963C207.464 98.4479 221.71 98.722 221.71 98.722C224.083 98.722 226.323 97.7672 227.996 96.0373C229.67 94.3073 230.539 92.0196 230.454 89.609C230.294 84.939 226.238 81.1482 221.417 81.1482H166.105L173.895 77.6315C182.081 73.9447 190.826 72.0635 199.882 72.0635C234.765 72.0635 263.144 100.443 263.144 135.326C263.144 139.863 262.662 144.391 261.698 148.797L261.386 150.243H197.036C191.932 150.243 187.782 154.393 187.782 159.498C187.782 164.603 191.932 168.753 197.036 168.753H211.339L210.791 171.022C210.621 171.731 210.536 172.449 210.536 173.149C210.536 178.253 214.686 182.403 219.791 182.403H242.498L238.159 185.703C227.079 194.135 213.835 198.588 199.891 198.588L199.882 198.597ZM140.467 130.741C140.345 132.272 140.288 133.813 140.288 135.335C140.288 168.195 167.022 194.92 199.872 194.92C211.056 194.92 221.748 191.885 231.116 186.081H219.781C212.653 186.081 206.849 180.286 206.849 173.149C206.849 172.912 206.849 172.666 206.868 172.43H197.027C189.899 172.43 184.095 166.626 184.095 159.498C184.095 152.37 189.89 146.566 197.027 146.566H258.398C259.107 142.879 259.457 139.097 259.457 135.326C259.457 114.944 249.181 96.9259 233.527 86.1774C233.867 87.2267 234.075 88.3327 234.113 89.4766C234.236 92.8987 232.997 96.1318 230.624 98.5802C228.252 101.038 225.066 102.39 221.653 102.39C221.615 102.39 207.482 102.116 206.944 102.116H182.422C181.883 102.116 181.382 102.324 181.004 102.711C180.625 103.099 180.427 103.609 180.446 104.158C180.474 105.216 181.429 106.067 182.582 106.067H195.496C202.132 106.067 207.605 111.125 207.955 117.582C207.974 117.865 207.974 118.139 207.974 118.413C207.898 125.201 202.198 130.722 195.269 130.722H140.467V130.741ZM185.551 77.4708H214.147C205.034 75.2209 194.881 75.1642 185.551 77.4708Z" fill="white"/>
<path opacity="0.89" d="M237.658 186.09H219.791C212.663 186.09 206.859 180.295 206.859 173.158C206.859 172.922 206.859 172.676 206.877 172.44H197.036C189.909 172.44 184.104 166.635 184.104 159.507C184.104 152.38 189.899 146.575 197.036 146.575H262.189L261.707 148.806C258.531 163.468 250.165 176.571 238.159 185.712L237.667 186.09H237.658ZM197.036 150.262C191.932 150.262 187.782 154.412 187.782 159.517C187.782 164.622 191.932 168.772 197.036 168.772H211.339L210.791 171.041C210.621 171.75 210.536 172.468 210.536 173.168C210.536 178.272 214.686 182.422 219.791 182.422H236.419C246.856 174.302 254.305 162.977 257.585 150.271H197.046L197.036 150.262Z" fill="white"/>
<path opacity="0.89" d="M195.278 130.741H136.752L136.96 128.708C139.276 106.436 153.428 86.8674 173.895 77.6314L174.651 77.4707H221.417C228.195 77.4707 233.895 82.8591 234.132 89.4859C234.254 92.9081 233.016 96.1411 230.643 98.5896C228.27 101.047 225.085 102.399 221.672 102.399C221.634 102.399 207.501 102.125 206.963 102.125H182.44C181.902 102.125 181.401 102.333 181.022 102.721C180.644 103.108 180.446 103.619 180.465 104.167C180.493 105.226 181.448 106.077 182.601 106.077H195.514C202.151 106.077 207.624 111.134 207.974 117.591C207.993 117.874 207.993 118.149 207.993 118.423C207.908 125.21 202.217 130.731 195.288 130.731L195.278 130.741ZM140.864 127.063H195.278C200.203 127.063 204.249 123.168 204.306 118.375V117.78C204.051 113.29 200.194 109.754 195.505 109.754H182.592C179.482 109.754 176.872 107.296 176.787 104.271C176.74 102.73 177.307 101.265 178.385 100.159C179.463 99.0528 180.9 98.4383 182.44 98.4383H206.963C207.464 98.4383 221.71 98.7125 221.71 98.7125C224.083 98.7125 226.323 97.7576 227.996 96.0277C229.67 94.2977 230.539 92.01 230.454 89.5994C230.293 84.9294 226.238 81.1386 221.417 81.1386H175.048C156.585 89.6183 143.644 107.05 140.864 127.054V127.063Z" fill="white"/>
<path opacity="0.8" d="M0 0H1440V724H0V0Z" fill="#303030" fill-opacity="0.7"/>
</svg>
