<svg width="303" height="308" viewBox="0 0 303 308" fill="none" xmlns="http://www.w3.org/2000/svg">
<path d="M47.2837 133.645V200.467L34.3882 214.926L31.9497 218.522C25.3762 228.218 11.3133 228.832 3.92072 219.745C1.38461 216.628 0 212.732 0 208.713V200.591C0 193.843 1.6933 187.202 4.92479 181.278L8.838 174.104C15.3813 162.108 24.3138 151.58 35.0841 143.17L47.2837 133.645Z" fill="#50589D"/>
<path d="M255.176 133.645V200.467L268.071 214.926L270.51 218.522C277.083 228.218 291.146 228.832 298.539 219.745C301.075 216.628 302.46 212.732 302.46 208.713V200.591C302.46 193.843 300.766 187.202 297.535 181.278L293.622 174.104C287.078 162.108 278.146 151.58 267.375 143.17L255.176 133.645Z" fill="#50589D"/>
<path d="M258.701 101.621C264.994 160.304 258.701 382.611 149.937 282.399C41.1736 382.611 32.0998 160.304 41.1736 101.621C41.1736 45.4972 89.8688 0 149.937 0C210.006 0 258.701 45.4972 258.701 101.621Z" fill="#50589D"/>
<path d="M233.293 106.681C233.293 147.039 195.677 154.747 149.276 154.747C102.875 154.747 65.2596 147.039 65.2596 106.681C65.2596 66.3232 102.875 33.6064 149.276 33.6064C195.677 33.6064 233.293 66.3232 233.293 106.681Z" fill="#F6E6D0"/>
<path d="M102.32 71.9165C101.844 73.6926 103.753 75.1575 105.346 74.2381L123.522 63.7437C125.126 62.8178 125.076 60.4861 123.434 59.6296C122.675 59.2334 121.76 59.2825 121.047 59.7578L113.129 65.0363L103.29 70.6587C102.812 70.9318 102.463 71.3847 102.32 71.9165Z" fill="#343137"/>
<path d="M193.111 71.9165C193.587 73.6926 191.678 75.1575 190.085 74.2381L171.908 63.7437C170.305 62.8178 170.355 60.4861 171.997 59.6296C172.756 59.2334 173.671 59.2825 174.384 59.7578L182.302 65.0363L192.141 70.6587C192.619 70.9318 192.968 71.3847 193.111 71.9165Z" fill="#343137"/>
<path d="M138.459 127.532C137.159 126.232 138.08 124.009 139.919 124.009H160.908C162.759 124.009 163.882 126.053 162.888 127.616C162.429 128.339 161.611 128.754 160.756 128.699L151.26 128.086L139.928 128.137C139.377 128.139 138.849 127.921 138.459 127.532Z" fill="#343137"/>
<circle cx="118.301" cy="95.2744" r="7.56149" fill="#343137"/>
<circle cx="178.793" cy="95.2744" r="7.56149" fill="#343137"/>
</svg>
