<svg width="473" height="327" viewBox="0 0 473 327" fill="none" xmlns="http://www.w3.org/2000/svg">
<path d="M141.621 178.906V235.407L130.717 247.632L128.655 250.674C123.097 258.872 111.207 259.39 104.956 251.707C102.811 249.072 101.641 245.777 101.641 242.379V235.512C101.641 229.806 103.072 224.191 105.805 219.182L107.683 215.738C114.159 203.865 123 193.446 133.66 185.122L141.621 178.906Z" fill="#6E9DD1"/>
<path d="M317.4 178.906V235.407L328.304 247.632L330.366 250.674C335.924 258.872 347.815 259.39 354.065 251.707C356.21 249.072 357.381 245.777 357.381 242.379V235.512C357.381 229.806 355.949 224.191 353.216 219.182L351.338 215.738C344.862 203.865 336.021 193.446 325.361 185.122L317.4 178.906Z" fill="#6E9DD1"/>
<path d="M319.472 151.83C324.793 201.449 319.472 389.418 227.508 304.685C135.545 389.418 127.872 201.449 135.545 151.83C135.545 104.376 176.718 65.9062 227.508 65.9062C278.299 65.9062 319.472 104.376 319.472 151.83Z" fill="#6E9DD1"/>
<path d="M298.898 156.112C298.898 190.236 267.093 196.753 227.859 196.753C188.625 196.753 156.82 190.236 156.82 156.112C156.82 121.987 188.625 94.3242 227.859 94.3242C267.093 94.3242 298.898 121.987 298.898 156.112Z" fill="#F6E6D0"/>
<path d="M196.124 119.342C195.849 120.368 196.951 121.213 197.87 120.683L208.365 114.623C209.291 114.089 209.262 112.743 208.314 112.248V112.248C207.876 112.019 207.347 112.048 206.936 112.322L202.364 115.37L196.683 118.616C196.407 118.774 196.206 119.035 196.124 119.342V119.342Z" fill="#343137"/>
<path d="M257.378 119.342C257.653 120.368 256.551 121.213 255.632 120.683L245.137 114.623C244.211 114.089 244.24 112.743 245.188 112.248V112.248C245.626 112.019 246.155 112.048 246.566 112.322L251.138 115.37L256.819 118.616C257.095 118.774 257.296 119.035 257.378 119.342V119.342Z" fill="#343137"/>
<path d="M204.101 141.317C207.27 141.317 209.839 138.748 209.839 135.58C209.839 132.411 207.27 129.842 204.101 129.842C200.932 129.842 198.363 132.411 198.363 135.58C198.363 138.748 200.932 141.317 204.101 141.317Z" fill="#343137"/>
<path d="M251.642 141.317C254.811 141.317 257.38 138.748 257.38 135.58C257.38 132.411 254.811 129.842 251.642 129.842C248.473 129.842 245.904 132.411 245.904 135.58C245.904 138.748 248.473 141.317 251.642 141.317Z" fill="#343137"/>
<path d="M222.034 151.034C221.284 150.284 221.815 149 222.877 149H234.995C236.065 149 236.713 150.18 236.139 151.083V151.083C235.874 151.5 235.402 151.74 234.908 151.708L229.425 151.354L222.882 151.383C222.564 151.385 222.259 151.259 222.034 151.034V151.034Z" fill="#343137"/>
<path d="M365.697 180.278C365.964 179.811 366.461 179.523 366.998 179.523H468.953C470.059 179.523 470.784 180.679 470.305 181.675L437.12 250.544C436.87 251.063 436.345 251.393 435.769 251.393H327.565C326.413 251.393 325.691 250.148 326.263 249.148L365.697 180.278Z" fill="#EDEDED" stroke="#C0BFBF"/>
<path d="M406.723 209.809H390.85C387.662 209.809 385.078 212.393 385.078 215.58V215.58C385.078 218.768 387.662 221.352 390.85 221.352H406.723C409.91 221.352 412.494 218.768 412.494 215.58V215.58C412.494 212.393 409.91 209.809 406.723 209.809Z" fill="#FEFCF0"/>
<path d="M399.754 217.548H398.531L398.642 218.755L398.67 218.986C398.742 219.599 399.618 219.637 399.743 219.032C399.75 218.996 399.754 218.959 399.754 218.922V218.303V217.548Z" fill="#50589D"/>
<path d="M399.754 212.654H398.531L398.642 211.446L398.67 211.215C398.742 210.602 399.618 210.564 399.743 211.169C399.75 211.205 399.754 211.242 399.754 211.279V211.898V212.654Z" fill="#50589D"/>
<path d="M400.006 217.644C399.733 217.673 399.388 217.714 399.008 217.741C395.704 217.973 395.235 212.756 398.543 212.588C399.099 212.56 399.62 212.611 400.006 212.669C401.325 212.669 402.395 213.783 402.395 215.157C402.395 216.531 401.325 217.644 400.006 217.644Z" fill="#50589D"/>
<path d="M401.64 215.573C401.64 216.631 400.732 216.833 399.612 216.833C398.492 216.833 397.584 216.631 397.584 215.573C397.584 214.516 398.492 213.658 399.612 213.658C400.732 213.658 401.64 214.516 401.64 215.573Z" fill="#F6E6D0"/>
<path d="M399.319 215.819C399.283 215.782 399.31 215.721 399.361 215.721H399.925C399.976 215.721 400.008 215.777 399.981 215.821C399.968 215.842 399.945 215.855 399.92 215.853L399.666 215.836L399.361 215.837C399.345 215.837 399.33 215.831 399.319 215.819Z" fill="#343137"/>
<path d="M398.775 215.122C398.888 215.122 398.979 215.027 398.979 214.909C398.979 214.791 398.888 214.695 398.775 214.695C398.662 214.695 398.57 214.791 398.57 214.909C398.57 215.027 398.662 215.122 398.775 215.122Z" fill="#343137"/>
<path d="M400.412 215.122C400.525 215.122 400.616 215.027 400.616 214.909C400.616 214.791 400.525 214.695 400.412 214.695C400.299 214.695 400.207 214.791 400.207 214.909C400.207 215.027 400.299 215.122 400.412 215.122Z" fill="#343137"/>
<path d="M393.631 212.781C393.876 212.748 394.027 212.864 394.06 213.108L394.613 217.238C394.704 217.918 394.052 218.141 393.26 217.886C393.142 217.849 393.094 217.755 393.109 217.641C393.124 217.532 393.193 217.476 393.329 217.469C393.824 217.45 393.855 217.417 393.839 217.123L393.65 215.711L392.882 215.814L392.966 216.441C392.983 216.569 392.999 216.603 393.11 216.588C393.162 216.581 393.272 216.56 393.351 216.532C393.498 216.477 393.635 216.482 393.712 216.661C393.797 216.851 393.76 216.974 393.601 217.072C393.464 217.155 393.365 217.163 393.143 217.192C392.503 217.278 392.404 217.197 392.333 216.668L392.23 215.901L392.056 215.925L392.325 217.941C392.352 218.138 392.239 218.266 392 218.297C391.761 218.329 391.619 218.236 391.592 218.039L391.537 217.626L391.504 217.648C391.323 217.755 391.163 217.712 391.085 217.521C390.977 217.252 390.846 216.932 390.735 216.722C390.679 216.611 390.685 216.528 390.766 216.47C390.858 216.404 390.944 216.422 391.025 216.5C391.174 216.64 391.328 216.814 391.452 216.993L391.364 216.331C391.348 216.345 391.326 216.359 391.304 216.374C391.128 216.474 390.963 216.437 390.89 216.24L390.845 216.128C390.487 216.377 390.164 216.527 389.8 216.64C389.544 216.722 389.375 216.656 389.312 216.404C389.25 216.158 389.336 216.01 389.627 215.966L389.691 215.957C389.833 215.69 389.947 215.397 390.044 215.1C389.89 215.185 389.728 215.26 389.557 215.313C389.325 215.391 389.165 215.306 389.109 215.065C389.057 214.847 389.138 214.701 389.394 214.666C389.477 214.312 389.525 213.874 389.549 213.439C389.564 213.153 389.718 213.02 389.99 213.055C390.248 213.085 390.355 213.266 390.281 213.548C390.186 213.904 390.068 214.263 389.881 214.589C389.996 214.562 390.105 214.542 390.209 214.516C390.243 214.375 390.278 214.24 390.307 214.101C390.366 213.833 390.54 213.762 390.779 213.819C391.012 213.876 391.087 214.085 391.003 214.345C390.833 214.888 390.561 215.421 390.217 215.863C390.368 215.837 390.517 215.799 390.683 215.759C390.657 215.698 390.625 215.637 390.599 215.575C390.542 215.459 390.555 215.38 390.636 215.316C390.721 215.246 390.806 215.264 390.894 215.341C391.041 215.469 391.178 215.61 391.288 215.761L390.987 213.519C390.955 213.275 391.071 213.123 391.315 213.091L393.631 212.781ZM391.802 213.498C391.761 213.504 391.736 213.537 391.742 213.578L391.886 214.658C391.917 214.624 391.968 214.606 392.026 214.598L392.707 214.507C392.725 214.244 392.723 213.913 392.726 213.671C392.729 213.475 392.854 213.393 393.058 213.413C393.263 213.433 393.327 213.561 393.296 213.772C393.266 213.989 393.218 214.208 393.091 214.456L393.324 214.424C393.388 214.416 393.443 214.426 393.482 214.451L393.336 213.364C393.331 213.324 393.298 213.298 393.257 213.304L391.802 213.498ZM392.084 214.324C392.007 214.145 391.928 213.955 391.863 213.821C391.814 213.716 391.85 213.634 391.932 213.582C392.019 213.523 392.105 213.547 392.186 213.619C392.321 213.743 392.463 213.925 392.554 214.072C392.652 214.23 392.613 214.378 392.452 214.458C392.285 214.54 392.162 214.503 392.084 214.324ZM393.15 215.341L393.593 215.281L393.528 214.799C393.497 214.833 393.447 214.857 393.383 214.866L393.092 214.905L393.15 215.341ZM391.934 215.018L391.998 215.495L392.429 215.437L392.371 215.001L392.085 215.04C392.027 215.047 391.973 215.043 391.934 215.018ZM390.597 216.711C390.728 216.983 390.875 217.33 390.975 217.678C391.041 217.905 390.96 218.052 390.73 218.101C390.505 218.149 390.364 218.067 390.342 217.816C390.314 217.47 390.276 217.144 390.227 216.826C390.211 216.704 390.255 216.633 390.357 216.601C390.454 216.571 390.547 216.605 390.597 216.711ZM389.902 216.698C390.014 216.694 390.093 216.749 390.119 216.899C390.174 217.223 390.202 217.651 390.19 217.96C390.177 218.222 389.97 218.356 389.737 218.299C389.517 218.245 389.418 218.081 389.513 217.82C389.605 217.571 389.697 217.245 389.723 216.905C389.734 216.767 389.796 216.7 389.902 216.698Z" fill="#50589D"/>
<path d="M405.867 215.391L404.941 215.267C404.9 215.261 404.867 215.287 404.862 215.327L404.757 216.107C404.726 216.34 404.557 216.447 404.288 216.411C404.018 216.375 403.883 216.227 403.914 215.994L404.038 215.069C404.07 214.825 404.223 214.709 404.469 214.742L405.927 214.937L405.946 214.797L404.863 214.652C404.617 214.619 404.5 214.468 404.532 214.223L404.658 213.286C404.69 213.042 404.843 212.926 405.089 212.959L408.158 213.369C408.404 213.402 408.521 213.554 408.488 213.799L408.363 214.735C408.33 214.98 408.177 215.096 407.932 215.063L406.848 214.918L406.829 215.057L408.299 215.254C408.545 215.287 408.662 215.439 408.629 215.683L408.528 216.445C408.447 217.045 407.98 217.154 407.15 216.765C407.031 216.713 406.995 216.625 407.032 216.53C407.069 216.434 407.15 216.403 407.277 216.432C407.543 216.497 407.649 216.464 407.684 216.333L407.639 216.362C407.464 216.463 407.322 216.414 407.239 216.226L407.227 216.188C406.687 216.3 405.918 216.387 405.214 216.346C404.96 216.33 404.828 216.205 404.848 215.965C404.867 215.737 405.001 215.624 405.264 215.665L405.82 215.74L405.867 215.391ZM405.518 213.538L405.502 213.66L406.088 213.738L406.113 213.546L405.598 213.477C405.557 213.472 405.524 213.497 405.518 213.538ZM407.015 213.667L406.99 213.859L407.575 213.937L407.592 213.815C407.597 213.774 407.572 213.741 407.531 213.736L407.015 213.667ZM405.49 214.286L406.005 214.355L406.032 214.157L405.446 214.079L405.429 214.207C405.423 214.248 405.449 214.281 405.49 214.286ZM406.934 214.278L406.907 214.476L407.423 214.545C407.464 214.55 407.497 214.525 407.502 214.484L407.519 214.356L406.934 214.278ZM407.02 215.545L406.769 215.511L406.725 215.837C406.849 215.848 406.968 215.852 407.08 215.861L407.009 215.721C406.971 215.651 406.978 215.593 407.02 215.545ZM407.767 215.716C407.772 215.675 407.747 215.642 407.706 215.637L407.325 215.586C407.46 215.693 407.587 215.81 407.705 215.95L407.731 215.983L407.767 215.716ZM406.067 216.43C406.283 216.512 406.531 216.664 406.728 216.839C406.92 217.006 406.936 217.204 406.734 217.372C406.54 217.53 406.336 217.497 406.199 217.271C406.087 217.09 405.959 216.884 405.815 216.711C405.744 216.624 405.76 216.549 405.818 216.468C405.877 216.387 405.971 216.394 406.067 216.43ZM407.308 217.094C407.426 217.104 407.486 217.189 407.518 217.311C407.737 218.164 407.432 218.443 406.764 218.401C406.279 218.372 405.724 218.286 405.398 218.224C404.694 218.095 404.546 217.909 404.636 217.24L404.698 216.774C404.735 216.501 404.903 216.399 405.179 216.436C405.454 216.473 405.59 216.615 405.553 216.889L405.51 217.215C405.48 217.436 405.52 217.494 405.717 217.538C406.047 217.612 406.467 217.674 406.783 217.681C406.967 217.682 407.021 217.594 407.086 217.283C407.117 217.139 407.196 217.085 407.308 217.094ZM404.462 216.535C404.579 216.593 404.597 216.684 404.568 216.81C404.492 217.155 404.404 217.416 404.182 217.694C404.031 217.882 403.744 217.932 403.548 217.71C403.361 217.502 403.416 217.266 403.645 217.113C403.881 216.955 404.02 216.85 404.175 216.627C404.256 216.514 404.35 216.479 404.462 216.535ZM408.548 217.763C408.655 217.99 408.603 218.197 408.341 218.286C408.079 218.375 407.893 218.25 407.836 217.964C407.79 217.727 407.723 217.511 407.644 217.299C407.601 217.18 407.637 217.084 407.74 217.027C407.843 216.97 407.929 216.999 408.019 217.082C408.227 217.27 408.418 217.485 408.548 217.763Z" fill="#50589D"/>
<path d="M335.388 225.217C336.551 225.217 337.272 226.483 336.678 227.483L323.472 249.711C323.055 250.414 322.153 250.653 321.443 250.25L282.252 228.022C280.912 227.261 281.452 225.217 282.992 225.217H335.388Z" fill="#EDEDED" stroke="#C0BFBF" stroke-linejoin="round"/>
</svg>
